<?xml version="1.0" encoding="utf-8"?>
<!-- Generator: Adobe Illustrator 27.3.1, SVG Export Plug-In . SVG Version: 6.00 Build 0)  -->
<svg version="1.1" id="Calque_1" xmlns="http://www.w3.org/2000/svg" xmlns:xlink="http://www.w3.org/1999/xlink" x="0px" y="0px"
	 viewBox="0 0 1450 1450" style="enable-background:new 0 0 1450 1450;" xml:space="preserve">
<style type="text/css">
	.st0{clip-path:url(#SVGID_00000041273204002739527740000008044712944951791538_);}
	.st1{clip-path:url(#SVGID_00000030489346238526755970000014103781798588056459_);}
	.st2{clip-path:url(#SVGID_00000000906381015015942340000000938061107708307125_);}
	.st3{fill:url(#SVGID_00000121992958950901736650000016830736881630612364_);}
	.st4{fill:#FFFFFF;}
	.st5{fill:none;stroke:#4A2B77;stroke-width:15.8759;stroke-miterlimit:1;}
	.st6{fill:#4A2B77;}
	.st7{fill:#3C3C3B;}
</style>
<g>
	<g>
		<defs>
			<rect id="SVGID_1_" x="28.5" y="28.5" width="1393" height="1393"/>
		</defs>
		<clipPath id="SVGID_00000176027709349910923720000014639334399492806291_">
			<use xlink:href="#SVGID_1_"  style="overflow:visible;"/>
		</clipPath>
		<g style="clip-path:url(#SVGID_00000176027709349910923720000014639334399492806291_);">
			<g>
				<defs>
					<path id="SVGID_00000008855009414976511200000009453814111213710774_" d="M1242.6,1190.1c-39.3,43.7-84.8,83-136.3,116.7
						c-30.3,19.9-61.6,37-93.6,51.6c-184.6,84-392.4,81-570.2,2.1c-86.1-38.2-165.2-94.1-231.2-166.6
						c-24.7-27.1-47.5-56.5-68.2-88.1C51.7,966.3,17,806.1,33.2,652.3c10-95,39.4-187.5,86.9-271.3c52.8-93.2,128.1-175.6,224-238.4
						C418.3,94,498.3,61.4,580.1,44c94.7-20.2,191.8-20,285-0.9c175.2,35.9,336.5,139,442.2,300.4c7.1,10.9,13.9,21.8,20.3,32.9
						c49.5,85.5,78.8,177.7,89.2,270.7C1438.5,842.3,1376.7,1041.2,1242.6,1190.1z"/>
				</defs>
				<clipPath id="SVGID_00000178910573758287454630000007183669331051677622_">
					<use xlink:href="#SVGID_00000008855009414976511200000009453814111213710774_"  style="overflow:visible;"/>
				</clipPath>
				<g style="clip-path:url(#SVGID_00000178910573758287454630000007183669331051677622_);">
					<g>
						<defs>
							<path id="SVGID_00000070803287828829153130000002387811862988575413_" d="M1242.6,1190.1c-39.3,43.7-84.8,83-136.3,116.7
								c-30.3,19.9-61.6,37-93.6,51.6c-184.6,84-392.4,81-570.2,2.1c-86.1-38.2-165.2-94.1-231.2-166.6
								c-24.7-27.1-47.5-56.5-68.2-88.1C51.7,966.3,17,806.1,33.2,652.3c10-95,39.4-187.5,86.9-271.3
								c52.8-93.2,128.1-175.6,224-238.4C418.3,94,498.3,61.4,580.1,44c94.7-20.2,191.8-20,285-0.9
								c175.2,35.9,336.5,139,442.2,300.4c7.1,10.9,13.9,21.8,20.3,32.9c49.5,85.5,78.8,177.7,89.2,270.7
								C1438.5,842.3,1376.7,1041.2,1242.6,1190.1"/>
						</defs>
						<clipPath id="SVGID_00000099637261142099940070000002331015176089418683_">
							<use xlink:href="#SVGID_00000070803287828829153130000002387811862988575413_"  style="overflow:visible;"/>
						</clipPath>
						<g style="clip-path:url(#SVGID_00000099637261142099940070000002331015176089418683_);">
							
								<radialGradient id="SVGID_00000062911860288752001670000015770278199563359412_" cx="-180.5" cy="1504.5" r="695.85" gradientTransform="matrix(1 0 0 -1 905.685 2229.2)" gradientUnits="userSpaceOnUse">
								<stop  offset="0" style="stop-color:#C4A1E5"/>
								<stop  offset="7.812500e-03" style="stop-color:#C3A0E4"/>
								<stop  offset="1.171880e-02" style="stop-color:#C29FE3"/>
								<stop  offset="1.562500e-02" style="stop-color:#C29FE3"/>
								<stop  offset="1.953120e-02" style="stop-color:#C19EE3"/>
								<stop  offset="2.343750e-02" style="stop-color:#C19EE2"/>
								<stop  offset="2.734380e-02" style="stop-color:#C09EE2"/>
								<stop  offset="3.125000e-02" style="stop-color:#C09DE1"/>
								<stop  offset="3.515620e-02" style="stop-color:#BF9DE1"/>
								<stop  offset="3.906250e-02" style="stop-color:#BF9CE0"/>
								<stop  offset="4.296880e-02" style="stop-color:#BF9CE0"/>
								<stop  offset="4.687500e-02" style="stop-color:#BE9BE0"/>
								<stop  offset="5.078120e-02" style="stop-color:#BE9BDF"/>
								<stop  offset="5.468750e-02" style="stop-color:#BD9ADF"/>
								<stop  offset="5.859380e-02" style="stop-color:#BD9ADE"/>
								<stop  offset="6.250000e-02" style="stop-color:#BC99DE"/>
								<stop  offset="6.640620e-02" style="stop-color:#BC99DD"/>
								<stop  offset="7.031250e-02" style="stop-color:#BB98DD"/>
								<stop  offset="7.421880e-02" style="stop-color:#BB98DD"/>
								<stop  offset="7.812500e-02" style="stop-color:#BA98DC"/>
								<stop  offset="8.203121e-02" style="stop-color:#BA97DC"/>
								<stop  offset="8.593750e-02" style="stop-color:#B997DB"/>
								<stop  offset="8.984379e-02" style="stop-color:#B996DB"/>
								<stop  offset="9.375000e-02" style="stop-color:#B896DA"/>
								<stop  offset="9.765621e-02" style="stop-color:#B895DA"/>
								<stop  offset="0.1016" style="stop-color:#B795DA"/>
								<stop  offset="0.1055" style="stop-color:#B794D9"/>
								<stop  offset="0.1094" style="stop-color:#B694D9"/>
								<stop  offset="0.1133" style="stop-color:#B693D8"/>
								<stop  offset="0.1172" style="stop-color:#B593D8"/>
								<stop  offset="0.1211" style="stop-color:#B592D7"/>
								<stop  offset="0.125" style="stop-color:#B592D7"/>
								<stop  offset="0.1289" style="stop-color:#B492D7"/>
								<stop  offset="0.1328" style="stop-color:#B491D6"/>
								<stop  offset="0.1367" style="stop-color:#B391D6"/>
								<stop  offset="0.1406" style="stop-color:#B390D5"/>
								<stop  offset="0.1445" style="stop-color:#B290D5"/>
								<stop  offset="0.1484" style="stop-color:#B28FD4"/>
								<stop  offset="0.1523" style="stop-color:#B18FD4"/>
								<stop  offset="0.1562" style="stop-color:#B18ED4"/>
								<stop  offset="0.1602" style="stop-color:#B08ED3"/>
								<stop  offset="0.1641" style="stop-color:#B08DD3"/>
								<stop  offset="0.168" style="stop-color:#AF8DD2"/>
								<stop  offset="0.1719" style="stop-color:#AF8CD2"/>
								<stop  offset="0.1758" style="stop-color:#AE8CD1"/>
								<stop  offset="0.1797" style="stop-color:#AE8CD1"/>
								<stop  offset="0.1836" style="stop-color:#AD8BD1"/>
								<stop  offset="0.1875" style="stop-color:#AD8BD0"/>
								<stop  offset="0.1914" style="stop-color:#AC8AD0"/>
								<stop  offset="0.1953" style="stop-color:#AC8ACF"/>
								<stop  offset="0.1992" style="stop-color:#AB89CF"/>
								<stop  offset="0.2031" style="stop-color:#AB89CE"/>
								<stop  offset="0.207" style="stop-color:#AA88CE"/>
								<stop  offset="0.2109" style="stop-color:#AA88CE"/>
								<stop  offset="0.2148" style="stop-color:#AA87CD"/>
								<stop  offset="0.2188" style="stop-color:#A987CD"/>
								<stop  offset="0.2227" style="stop-color:#A986CC"/>
								<stop  offset="0.2266" style="stop-color:#A886CC"/>
								<stop  offset="0.2305" style="stop-color:#A886CB"/>
								<stop  offset="0.2344" style="stop-color:#A785CB"/>
								<stop  offset="0.2383" style="stop-color:#A785CB"/>
								<stop  offset="0.2422" style="stop-color:#A684CA"/>
								<stop  offset="0.2461" style="stop-color:#A684CA"/>
								<stop  offset="0.25" style="stop-color:#A583C9"/>
								<stop  offset="0.2539" style="stop-color:#A583C9"/>
								<stop  offset="0.2617" style="stop-color:#A482C8"/>
								<stop  offset="0.2695" style="stop-color:#A381C7"/>
								<stop  offset="0.2773" style="stop-color:#A280C6"/>
								<stop  offset="0.2852" style="stop-color:#A17FC5"/>
								<stop  offset="0.293" style="stop-color:#A07EC4"/>
								<stop  offset="0.3008" style="stop-color:#9F7DC3"/>
								<stop  offset="0.3086" style="stop-color:#9E7CC3"/>
								<stop  offset="0.3164" style="stop-color:#9D7BC2"/>
								<stop  offset="0.3242" style="stop-color:#9C7AC1"/>
								<stop  offset="0.332" style="stop-color:#9B79C0"/>
								<stop  offset="0.3398" style="stop-color:#9A78BF"/>
								<stop  offset="0.3477" style="stop-color:#9978BE"/>
								<stop  offset="0.3555" style="stop-color:#9877BD"/>
								<stop  offset="0.3633" style="stop-color:#9776BD"/>
								<stop  offset="0.3711" style="stop-color:#9675BC"/>
								<stop  offset="0.3789" style="stop-color:#9574BB"/>
								<stop  offset="0.3867" style="stop-color:#9473BA"/>
								<stop  offset="0.3945" style="stop-color:#9372B9"/>
								<stop  offset="0.4023" style="stop-color:#9271B8"/>
								<stop  offset="0.4102" style="stop-color:#9170B7"/>
								<stop  offset="0.418" style="stop-color:#916FB7"/>
								<stop  offset="0.4258" style="stop-color:#906EB6"/>
								<stop  offset="0.4336" style="stop-color:#8F6DB5"/>
								<stop  offset="0.4414" style="stop-color:#8E6CB4"/>
								<stop  offset="0.4492" style="stop-color:#8D6CB3"/>
								<stop  offset="0.457" style="stop-color:#8C6BB2"/>
								<stop  offset="0.4648" style="stop-color:#8B6AB1"/>
								<stop  offset="0.4727" style="stop-color:#8A69B1"/>
								<stop  offset="0.4805" style="stop-color:#8968B0"/>
								<stop  offset="0.4883" style="stop-color:#8867AF"/>
								<stop  offset="0.4961" style="stop-color:#8766AE"/>
								<stop  offset="0.5039" style="stop-color:#8665AD"/>
								<stop  offset="0.5078" style="stop-color:#8665AD"/>
								<stop  offset="0.5117" style="stop-color:#8564AC"/>
								<stop  offset="0.5156" style="stop-color:#8564AC"/>
								<stop  offset="0.5195" style="stop-color:#8463AC"/>
								<stop  offset="0.5234" style="stop-color:#8463AB"/>
								<stop  offset="0.5273" style="stop-color:#8363AB"/>
								<stop  offset="0.5312" style="stop-color:#8362AA"/>
								<stop  offset="0.5352" style="stop-color:#8262AA"/>
								<stop  offset="0.5391" style="stop-color:#8261A9"/>
								<stop  offset="0.543" style="stop-color:#8261A9"/>
								<stop  offset="0.5469" style="stop-color:#8160A9"/>
								<stop  offset="0.5508" style="stop-color:#8160A8"/>
								<stop  offset="0.5547" style="stop-color:#805FA8"/>
								<stop  offset="0.5586" style="stop-color:#805FA7"/>
								<stop  offset="0.5625" style="stop-color:#7F5EA7"/>
								<stop  offset="0.5664" style="stop-color:#7F5EA6"/>
								<stop  offset="0.5703" style="stop-color:#7E5DA6"/>
								<stop  offset="0.5742" style="stop-color:#7E5DA6"/>
								<stop  offset="0.5781" style="stop-color:#7D5DA5"/>
								<stop  offset="0.582" style="stop-color:#7D5CA5"/>
								<stop  offset="0.5859" style="stop-color:#7C5CA4"/>
								<stop  offset="0.5898" style="stop-color:#7C5BA4"/>
								<stop  offset="0.5938" style="stop-color:#7B5BA3"/>
								<stop  offset="0.5977" style="stop-color:#7B5AA3"/>
								<stop  offset="0.6016" style="stop-color:#7A5AA3"/>
								<stop  offset="0.6055" style="stop-color:#7A59A2"/>
								<stop  offset="0.6094" style="stop-color:#7959A2"/>
								<stop  offset="0.6133" style="stop-color:#7958A1"/>
								<stop  offset="0.6172" style="stop-color:#7858A1"/>
								<stop  offset="0.6211" style="stop-color:#7857A0"/>
								<stop  offset="0.625" style="stop-color:#7857A0"/>
								<stop  offset="0.6289" style="stop-color:#77569F"/>
								<stop  offset="0.6367" style="stop-color:#76559F"/>
								<stop  offset="0.6445" style="stop-color:#75549E"/>
								<stop  offset="0.6523" style="stop-color:#74549D"/>
								<stop  offset="0.6602" style="stop-color:#73539C"/>
								<stop  offset="0.668" style="stop-color:#72529B"/>
								<stop  offset="0.6758" style="stop-color:#71519A"/>
								<stop  offset="0.6836" style="stop-color:#705099"/>
								<stop  offset="0.6914" style="stop-color:#6F4F99"/>
								<stop  offset="0.6992" style="stop-color:#6E4E98"/>
								<stop  offset="0.707" style="stop-color:#6D4D97"/>
								<stop  offset="0.7148" style="stop-color:#6C4C96"/>
								<stop  offset="0.7227" style="stop-color:#6B4B95"/>
								<stop  offset="0.7305" style="stop-color:#6A4A94"/>
								<stop  offset="0.7383" style="stop-color:#694993"/>
								<stop  offset="0.7461" style="stop-color:#684892"/>
								<stop  offset="0.7539" style="stop-color:#684892"/>
								<stop  offset="0.7578" style="stop-color:#674791"/>
								<stop  offset="0.7617" style="stop-color:#674791"/>
								<stop  offset="0.7656" style="stop-color:#664691"/>
								<stop  offset="0.7695" style="stop-color:#664690"/>
								<stop  offset="0.7734" style="stop-color:#654690"/>
								<stop  offset="0.7773" style="stop-color:#65458F"/>
								<stop  offset="0.7812" style="stop-color:#64458F"/>
								<stop  offset="0.7852" style="stop-color:#64448E"/>
								<stop  offset="0.7891" style="stop-color:#63448E"/>
								<stop  offset="0.793" style="stop-color:#63438E"/>
								<stop  offset="0.7969" style="stop-color:#63438D"/>
								<stop  offset="0.8008" style="stop-color:#62428D"/>
								<stop  offset="0.8047" style="stop-color:#62428C"/>
								<stop  offset="0.8086" style="stop-color:#61418C"/>
								<stop  offset="0.8125" style="stop-color:#61418B"/>
								<stop  offset="0.8164" style="stop-color:#60408B"/>
								<stop  offset="0.8242" style="stop-color:#5F3F8A"/>
								<stop  offset="0.832" style="stop-color:#5E3E89"/>
								<stop  offset="0.8398" style="stop-color:#5D3D88"/>
								<stop  offset="0.8477" style="stop-color:#5C3D87"/>
								<stop  offset="0.8555" style="stop-color:#5B3C86"/>
								<stop  offset="0.8633" style="stop-color:#5A3B86"/>
								<stop  offset="0.8711" style="stop-color:#593A85"/>
								<stop  offset="0.8789" style="stop-color:#593984"/>
								<stop  offset="0.8828" style="stop-color:#583984"/>
								<stop  offset="0.8867" style="stop-color:#583883"/>
								<stop  offset="0.8906" style="stop-color:#573883"/>
								<stop  offset="0.8945" style="stop-color:#573782"/>
								<stop  offset="0.8984" style="stop-color:#563782"/>
								<stop  offset="0.9023" style="stop-color:#563682"/>
								<stop  offset="0.9062" style="stop-color:#553681"/>
								<stop  offset="0.9102" style="stop-color:#543580"/>
								<stop  offset="0.918" style="stop-color:#543480"/>
								<stop  offset="0.9258" style="stop-color:#53337F"/>
								<stop  offset="0.9336" style="stop-color:#52327E"/>
								<stop  offset="0.9414" style="stop-color:#51327D"/>
								<stop  offset="0.9453" style="stop-color:#50317D"/>
								<stop  offset="0.9492" style="stop-color:#50317C"/>
								<stop  offset="0.9531" style="stop-color:#4F307C"/>
								<stop  offset="0.957" style="stop-color:#4F307B"/>
								<stop  offset="0.9648" style="stop-color:#4E2F7A"/>
								<stop  offset="0.9727" style="stop-color:#4D2E7A"/>
								<stop  offset="0.9766" style="stop-color:#4D2E79"/>
								<stop  offset="0.9805" style="stop-color:#4C2D79"/>
								<stop  offset="0.9883" style="stop-color:#4B2C78"/>
								<stop  offset="0.9922" style="stop-color:#4A2B77"/>
								<stop  offset="1" style="stop-color:#4A2B77"/>
							</radialGradient>
							<path style="fill:url(#SVGID_00000062911860288752001670000015770278199563359412_);" d="M17,23.8v1418.6h1421.5V23.8H17z"/>
						</g>
					</g>
				</g>
			</g>
		</g>
	</g>
	<path class="st4" d="M864.9,1406.7c-90.8,18.6-185.2,18.8-278.7-0.2c0.4-1,0.7-2,1.1-2.9c10.8-29.2,23.8-58.6,37.3-89.9
		c2.1-4.8,5.3-8.8,9-11.5c3.8-2.9,8.1-4.6,12.7-4.7c3.3-0.1,6.7-0.3,10-0.4l10-0.3c6.7-0.3,13.2-0.3,19.8-0.6
		c13.2-0.1,26.3-0.5,39.4-0.4c3.3-0.1,6.6-0.1,9.8,0l4.9,0.1h4.9c6.6,0.1,13.1,0.2,19.7,0.3l4.9,0.2l5,0.1c3.3,0.1,6.6,0.2,9.9,0.3
		c3.3,0.1,6.6,0.1,9.9,0.3c3.3,0.1,6.7,0.3,10,0.4c4.5,0.1,8.9,1.9,12.7,4.7c3.8,2.8,6.9,6.7,9,11.5c13.6,31.3,26.5,60.7,37.4,89.9
		C864.2,1404.6,864.6,1405.6,864.9,1406.7"/>
	<path class="st4" d="M265.8,1106.9c-20.3,27.3-39.4,53.3-59.2,77.2c-0.7,0.8-1.3,1.6-2,2.4c-22.3-25.2-42.8-52.1-61.6-80.7
		c-33.2-50.7-59.3-104.6-78.1-160.5c1.1-0.2,2.2-0.4,3.3-0.6c30.7-5.2,62.8-8.8,96.5-12.7c10.2-1.1,20.2,2.9,25,10.6
		c1.8,2.8,3.5,5.7,5.2,8.5c1.8,2.8,3.6,5.6,5.4,8.4c1.8,2.8,3.5,5.6,5.2,8.5l2.5,4.3l2.7,4.2c3.5,5.6,6.9,11.2,10.1,16.9
		c3.5,5.6,6.9,11.2,10.1,17c3.1,5.8,6.7,11.3,9.8,17.1c3.2,5.8,6.3,11.6,9.5,17.4c6.4,11.6,12.7,23.3,18.9,35.1
		C273.2,1088,272,1098.5,265.8,1106.9"/>
	<path class="st4" d="M268.5,369.9c-12.3,23.7-24.9,46.7-38,69.4c-1.7,2.8-3.3,5.7-4.9,8.5l-5,8.5c-3.2,5.7-6.8,11.3-10.1,17
		c-6.9,11.2-13.7,22.6-20.9,33.8c-2.4,3.9-6,6.8-10.4,8.7c-4.4,1.8-9.3,2.7-14.5,2.1c-16.9-1.9-33.4-3.8-49.5-5.8
		c-16-2-31.7-4.1-47-6.7c-1.1-0.2-2.1-0.4-3.2-0.5C94.7,415,141.9,333.2,204,263.3c0.7,0.8,1.4,1.7,2.1,2.5
		c19.8,23.9,39,50,59.2,77.3C271.5,351.4,272.8,362,268.5,369.9"/>
	<path class="st4" d="M864.1,42.9c-0.3,1-0.7,2-1.1,2.9c-5.4,14.6-11.4,29.3-17.6,44.2c-6.3,14.9-12.9,30-19.7,45.7
		c-4.2,9.6-12.7,15.8-21.7,16.2c-26.7,1-53,1.7-79.2,1.6c-13.1,0.1-26.2-0.2-39.4-0.4c-6.6-0.2-13.2-0.2-19.8-0.6l-9.9-0.3
		c-3.3-0.1-6.7-0.3-10-0.4c-4.5-0.1-8.9-1.9-12.7-4.7c-3.7-2.8-6.9-6.7-9-11.5c-13.6-31.3-26.5-60.7-37.4-89.9
		c-0.4-1-0.8-2.1-1.1-3.1C676.2,24.1,770.7,23.9,864.1,42.9"/>
	<path class="st4" d="M1385.4,504.1c-1.1,0.2-2.1,0.4-3.2,0.6c-30.7,5.3-62.6,8.8-96.5,12.7c-5.2,0.6-10.2-0.2-14.5-2
		c-4.4-1.9-8-4.8-10.4-8.6c-1.7-2.8-3.6-5.6-5.4-8.4l-5.2-8.4c-3.6-5.6-6.9-11.3-10.4-16.9c-3.4-5.6-6.8-11.3-10.2-16.9l-2.5-4.2
		l-2.6-4.2c-1.7-2.8-3.3-5.7-4.9-8.6l-9.8-17.1l-4.8-8.6c-1.6-2.9-3.3-5.7-4.9-8.6c-3.3-5.7-6.4-11.6-9.4-17.5l-1.1-2.2l-1.2-2.2
		l-2.4-4.4c-1.6-2.9-3.2-5.9-4.7-8.8c-2.1-4-2.8-8.7-2.1-13.4c0.5-4.6,2.3-9.3,5.4-13.5c20.2-27.3,39.3-53.3,59.2-77.3
		c0.7-0.8,1.4-1.7,2.1-2.5c22.2,25.2,42.8,52.1,61.6,80.7C1340.5,394.2,1366.6,448.2,1385.4,504.1"/>
	<path class="st4" d="M1385.4,944.6c-29.7,89.8-76.9,171.6-139.1,241.5c-0.7-0.8-1.4-1.7-2.1-2.5c-19.9-24-38.8-49.9-59.2-77.3
		c-3.1-4.2-4.9-8.9-5.5-13.6c-0.5-4.7,0.1-9.3,2.2-13.3c12.5-23.6,24.9-46.7,38.1-69.3c1.7-2.8,3.2-5.7,4.9-8.5
		c1.6-2.9,3.4-5.6,5-8.5c3.2-5.7,6.8-11.3,10.1-16.9c6.9-11.2,13.7-22.6,21-33.8c4.7-7.7,14.6-11.9,24.9-10.8
		c16.9,1.9,33.4,3.7,49.5,5.8c16,2,31.7,4.1,47,6.7C1383.3,944.2,1384.3,944.4,1385.4,944.6"/>
	<path class="st4" d="M655.1,281.9c-6.6,0-12.3-4.8-13.3-11.5c-1.1-7.4,3.9-14.2,11.3-15.4c23.6-3.6,47.7-5.4,71.6-5.4
		c21.2,0,42.6,1.4,63.6,4.3c7.4,1,12.6,7.8,11.6,15.2c-1,7.4-7.8,12.6-15.2,11.6c-19.8-2.7-40-4-60-4c-22.6,0-45.3,1.7-67.6,5.1
		C656.5,281.8,655.8,281.9,655.1,281.9z M1024.1,386.4c-3.1,0-6.2-1.1-8.7-3.2c-32.5-27.6-68.8-50.5-107.9-67.8
		c-6.8-3-9.9-11-6.9-17.8c3-6.8,11-9.9,17.8-6.9c41.5,18.4,80,42.6,114.5,71.9c5.7,4.8,6.4,13.3,1.5,19
		C1031.8,384.8,1028,386.4,1024.1,386.4z M419.6,392.2c-3.7,0-7.5-1.5-10.1-4.6c-4.9-5.6-4.4-14.1,1.2-19.1
		c17-14.9,35.2-28.8,54.3-41.3c18.8-12.3,38.6-23.4,58.8-32.8c6.7-3.2,14.8-0.3,17.9,6.5c3.2,6.8,0.3,14.8-6.5,17.9
		c-19.1,9-37.7,19.4-55.5,31c-18,11.8-35.2,24.9-51.2,39C426,391.1,422.8,392.2,419.6,392.2z M1167.1,604.4
		c-5.8,0-11.1-3.8-12.9-9.6c-12.4-40.7-30.5-79.6-54.1-115.5l-0.3-0.4c-4.1-6.2-2.4-14.6,3.9-18.7c6.2-4.1,14.6-2.4,18.7,3.9
		l0.3,0.5c24.9,38.1,44.2,79.3,57.3,122.5c2.2,7.1-1.9,14.7-9,16.8C1169.7,604.2,1168.4,604.4,1167.1,604.4z M281.1,612.2
		c-1.2,0-2.5-0.2-3.7-0.5c-7.2-2-11.3-9.5-9.3-16.7c12.4-43.7,30.9-85.2,54.9-123.5c4-6.3,12.3-8.2,18.6-4.2
		c6.3,4,8.2,12.3,4.2,18.6c-22.7,36.1-40.1,75.3-51.8,116.5C292.4,608.4,287,612.2,281.1,612.2z M1169.2,864.4
		c-1.2,0-2.5-0.2-3.7-0.5c-7.2-2-11.3-9.5-9.3-16.7c11.4-40,17.1-81.4,17.1-123c0-1.1,0-2.3,0-3.4c-0.1-7.4,5.9-13.5,13.4-13.6
		c0,0,0.1,0,0.1,0c7.4,0,13.4,6,13.5,13.4c0,1.2,0,2.4,0,3.7c0,44-6.1,87.9-18.1,130.3C1180.5,860.6,1175.1,864.4,1169.2,864.4z
		 M283.4,872.3c-5.8,0-11.1-3.8-12.9-9.6c-13.2-43.3-20-88.3-20.4-133.7c-0.1-7.5,5.9-13.5,13.4-13.6c0,0,0.1,0,0.1,0
		c7.4,0,13.4,6,13.5,13.4c0.4,42.8,6.8,85.2,19.2,126.1c2.2,7.1-1.9,14.7-9,16.8C286,872.1,284.7,872.3,283.4,872.3z M1030.6,1084.4
		c-3.8,0-7.5-1.6-10.1-4.6c-4.9-5.6-4.4-14.1,1.2-19c32.1-28.2,59.9-60.9,82.7-97.1c4-6.3,12.3-8.2,18.6-4.2
		c6.3,4,8.2,12.3,4.2,18.6c-24.1,38.3-53.6,73-87.7,102.9C1036.9,1083.3,1033.7,1084.4,1030.6,1084.4z M426,1089.8
		c-3.1,0-6.2-1.1-8.7-3.2c-34.3-29.2-64.4-63.4-89.4-101.4c-4.1-6.2-2.3-14.6,3.9-18.7c6.2-4.1,14.6-2.3,18.7,3.9
		c23.6,35.9,51.9,68.1,84.3,95.7c5.7,4.8,6.4,13.4,1.5,19C433.6,1088.2,429.8,1089.8,426,1089.8z M794.9,1194.6
		c-6.6,0-12.3-4.8-13.3-11.5c-1.1-7.4,3.9-14.2,11.3-15.4c42.2-6.4,83.3-18.9,122-37.1c6.8-3.2,14.8-0.3,17.9,6.5
		c3.2,6.8,0.2,14.8-6.5,17.9c-41.1,19.2-84.6,32.5-129.4,39.3C796.3,1194.5,795.6,1194.6,794.9,1194.6z M663.6,1195.6
		c-0.6,0-1.2,0-1.8-0.1c-44.9-6.1-88.7-18.5-130.1-36.9c-6.8-3-9.9-11-6.8-17.8c3-6.8,11-9.9,17.8-6.8c39,17.4,80.3,29.1,122.7,34.8
		c7.4,1,12.6,7.8,11.6,15.2C676,1190.7,670.2,1195.6,663.6,1195.6"/>
	<path class="st5" d="M1406.3,866.8c-5.5,26.5-12.5,52.5-20.9,77.8c-29.7,89.8-76.9,171.6-139.1,241.5
		c-40.6,45.7-87.5,86.3-140,120.7c-74.7,48.9-156.4,82.5-241.4,99.9c-90.8,18.6-185.2,18.8-278.7-0.2c-1.1-0.2-2.1-0.4-3.2-0.6
		c-148.5-31-279.8-107.6-378.4-219.3c-22.3-25.2-42.8-52.1-61.6-80.7c-33.2-50.7-59.3-104.6-78.1-160.5
		C26.1,829.6,18.5,705.2,44.1,582.6c5.5-26.5,12.5-52.4,20.9-77.8C94.7,415,141.9,333.2,204,263.3c40.6-45.7,87.5-86.3,140-120.7
		c74.7-48.9,156.4-82.5,241.4-99.9c90.8-18.6,185.2-18.8,278.7,0.2c1.1,0.2,2.1,0.4,3.2,0.6c148.5,31,279.8,107.6,378.4,219.3
		c22.2,25.2,42.8,52.1,61.6,80.7c33.2,50.7,59.3,104.6,78.1,160.5C1424.3,619.8,1431.9,744.2,1406.3,866.8z"/>
	<path class="st4" d="M1304.1,763.4c-21.3,0-38.6-17.3-38.6-38.7c0-21.3,17.3-38.6,38.6-38.6c21.3,0,38.6,17.3,38.6,38.6
		C1342.8,746,1325.4,763.4,1304.1,763.4"/>
	<path class="st4" d="M146.3,763.4c-21.3,0-38.6-17.3-38.6-38.7c0-21.3,17.3-38.6,38.6-38.6s38.6,17.3,38.6,38.6
		C184.9,746,167.6,763.4,146.3,763.4"/>
	<path class="st4" d="M427.4,1275.8c-21.3,0-38.6-17.3-38.6-38.6c0-21.3,17.3-38.7,38.6-38.7c21.3,0,38.6,17.3,38.6,38.7
		C466,1258.5,448.7,1275.8,427.4,1275.8"/>
	<path class="st4" d="M427.4,250.9c-21.3,0-38.6-17.3-38.6-38.6c0-21.3,17.3-38.7,38.6-38.7c21.3,0,38.6,17.3,38.6,38.7
		C466,233.5,448.7,250.9,427.4,250.9"/>
	<path class="st4" d="M1023,1275.8c-21.3,0-38.6-17.3-38.6-38.6c0-21.3,17.3-38.7,38.6-38.7s38.6,17.3,38.6,38.7
		C1061.6,1258.5,1044.3,1275.8,1023,1275.8"/>
	<path class="st4" d="M1023,250.9c-21.3,0-38.6-17.3-38.6-38.6c0-21.3,17.3-38.7,38.6-38.7s38.6,17.3,38.6,38.7
		C1061.6,233.5,1044.3,250.9,1023,250.9"/>
	<path class="st4" d="M1058.6,506.4c120.6,184.1,69,431.1-115.1,551.7c-184.1,120.5-431.1,69-551.7-115.1
		c-120.6-184.1-69-431.1,115.1-551.7C691,270.8,938,322.3,1058.6,506.4"/>
	<path class="st6" d="M1059.8,742.6l-5.4-5.6c-8.3-8.5-17.3-16.4-26.1-23.7c-0.1-0.1-0.1-0.3,0-0.4c4.1-3.9,8.3-8,12.4-12.3l3.1-3.2
		l2.9-3.3c2-2.2,3.9-4.4,5.9-6.7l5-5.9c3.2-3.9,7.6-6.4,12.4-7.1c4.7-0.7,9.8,0.4,13.9,3.7c4,3.3,6.4,8.1,6.9,13
		c0.3,2.5-0.1,5-0.8,7.4c-0.8,2.4-2,4.7-3.7,6.6l-2.4,2.8c-0.4,0.4,0.1,1,0.6,0.8c4.8-2.7,9.7-5.2,14.2-9.7c0.2-0.2,0.5-0.1,0.5,0.1
		l0.7,11.4c0.1,3.8,0.1,7.6,0.1,11.4c0,0.3-0.3,0.4-0.5,0.2c-4.9-4.2-9.9-6.3-14.9-8.7c-0.5-0.2-0.9,0.4-0.6,0.8l2.6,2.6
		c3.7,3.7,5.6,8.7,5.6,13.7c-0.2,5-2.2,9.9-6,13.5c-1.9,1.8-4.1,3-6.4,3.8c-2.3,0.8-4.8,1-7.2,0.9c-2.4-0.2-4.7-0.8-6.9-1.8
		C1063.6,745.9,1061.6,744.5,1059.8,742.6"/>
	<path class="st6" d="M1087.3,825.1c-2.2-3.7-4.2-7.2-6.6-10.7c-2.3-3.5-4.7-7-7-10.4c-2.4-3.4-4.7-6.7-7.2-10
		c-2.5-3.3-5-6.5-7.6-9.6c-0.1-0.1-0.2-0.1-0.3-0.1c-3.5,2.1-7,4-10.4,6c-3.4,1.9-7.1,3.7-10.7,5.5c-3.5,1.8-7.1,3.4-10.6,5
		c-3.5,1.6-7.2,3.1-10.8,4.6c-0.1,0.1-0.2,0.2-0.1,0.3c4.6,6.2,9.2,12.7,13.4,19.3c4.2,6.6,8.5,13.6,12.2,20.7
		c0.1,0.1,0.2,0.2,0.3,0.1c7.8-2.7,15.2-5.8,22.8-9.2c7.7-3.3,15.1-7.1,22.6-11.1C1087.3,825.4,1087.4,825.2,1087.3,825.1"/>
	<path class="st6" d="M1054.3,643.1c1.5-2.5,3.1-5,4.6-7.5c1.8-3,3.6-6,5.2-9.1c1.6-3.1,3.3-6.2,4.9-9.3c1.6-3.2,3.2-6.4,4.8-9.6
		c1.6-3.2,2.9-6.5,4.4-9.8c0.1-0.2,0-0.3-0.2-0.4c-3.2-1.6-6.5-3.2-9.7-4.8l-4.8-2.3l-4.9-2.1c-6.6-2.8-13-5.4-19.5-7.7
		c-2.8-1-5.6-1.9-8.4-2.8c-5.5-1.8-11.1-1.1-16,1.4c-2.4,1.2-4.7,2.9-6.5,4.9c-1.9,2-3.4,4.2-4.4,6.7c-1.1,2.5-1.6,5.1-1.5,7.4
		c0,2.4,0.4,4.8,1.3,6.9c1.8,4.3,5.6,7.7,10.6,9.7c2.5,0.9,5.1,1.9,7.6,3c0.1,0.1,0.2,0.2,0.1,0.4c-1.3,2.4-2.6,4.8-3.9,7.1
		c-2.8,4.8-3.4,9.8-2,14.2c0.8,2.2,1.7,4.3,3.3,6.2c1.5,1.9,3.6,3.5,6,4.7c2.4,1.2,5.1,2,7.8,2.3
		C1041,653.7,1049.8,650.4,1054.3,643.1"/>
	<path class="st6" d="M997.3,942.9c-3.5-2.9-5.6-7-6.2-11.1c-0.3-2.1-0.2-4.1,0.2-6.1c0.2-1,0.6-2,1-2.9c0.4-1,0.9-1.9,1.5-2.8
		c1.2-1.7,2.6-3.1,4.3-4.2c0.2-0.1,0.1-0.5-0.2-0.4c-4.5,1.1-9.6,0.2-13.8-2.8c-3.8-2.7-6.3-6.6-7.3-10.5c-0.5-2-0.7-4-0.4-5.9
		c0.1-1,0.4-1.9,0.7-2.8c0.3-0.9,0.7-1.8,1.2-2.7c2.1-3.5,5.7-5.6,9.8-6.3c4.1-0.7,8.6-0.1,12.7,2.3c2.3,1.3,4.2,3.1,5.6,5.1
		c1.4,2,2.4,4.3,2.7,6.6c0,0.2,0.4,0.3,0.5,0c0.4-1.9,1-3.8,2.1-5.6c2.2-3.7,5.8-6.1,9.9-7.2c4.1-1.1,8.5-0.8,12.6,1.2
		c4.2,2.1,7.3,5.9,8.5,10.1c1.2,4.2,0.7,9.1-1.8,13.3c-0.7,1.2-1.5,2.3-2.4,3.3c-0.9,0.9-2,1.8-3.1,2.5c-2.2,1.4-4.6,2.3-7.1,2.6
		c-0.5,0.1-0.6,0.7-0.1,0.9c4.1,1.5,8.5,2.2,13,1.9c1-0.1,2.1-0.2,3.2-0.4c0.2,0,0.4,0.2,0.3,0.4c-3.8,5.9-7.4,11.9-11.5,17.5
		c-0.1,0.2-0.4,0.1-0.4-0.1c-0.3-1.1-0.6-2.1-0.9-3.1c-1.5-4.2-3.8-8-6.9-11.1c-0.3-0.3-0.9,0-0.7,0.5c1.4,4.8,0.6,10.3-2.7,14.8
		c-2.8,4.1-7.2,6.3-11.6,6.9C1005.5,947.1,1000.9,945.9,997.3,942.9"/>
	<path class="st6" d="M811.2,1048.1l3.6-6.8c2.7-5.4,5.3-10.8,7.7-16.1c1.2-2.7,2.4-5.3,3.5-8c1.1-2.7,2.1-5.5,3.2-8.2
		c0.1-0.2,0.2-0.2,0.4-0.1c10.2,5.8,20.7,10.6,31.8,15.4c2.4,1,4.7,1.9,7.1,2.8c9.4,3.6,15,14,11.4,23.9c-0.9,2.5-2.3,4.7-4,6.5
		c-1.8,1.8-3.9,3.2-6.2,4.1c-4.6,1.9-9.9,2.3-14.8,0.1l-3.4-1.5c-0.5-0.2-0.9,0.4-0.5,0.8c4.1,3.7,8,7.7,13.7,10.6
		c0.2,0.1,0.3,0.4,0,0.5c-3.5,1.5-7.1,2.7-10.7,4l-5.3,2c-1.8,0.7-3.6,1.3-5.4,1.8c-0.2,0.1-0.4-0.1-0.3-0.4
		c0.6-1.5,1.1-2.9,1.5-4.3c0.4-1.4,0.7-2.9,0.9-4.3c0.5-2.8,0.8-5.6,1.1-8.3c0.1-0.5-0.7-0.8-0.9-0.2l-1.6,3.3
		c-0.6,1.2-1.3,2.3-2.1,3.3c-0.8,1-1.7,1.9-2.7,2.6c-1.9,1.6-4.2,2.8-6.6,3.5c-2.4,0.7-4.9,1.1-7.4,0.9c-2.5-0.3-5-1.1-7.3-2.4
		C808.9,1068.6,806.4,1056.9,811.2,1048.1"/>
	<path class="st6" d="M741.4,1099.8c2.8-3.2,5.5-6.5,8.2-9.7c2.7-3.3,5.2-6.4,7.7-9.8c5-6.7,9.7-13.3,14.1-20.1c0.1-0.1,0-0.2,0-0.3
		c-6.1-5.4-11.9-11-17.4-16.6c-2.7-2.7-5.4-5.8-8.1-8.6c-2.6-2.9-5.2-5.8-7.6-8.8c-0.1-0.1-0.2-0.1-0.3,0c-2.2,3.3-4.5,6.2-6.9,9.4
		c-2.4,3.1-4.8,6.2-7.3,9.3c-2.5,3.1-5.1,6.1-7.8,9c-2.7,3-5.4,5.9-8.2,8.9c-0.1,0.1-0.1,0.2,0,0.3c2.5,3.2,5,6.3,7.7,9.5
		c2.6,3.2,5.3,6.4,8.1,9.4c2.8,3,5.6,6.1,8.5,9.1c2.9,3,5.9,6.1,8.9,9C741.1,1099.9,741.2,1099.9,741.4,1099.8"/>
	<path class="st6" d="M904.1,1012c2.8,0.7,5.7,1.4,8.6,2.1c6.8,1.6,13.6,2.7,20.6,3.9c7.1,1.2,14.1,2,21.3,2.7
		c0.2,0,0.3-0.1,0.4-0.3c0.6-3.6,1.1-7.1,1.6-10.6c0.4-3.6,0.8-7.1,1.1-10.7c0.3-3.5,0.6-7,0.9-10.5c0.1-1.7,0.2-3.4,0.3-5.2
		l0.2-5.3c0.1-3,0.1-5.9,0.1-8.9c0-5.7-2.4-10.9-6.2-14.7c-1.9-1.9-4.2-3.6-6.6-4.7c-2.4-1.2-5.1-1.9-7.8-2.2
		c-10.9-0.9-19.3,6.2-19.7,17.3c-0.1,2.7-0.3,5.4-0.5,8.1c0,0.2-0.1,0.2-0.3,0.2c-2.7-0.5-5.4-1-8-1.6c-1.3-0.3-2.6-0.4-3.9-0.4
		c-1.3,0-2.6,0-3.8,0.2c-2.4,0.4-4.6,1.3-6.5,2.6c-1.9,1.3-3.5,3.1-4.8,5.2c-1.3,2-2.2,4.4-2.7,7.1c-0.5,2.7-0.4,5.4,0.1,8.1
		C890.1,1002.8,895.8,1009.9,904.1,1012"/>
	<path class="st6" d="M601.5,1050.5c1.7-4.2,4.9-7.4,8.6-9.3c3.8-1.9,8.1-2.5,12.2-1.2c2,0.6,3.7,1.7,5.3,2.8
		c0.2,0.1,0.5-0.1,0.3-0.3c-2.5-3.9-3.1-9.1-1.6-14.1c1.4-4.5,4.3-8,7.7-10.1c3.5-2.3,7.5-3.2,11.4-2.1c3.9,1.1,7.1,3.7,9,7.3
		c1.9,3.6,2.7,8.2,1.7,12.8c-1.1,5.1-4.3,9.2-8.5,11.5c-0.2,0.1-0.1,0.5,0.1,0.4c2-0.3,4-0.2,6,0.3c4.1,1.2,7.6,3.6,9.9,7.1
		c2.3,3.5,3.4,7.9,2.7,12.4c-0.7,4.7-3.3,8.6-7,11.1c-3.7,2.5-8.5,3.7-13.2,2.5c-5.4-1.3-9.7-4.8-11.8-9.4c-0.2-0.4-0.8-0.3-0.9,0.1
		c-0.2,4.4,0.5,8.8,2.2,12.9c0.4,1,0.8,1.9,1.3,2.9c0.1,0.2,0,0.4-0.3,0.4l-5.1-1.2c-1.7-0.4-3.4-0.9-5-1.4l-10.1-2.9
		c-0.2-0.1-0.2-0.3,0-0.5c0.9-0.6,1.8-1.2,2.6-1.8c3.6-2.8,6.4-6.2,8.5-10.1c0.2-0.4-0.3-0.8-0.7-0.6c-4.1,2.8-9.7,4-14.9,2.2
		c-4.7-1.6-8.3-4.8-10.2-8.8C600,1059.6,599.8,1054.9,601.5,1050.5"/>
	<path class="st6" d="M444,906.1c2.5,0.5,5.1,0.9,7.6,1.3c6,0.9,11.9,1.7,17.6,2.4c5.8,0.6,11.8,1,17.5,1.3c0.2,0,0.3,0.1,0.2,0.3
		c-0.6,2.8-1.2,5.8-1.6,8.6c-0.4,2.8-0.9,5.7-1.3,8.6c-0.4,2.9-0.8,5.8-1.1,8.8c-0.4,3-0.7,6-0.9,8.9l-0.5,7.7
		c-0.6,10.1-8.8,18.6-19.3,18.2c-10.6-0.3-18.8-10.1-18-20.4l0.4-3.7c0.1-0.6-0.7-0.8-0.9-0.3c-1.2,2.5-2.4,5-3.4,7.7
		c-1,2.6-1.9,5.4-2.4,8.6c0,0.3-0.3,0.4-0.5,0.2c-1.2-1.5-2.5-2.9-3.7-4.4l-3.5-4.5l-6.9-9c-0.2-0.2,0-0.4,0.3-0.4
		c6.5,0.5,11.8-0.8,17.2-1.8c0.5-0.1,0.5-0.9,0-0.9l-3.7-0.5c-2.6-0.4-5-1.3-7.2-2.6c-2.1-1.4-3.9-3.2-5.3-5.2
		c-1.4-2.1-2.5-4.4-3-6.8c-0.6-2.4-0.7-5-0.1-7.6C423.9,910.1,434.2,904.2,444,906.1"/>
	<path class="st6" d="M373.2,855.7c3.9,1.7,7.7,3.3,11.6,4.8c4,1.5,7.9,2.9,11.8,4.3c3.9,1.4,7.8,2.6,11.7,3.9
		c4,1.2,7.9,2.3,11.8,3.3c0.1,0,0.2,0,0.3-0.1c1.6-3.7,3.2-7.4,4.9-10.9c1.8-3.6,3.6-7.2,5.4-10.7c1.8-3.5,3.7-6.9,5.6-10.3
		c1.9-3.4,4-6.8,6.1-10c0.1-0.1,0-0.3-0.1-0.3c-3.7-1.1-7.4-2.3-11.1-3.6c-3.8-1.3-7.3-2.7-11-4.1c-7.3-2.9-14.9-6-22-9.6
		c-0.1-0.1-0.2,0-0.3,0.1c-4.7,6.7-8.8,13.6-13,20.8c-2.1,3.6-4.2,7.3-6.1,11c-1.9,3.7-3.8,7.4-5.7,11.3
		C373,855.4,373.1,855.6,373.2,855.7"/>
	<path class="st6" d="M506.9,983.4c0.2,2.9,0.4,5.9,0.7,8.8c0.7,6.8,1.6,13.8,2.6,20.9c1.2,6.9,2.5,13.9,4,21.1
		c0,0.2,0.2,0.3,0.4,0.3c14.4-2.4,28.1-5.3,41.5-9.3c2.8-0.8,5.6-1.7,8.4-2.5c5.5-1.8,9.7-5.8,12.2-10.6c1.2-2.4,2.1-5.1,2.4-7.8
		c0.3-2.7,0.2-5.4-0.4-8c-1.2-5.4-4.2-9.5-8.2-11.8c-4-2.3-8.9-3.2-14.3-1.6c-2.6,0.7-5.3,1.5-7.9,2.1c-0.2,0-0.3-0.1-0.3-0.2
		c-0.3-2.7-0.7-5.5-0.9-8.2c-0.3-2.7-1.1-5.2-2.3-7.3c-1.2-2.1-2.7-4-4.5-5.4c-3.6-2.9-8.7-4-14-3.3c-2.7,0.4-5.3,1.3-7.6,2.6
		C511.4,967.1,506.4,974.7,506.9,983.4"/>
	<path class="st6" d="M376.9,707.4c4.6,0.3,8.6,2.3,11.5,5.3c2.9,3,4.6,6.9,4.8,11.2c0.1,2.1-0.3,4.1-1,5.9
		c-0.1,0.2,0.2,0.4,0.4,0.2c3-3.6,7.6-5.8,12.8-5.8c4.7,0,9,1.6,12.1,4.2c3.2,2.6,5,6.2,5.4,10.2c0.3,4.1-1.4,7.9-4.3,10.9
		c-2.8,3-6.9,5.1-11.6,5.5c-5.2,0.5-10.2-1.2-13.6-4.5c-0.2-0.2-0.5,0-0.4,0.2c0.8,1.8,1.5,3.7,1.6,5.8c0.4,4.3-1.1,8.4-3.8,11.6
		c-2.6,3.2-6.4,5.6-10.9,6.4c-4.7,0.8-9.3-0.5-12.8-3.2c-3.4-2.7-5.8-7-6.4-11.9c-0.7-5.6,1.7-10.7,5.3-14.1c0.3-0.3,0-0.9-0.4-0.8
		c-4.2,1.1-8.2,3.2-11.7,6.1c-0.8,0.7-1.6,1.4-2.4,2.2c-0.2,0.2-0.4,0.1-0.4-0.1l-0.6-10.4l-0.3-5.2l-0.1-5.2c0-0.2,0.2-0.3,0.4-0.2
		c0.8,0.7,1.7,1.3,2.5,1.9c3.7,2.6,7.8,4.2,12.1,5c0.5,0.1,0.7-0.5,0.3-0.8c-4-3-6.5-8-6.6-13.6c-0.1-4.9,2.1-9.4,5.3-12.4
		C367.8,708.8,372.1,707.1,376.9,707.4"/>
	<path class="st6" d="M465.4,512.9l1.1,7.7c0.5,3,0.9,5.9,1.4,8.8c0.3,1.5,0.5,2.9,0.8,4.3l0.9,4.4c1.3,5.8,2.6,11.5,4.1,17
		c0,0.2-0.1,0.3-0.2,0.3c-11.3,1.5-23.1,3.4-34.7,6.3l-7.5,1.9c-2.5,0.6-5,0.8-7.3,0.5c-2.4-0.3-4.7-1-6.8-2.1
		c-2.1-1.1-4-2.6-5.6-4.5c-1.6-1.9-2.8-4.1-3.5-6.6c-1.4-5-0.5-10.3,2-14.6c2.5-4.3,6.9-7.5,11.9-8.7l3.6-0.8c0.5-0.1,0.5-0.9,0-1
		c-5.5-0.6-10.8-1.5-17.2-0.5c-0.3,0.1-0.4-0.2-0.3-0.4l6.1-9.6l6.6-9.3c0.2-0.2,0.4-0.1,0.5,0.1c1.5,6.3,4.4,10.9,7,15.8
		c0.3,0.5,1,0.2,0.9-0.3l-0.6-3.6c-0.8-5.1,0.5-10.4,3.6-14.4c3.1-3.9,7.6-6.8,12.8-7.4c2.6-0.3,5.1-0.1,7.4,0.7
		c2.3,0.8,4.5,2,6.3,3.5c1.8,1.6,3.4,3.4,4.5,5.6C464.3,508,465.1,510.3,465.4,512.9"/>
	<path class="st6" d="M491.7,430l-0.6,6.3l-0.4,6.4c-0.2,4.2-0.4,8.4-0.5,12.5c-0.3,8.2,0,16.5,0.4,24.6c0,0.1,0.1,0.2,0.2,0.2
		c8.1,0.8,15.9,1.7,23.8,3.2c3.9,0.7,7.8,1.4,11.6,2.2l5.7,1.2l5.7,1.4c0.1,0,0.3-0.1,0.2-0.2c0-3.8,0-7.7,0.1-11.7
		c0.1-3.9,0.2-7.9,0.5-11.8c0.6-7.8,1.3-15.8,2.3-23.9c0-0.1-0.1-0.2-0.2-0.3c-7.8-2.2-15.6-4.1-23.8-6c-4.1-0.9-8.1-1.7-12.2-2.4
		c-4.1-0.7-8.3-1.4-12.5-2C491.8,429.8,491.7,429.9,491.7,430"/>
	<path class="st6" d="M411.5,596.7c-2.7,1.1-5.4,2.2-8.1,3.4c-3.2,1.4-6.4,2.8-9.6,4.3c-3.1,1.5-6.3,3.1-9.4,4.7
		c-3.2,1.6-6.3,3.3-9.5,5c-3.2,1.7-6.2,3.5-9.3,5.4c-0.1,0.1-0.2,0.3-0.1,0.4c6.5,12.9,13.9,25.1,21.6,36.5c1.7,2.5,3.4,4.9,5.1,7.2
		c3.3,4.7,8.3,7.4,13.7,8.3c2.7,0.4,5.5,0.4,8.2-0.1c2.7-0.5,5.2-1.4,7.6-2.8c4.7-2.8,7.5-7,8.7-11.5c1.1-4.5,0-9.6-2.9-14.1
		c-1.5-2.3-2.9-4.6-4.4-6.9c-0.1-0.1,0-0.3,0.1-0.4c2.5-1.2,4.9-2.3,7.4-3.5c5.1-2.2,8.6-5.9,10-10.4c1.5-4.4,1.4-9.4-1.1-14.3
		c-1.2-2.4-3-4.6-4.9-6.5c-2.9-2.8-6.6-4.8-10.6-5.7c-2-0.5-4.1-0.6-6.1-0.5C415.5,595.4,413.5,595.9,411.5,596.7"/>
	<path class="st6" d="M633.8,387.6c1.1,4.4,0.4,8.9-1.5,12.5c-1.9,3.8-5.1,6.8-9.1,8.1c-2,0.7-4,0.8-6,0.8c-0.2,0-0.3,0.4-0.1,0.4
		c4.3,1.7,7.9,5.6,9.5,10.4c1.5,4.4,1.2,9-0.3,12.7c-1.5,3.9-4.2,7-7.9,8.4c-1.9,0.8-3.9,0.9-5.9,0.9c-1.9-0.1-3.9-0.6-5.8-1.5
		c-3.7-1.8-7-5-8.9-9.4c-2.1-4.8-2-10,0.1-14.3c0.1-0.2-0.2-0.5-0.4-0.3c-1.4,1.4-3.1,2.5-5,3.3c-2,0.8-4.1,1.1-6.2,1.1
		c-2.1,0-4.1-0.3-6.1-1.1c-3.9-1.5-7.4-4.4-9.5-8.4c-2.2-4.2-2.4-8.9-0.9-13.1c0.8-2.1,1.9-4.1,3.5-5.8c1.6-1.7,3.5-3,5.8-4
		c5.2-2.2,10.7-1.9,15.1,0.6c0.4,0.2,0.9-0.2,0.6-0.6c-2.4-3.7-5.6-6.8-9.4-9.1c-0.9-0.5-1.8-1.1-2.8-1.5c-0.2-0.1-0.2-0.4,0-0.5
		l4.8-2l4.9-1.8l9.8-3.6c0.2-0.1,0.4,0.1,0.3,0.4c-0.4,1-0.8,2.1-1,3.1c-1.3,4.4-1.5,8.8-0.9,13.1c0.1,0.5,0.7,0.5,0.9,0.1
		c1.7-4.7,5.5-9,10.8-10.5c4.7-1.5,9.5-0.9,13.4,1.1C629.6,379.3,632.6,383.1,633.8,387.6"/>
	<path class="st6" d="M846.1,411.9l-6.9,3.3c-5.4,2.7-10.6,5.6-15.7,8.5c-5.1,2.8-10.1,6-14.9,9.2c-0.1,0.1-0.3,0.1-0.4-0.1
		c-2.4-5.2-5-10.6-7.8-15.7c-2.8-5.1-5.7-10.4-8.9-15.5l-4.1-6.5c-5.5-8.4-3.8-20.2,4.9-26.1c2.2-1.5,4.6-2.4,7.1-2.9
		c2.5-0.4,5-0.3,7.4,0.3c2.4,0.6,4.8,1.6,6.8,3c1,0.7,2,1.5,2.9,2.4c0.9,0.9,1.6,2,2.3,3.1l1.9,3.2c0.3,0.5,1,0.2,0.9-0.3
		c-0.6-2.7-1-5.4-1.7-8.2c-0.7-2.8-1.6-5.6-3.1-8.4c-0.1-0.2,0-0.5,0.3-0.4c1.9,0.4,3.7,0.9,5.5,1.4l5.5,1.6l5.5,1.6
		c1.8,0.5,3.6,1,5.4,1.7c0.2,0.1,0.3,0.4,0,0.5c-2.7,1.6-5,3.5-7.1,5.5c-2.1,2-3.9,4-5.8,6.1c-0.4,0.4,0.1,1,0.6,0.7l3.3-1.7
		c1.2-0.6,2.4-1.1,3.6-1.5c1.2-0.3,2.5-0.5,3.7-0.6c2.5-0.1,5,0.2,7.4,1c2.4,0.8,4.6,2,6.5,3.7c1.9,1.7,3.4,3.8,4.5,6.2
		C860,396.8,855.2,407.6,846.1,411.9"/>
	<path class="st6" d="M933,411.1c-8.3,2-16.4,4-24.3,6.4c-8,2.5-15.7,5.1-23.2,8c-0.1,0-0.2,0.2-0.2,0.3c1.7,7.9,3.1,15.9,4.4,23.6
		c1.1,7.8,1.9,15.7,2.5,23.3c0,0.1,0.1,0.2,0.3,0.2c7.3-2.5,14.7-4.6,22.4-6.7c3.9-1.1,7.7-1.9,11.6-2.8c3.9-0.8,7.8-1.6,11.8-2.4
		c0.1,0,0.2-0.1,0.2-0.3c-0.1-4-0.4-8.1-0.6-12.2c-0.3-4.1-0.6-8.3-1-12.4c-0.9-8.1-2-16.6-3.5-24.9
		C933.3,411.1,933.2,411.1,933,411.1"/>
	<path class="st6" d="M749.7,386.4c-1.9-2.3-3.8-4.6-5.7-6.7c-4.6-5.1-9.4-10.3-14.4-15.4c-5-4.9-10.2-9.8-15.6-14.7
		c-0.1-0.1-0.3-0.1-0.4,0c-5.1,5.1-10,10.4-14.7,15.7c-1.2,1.3-2.3,2.6-3.5,3.9l-3.4,4.1c-2.2,2.7-4.4,5.4-6.5,8.2
		c-1.8,2.3-3.6,4.6-5.3,7c-3.4,4.7-4.5,10.3-3.6,15.7c0.4,2.7,1.3,5.3,2.6,7.7c1.3,2.4,3,4.5,5,6.2c4.1,3.6,9,5.3,13.6,4.7
		c2.3-0.3,4.6-0.9,6.7-2.1c2.1-1.1,4.1-2.8,5.8-5c1.7-2.1,3.4-4.4,5.2-6.4c0.1-0.1,0.3-0.1,0.4,0c1.9,2,3.7,4.1,5.6,6.1
		c3.7,4.1,8.3,6,12.9,6.3c2.3,0.1,4.7-0.3,6.9-1.3c1.1-0.5,2.2-1.1,3.3-1.8c1.1-0.7,2.1-1.5,3.1-2.5c1.9-1.9,3.5-4.1,4.6-6.6
		C755.7,402.3,755.3,393.1,749.7,386.4"/>
	<path class="st6" d="M1017.2,533.2c-3.9,2.4-8.4,3.2-12.5,2.5c-4.1-0.7-7.9-2.8-10.4-6.3c-1.2-1.7-2.2-3.5-2.7-5.4
		c-0.1-0.2-0.4-0.2-0.4,0.1c-0.3,4.6-2.7,9.1-6.9,12.2c-1.9,1.4-3.9,2.4-6,3c-2.1,0.6-4.2,0.9-6.3,0.7c-4.1-0.2-7.9-1.9-10.4-5.1
		c-1.2-1.6-2.2-3.3-2.7-5.2c-0.5-1.9-0.6-3.9-0.3-6c0.6-4.1,2.7-8.2,6.2-11.4c3.9-3.5,8.9-4.9,13.6-4.2c0.2,0,0.4-0.3,0.2-0.4
		c-1.8-0.9-3.3-2.2-4.6-3.8c-1.3-1.7-2.4-3.5-3-5.4c-0.6-1.9-0.9-4-0.8-6.1c0.2-4.2,1.9-8.4,5.2-11.6c3.4-3.4,7.8-5,12.2-4.8
		c2.2,0.1,4.4,0.6,6.6,1.6s4.1,2.3,5.6,4.2c3.6,4.2,5,9.7,4,14.6c-0.1,0.4,0.5,0.7,0.8,0.4c2.7-3.4,4.7-7.3,5.8-11.7
		c0.2-1,0.5-2,0.6-3.1c0-0.2,0.3-0.4,0.4-0.2l3.4,4c1.1,1.3,2.3,2.7,3.3,4.1l6.4,8.3c0.1,0.2,0,0.4-0.2,0.4
		c-1.1-0.1-2.2-0.1-3.2-0.1c-4.5,0.1-8.8,1.2-12.7,3.1c-0.4,0.2-0.3,0.8,0.2,0.9c5,0.1,10.1,2.5,13.4,7c2.8,4.1,3.8,8.8,3,13.2
		C1023.8,526.8,1021.2,530.7,1017.2,533.2"/>
	<path class="st7" d="M632.2,866.1c-7.5,0-14.5-1.6-20.8-4.7c-6.4-3.1-9.5-7.8-9.5-14v-198l-11.3,7c-1.8,1-3.6,1.8-5.2,2.3
		c-1.7,0.5-3.2,0.8-4.5,0.8c-5.7,0-10.3-2.5-13.8-7.6c-3.5-5.1-5.2-10.6-5.2-16.5c0-4.1,0.9-8,2.7-11.7c1.8-3.6,4.7-6.6,8.6-8.9
		l51.3-31.1c1.6-1,3.3-1.8,5.2-2.1c1.9-0.4,4-0.6,6-0.6c6.2,0,12.2,1.7,18.1,5.1c5.8,3.4,8.8,8,8.8,14v247.4c0,6.2-3.2,10.9-9.5,14
		C646.7,864.5,639.7,866.1,632.2,866.1"/>
	<path class="st7" d="M793.3,745.1c-6.2,0-11.1-1.9-14.6-5.6c-3.5-3.8-5.3-8.6-5.3-14.6c0-5.7,1.8-10.3,5.3-13.8s8.4-5.2,14.6-5.2
		c6,0,10.7,1.8,14.2,5.2s5.2,8.1,5.2,13.8c0,6-1.8,10.8-5.2,14.6C803.9,743.2,799.2,745.1,793.3,745.1z M792.9,815.5
		c10.9,0,19.4-3.1,25.7-9.3c6.2-6.2,9.3-16.1,9.3-29.6V673.6c0-13.5-3.1-23.3-9.3-29.6c-6.2-6.2-14.8-9.3-25.7-9.3
		s-19.4,3.1-25.5,9.3c-6.1,6.2-9.1,16.1-9.1,29.6v103.1c0,13.5,3,23.3,9.1,29.6C773.5,812.4,782,815.5,792.9,815.5z M792.9,868.4
		c-17.9,0-34-3-48.4-9c-14.4-6-25.8-15.7-34.2-29.2c-8.4-13.5-12.6-31.4-12.6-53.7V673.6c0-22.3,4.2-40.2,12.6-53.7
		c8.4-13.5,19.8-23.2,34.2-29.2c14.4-6,30.5-8.9,48.4-8.9c17.9,0,34.1,3,48.6,8.9c14.5,6,26,15.7,34.4,29.2
		c8.4,13.5,12.6,31.4,12.6,53.7v103.1c0,22.3-4.2,40.2-12.6,53.7c-8.4,13.5-19.9,23.2-34.4,29.2C827,865.4,810.8,868.4,792.9,868.4"
		/>
</g>
</svg>
