<?xml version="1.0" encoding="utf-8"?>
<!-- Generator: Adobe Illustrator 27.3.1, SVG Export Plug-In . SVG Version: 6.00 Build 0)  -->
<svg version="1.1" id="Calque_1" xmlns="http://www.w3.org/2000/svg" xmlns:xlink="http://www.w3.org/1999/xlink" x="0px" y="0px"
	 viewBox="0 0 1450 1450" style="enable-background:new 0 0 1450 1450;" xml:space="preserve">
<style type="text/css">
	.st0{clip-path:url(#SVGID_00000131361817678115391300000009697019840392091039_);}
	.st1{clip-path:url(#SVGID_00000059988820539901183440000004239199404271577260_);}
	.st2{clip-path:url(#SVGID_00000136394375233957710910000008445062237340630715_);}
	.st3{fill:url(#SVGID_00000168103944141451806890000015227517118727676805_);}
	.st4{fill:#FFFFFF;}
	.st5{fill:none;stroke:#548800;stroke-width:15.8759;stroke-miterlimit:1;}
	.st6{fill:#548800;}
	.st7{fill:#3C3C3B;}
</style>
<g>
	<g>
		<defs>
			<rect id="SVGID_1_" x="28.5" y="28.5" width="1393" height="1393"/>
		</defs>
		<clipPath id="SVGID_00000073714579461151704710000010187219148993205651_">
			<use xlink:href="#SVGID_1_"  style="overflow:visible;"/>
		</clipPath>
		<g style="clip-path:url(#SVGID_00000073714579461151704710000010187219148993205651_);">
			<g>
				<defs>
					<path id="SVGID_00000157298540145576380750000006241930383796148377_" d="M1242.6,1190.7c-39.3,43.7-84.8,83-136.3,116.7
						c-30.3,19.9-61.6,37-93.6,51.6c-184.6,84-392.4,81-570.2,2.1c-86.1-38.2-165.2-94.1-231.2-166.6
						c-24.7-27.1-47.5-56.5-68.2-88.1C51.7,966.9,17,806.7,33.2,652.9c10-95,39.4-187.5,86.9-271.3c52.8-93.2,128.1-175.6,224-238.4
						C418.3,94.6,498.3,62,580.1,44.6c94.7-20.2,191.8-20,285-0.9c175.2,35.9,336.5,139,442.2,300.4c7.1,10.9,13.9,21.8,20.3,32.9
						c49.5,85.5,78.8,177.7,89.2,270.7C1438.5,842.9,1376.7,1041.8,1242.6,1190.7z"/>
				</defs>
				<clipPath id="SVGID_00000063629926267870563510000015680303162080590749_">
					<use xlink:href="#SVGID_00000157298540145576380750000006241930383796148377_"  style="overflow:visible;"/>
				</clipPath>
				<g style="clip-path:url(#SVGID_00000063629926267870563510000015680303162080590749_);">
					<g>
						<defs>
							<path id="SVGID_00000132808458095292620930000009155934515696378805_" d="M1242.6,1190.7c-39.3,43.7-84.8,83-136.3,116.7
								c-30.3,19.9-61.6,37-93.6,51.6c-184.6,84-392.4,81-570.2,2.1c-86.1-38.2-165.2-94.1-231.2-166.6
								c-24.7-27.1-47.5-56.5-68.2-88.1C51.7,966.9,17,806.7,33.2,652.9c10-95,39.4-187.5,86.9-271.3
								c52.8-93.2,128.1-175.6,224-238.4C418.3,94.6,498.3,62,580.1,44.6c94.7-20.2,191.8-20,285-0.9
								c175.2,35.9,336.5,139,442.2,300.4c7.1,10.9,13.9,21.8,20.3,32.9c49.5,85.5,78.8,177.7,89.2,270.7
								C1438.5,842.9,1376.7,1041.8,1242.6,1190.7"/>
						</defs>
						<clipPath id="SVGID_00000155125275807829335430000015247116969179826096_">
							<use xlink:href="#SVGID_00000132808458095292620930000009155934515696378805_"  style="overflow:visible;"/>
						</clipPath>
						<g style="clip-path:url(#SVGID_00000155125275807829335430000015247116969179826096_);">
							
								<radialGradient id="SVGID_00000178927481479312826770000001421602771741431993_" cx="-180.5" cy="3385.5" r="695.85" gradientTransform="matrix(1 0 0 -1 905.685 4110.7998)" gradientUnits="userSpaceOnUse">
								<stop  offset="0" style="stop-color:#BAEC00"/>
								<stop  offset="7.812500e-03" style="stop-color:#B9EB00"/>
								<stop  offset="1.171880e-02" style="stop-color:#B9EB00"/>
								<stop  offset="1.562500e-02" style="stop-color:#B8EA00"/>
								<stop  offset="1.953120e-02" style="stop-color:#B8EA00"/>
								<stop  offset="2.343750e-02" style="stop-color:#B7E900"/>
								<stop  offset="2.734380e-02" style="stop-color:#B7E900"/>
								<stop  offset="3.125000e-02" style="stop-color:#B7E900"/>
								<stop  offset="3.515620e-02" style="stop-color:#B6E800"/>
								<stop  offset="3.906250e-02" style="stop-color:#B6E800"/>
								<stop  offset="4.296880e-02" style="stop-color:#B5E800"/>
								<stop  offset="4.687500e-02" style="stop-color:#B5E700"/>
								<stop  offset="5.078120e-02" style="stop-color:#B5E700"/>
								<stop  offset="5.468750e-02" style="stop-color:#B4E600"/>
								<stop  offset="5.859380e-02" style="stop-color:#B4E600"/>
								<stop  offset="6.250000e-02" style="stop-color:#B3E600"/>
								<stop  offset="6.640620e-02" style="stop-color:#B3E500"/>
								<stop  offset="7.031250e-02" style="stop-color:#B3E500"/>
								<stop  offset="7.421880e-02" style="stop-color:#B2E400"/>
								<stop  offset="7.812500e-02" style="stop-color:#B2E400"/>
								<stop  offset="8.203121e-02" style="stop-color:#B1E400"/>
								<stop  offset="8.593750e-02" style="stop-color:#B1E300"/>
								<stop  offset="8.984379e-02" style="stop-color:#B1E300"/>
								<stop  offset="9.375000e-02" style="stop-color:#B0E200"/>
								<stop  offset="9.765621e-02" style="stop-color:#B0E200"/>
								<stop  offset="0.1016" style="stop-color:#AFE200"/>
								<stop  offset="0.1055" style="stop-color:#AFE100"/>
								<stop  offset="0.1094" style="stop-color:#AFE100"/>
								<stop  offset="0.1133" style="stop-color:#AEE000"/>
								<stop  offset="0.1172" style="stop-color:#AEE000"/>
								<stop  offset="0.1211" style="stop-color:#ADE000"/>
								<stop  offset="0.125" style="stop-color:#ADDF00"/>
								<stop  offset="0.1289" style="stop-color:#ADDF00"/>
								<stop  offset="0.1328" style="stop-color:#ACDF00"/>
								<stop  offset="0.1367" style="stop-color:#ACDE00"/>
								<stop  offset="0.1406" style="stop-color:#ABDE00"/>
								<stop  offset="0.1445" style="stop-color:#ABDD00"/>
								<stop  offset="0.1484" style="stop-color:#ABDD00"/>
								<stop  offset="0.1523" style="stop-color:#AADD00"/>
								<stop  offset="0.1562" style="stop-color:#AADC00"/>
								<stop  offset="0.1602" style="stop-color:#A9DC00"/>
								<stop  offset="0.1641" style="stop-color:#A9DB00"/>
								<stop  offset="0.168" style="stop-color:#A9DB00"/>
								<stop  offset="0.1719" style="stop-color:#A8DB00"/>
								<stop  offset="0.1758" style="stop-color:#A8DA00"/>
								<stop  offset="0.1797" style="stop-color:#A7DA00"/>
								<stop  offset="0.1836" style="stop-color:#A7D900"/>
								<stop  offset="0.1875" style="stop-color:#A7D900"/>
								<stop  offset="0.1914" style="stop-color:#A6D900"/>
								<stop  offset="0.1953" style="stop-color:#A6D800"/>
								<stop  offset="0.1992" style="stop-color:#A5D800"/>
								<stop  offset="0.2031" style="stop-color:#A5D700"/>
								<stop  offset="0.207" style="stop-color:#A5D700"/>
								<stop  offset="0.2109" style="stop-color:#A4D700"/>
								<stop  offset="0.2148" style="stop-color:#A4D600"/>
								<stop  offset="0.2188" style="stop-color:#A3D600"/>
								<stop  offset="0.2227" style="stop-color:#A3D600"/>
								<stop  offset="0.2266" style="stop-color:#A3D500"/>
								<stop  offset="0.2305" style="stop-color:#A2D500"/>
								<stop  offset="0.2344" style="stop-color:#A2D400"/>
								<stop  offset="0.2383" style="stop-color:#A1D400"/>
								<stop  offset="0.2422" style="stop-color:#A1D400"/>
								<stop  offset="0.2461" style="stop-color:#A1D300"/>
								<stop  offset="0.25" style="stop-color:#A0D300"/>
								<stop  offset="0.2539" style="stop-color:#A0D200"/>
								<stop  offset="0.2617" style="stop-color:#9FD100"/>
								<stop  offset="0.2695" style="stop-color:#9ED100"/>
								<stop  offset="0.2773" style="stop-color:#9DD000"/>
								<stop  offset="0.2852" style="stop-color:#9DCF00"/>
								<stop  offset="0.293" style="stop-color:#9CCE00"/>
								<stop  offset="0.3008" style="stop-color:#9BCE00"/>
								<stop  offset="0.3086" style="stop-color:#9ACD00"/>
								<stop  offset="0.3164" style="stop-color:#99CC00"/>
								<stop  offset="0.3242" style="stop-color:#99CB00"/>
								<stop  offset="0.332" style="stop-color:#98CA00"/>
								<stop  offset="0.3398" style="stop-color:#97CA00"/>
								<stop  offset="0.3477" style="stop-color:#96C900"/>
								<stop  offset="0.3555" style="stop-color:#95C800"/>
								<stop  offset="0.3633" style="stop-color:#95C700"/>
								<stop  offset="0.3711" style="stop-color:#94C600"/>
								<stop  offset="0.3789" style="stop-color:#93C600"/>
								<stop  offset="0.3867" style="stop-color:#92C500"/>
								<stop  offset="0.3945" style="stop-color:#91C400"/>
								<stop  offset="0.4023" style="stop-color:#91C300"/>
								<stop  offset="0.4102" style="stop-color:#90C300"/>
								<stop  offset="0.418" style="stop-color:#8FC200"/>
								<stop  offset="0.4258" style="stop-color:#8EC100"/>
								<stop  offset="0.4336" style="stop-color:#8DC000"/>
								<stop  offset="0.4414" style="stop-color:#8DBF00"/>
								<stop  offset="0.4492" style="stop-color:#8CBF00"/>
								<stop  offset="0.457" style="stop-color:#8BBE00"/>
								<stop  offset="0.4648" style="stop-color:#8ABD00"/>
								<stop  offset="0.4727" style="stop-color:#89BC00"/>
								<stop  offset="0.4805" style="stop-color:#89BC00"/>
								<stop  offset="0.4883" style="stop-color:#88BB00"/>
								<stop  offset="0.4961" style="stop-color:#87BA00"/>
								<stop  offset="0.5039" style="stop-color:#86B900"/>
								<stop  offset="0.5078" style="stop-color:#86B900"/>
								<stop  offset="0.5117" style="stop-color:#86B900"/>
								<stop  offset="0.5156" style="stop-color:#85B800"/>
								<stop  offset="0.5195" style="stop-color:#85B800"/>
								<stop  offset="0.5234" style="stop-color:#84B700"/>
								<stop  offset="0.5273" style="stop-color:#84B700"/>
								<stop  offset="0.5312" style="stop-color:#84B700"/>
								<stop  offset="0.5352" style="stop-color:#83B600"/>
								<stop  offset="0.5391" style="stop-color:#83B600"/>
								<stop  offset="0.543" style="stop-color:#82B600"/>
								<stop  offset="0.5469" style="stop-color:#82B500"/>
								<stop  offset="0.5508" style="stop-color:#82B500"/>
								<stop  offset="0.5547" style="stop-color:#81B400"/>
								<stop  offset="0.5586" style="stop-color:#81B400"/>
								<stop  offset="0.5625" style="stop-color:#80B400"/>
								<stop  offset="0.5664" style="stop-color:#80B300"/>
								<stop  offset="0.5703" style="stop-color:#80B300"/>
								<stop  offset="0.5742" style="stop-color:#7FB200"/>
								<stop  offset="0.5781" style="stop-color:#7FB200"/>
								<stop  offset="0.582" style="stop-color:#7EB200"/>
								<stop  offset="0.5859" style="stop-color:#7EB100"/>
								<stop  offset="0.5898" style="stop-color:#7EB100"/>
								<stop  offset="0.5938" style="stop-color:#7DB000"/>
								<stop  offset="0.5977" style="stop-color:#7DB000"/>
								<stop  offset="0.6016" style="stop-color:#7CB000"/>
								<stop  offset="0.6055" style="stop-color:#7CAF00"/>
								<stop  offset="0.6094" style="stop-color:#7CAF00"/>
								<stop  offset="0.6133" style="stop-color:#7BAE00"/>
								<stop  offset="0.6172" style="stop-color:#7BAE00"/>
								<stop  offset="0.6211" style="stop-color:#7AAE00"/>
								<stop  offset="0.625" style="stop-color:#7AAD00"/>
								<stop  offset="0.6289" style="stop-color:#79AD00"/>
								<stop  offset="0.6367" style="stop-color:#79AC00"/>
								<stop  offset="0.6445" style="stop-color:#78AB00"/>
								<stop  offset="0.6523" style="stop-color:#77AA00"/>
								<stop  offset="0.6602" style="stop-color:#76AA00"/>
								<stop  offset="0.668" style="stop-color:#75A900"/>
								<stop  offset="0.6758" style="stop-color:#75A800"/>
								<stop  offset="0.6836" style="stop-color:#74A700"/>
								<stop  offset="0.6914" style="stop-color:#73A600"/>
								<stop  offset="0.6992" style="stop-color:#72A600"/>
								<stop  offset="0.707" style="stop-color:#71A500"/>
								<stop  offset="0.7148" style="stop-color:#71A400"/>
								<stop  offset="0.7227" style="stop-color:#70A300"/>
								<stop  offset="0.7305" style="stop-color:#6FA300"/>
								<stop  offset="0.7383" style="stop-color:#6EA200"/>
								<stop  offset="0.7461" style="stop-color:#6DA100"/>
								<stop  offset="0.7539" style="stop-color:#6DA000"/>
								<stop  offset="0.7578" style="stop-color:#6DA000"/>
								<stop  offset="0.7617" style="stop-color:#6CA000"/>
								<stop  offset="0.7656" style="stop-color:#6C9F00"/>
								<stop  offset="0.7695" style="stop-color:#6B9F00"/>
								<stop  offset="0.7734" style="stop-color:#6B9E00"/>
								<stop  offset="0.7773" style="stop-color:#6B9E00"/>
								<stop  offset="0.7812" style="stop-color:#6A9E00"/>
								<stop  offset="0.7852" style="stop-color:#6A9D00"/>
								<stop  offset="0.7891" style="stop-color:#699D00"/>
								<stop  offset="0.793" style="stop-color:#699D00"/>
								<stop  offset="0.7969" style="stop-color:#699C00"/>
								<stop  offset="0.8008" style="stop-color:#689C00"/>
								<stop  offset="0.8047" style="stop-color:#689B00"/>
								<stop  offset="0.8086" style="stop-color:#679B00"/>
								<stop  offset="0.8125" style="stop-color:#679B00"/>
								<stop  offset="0.8164" style="stop-color:#669A00"/>
								<stop  offset="0.8242" style="stop-color:#669900"/>
								<stop  offset="0.832" style="stop-color:#659800"/>
								<stop  offset="0.8398" style="stop-color:#649800"/>
								<stop  offset="0.8477" style="stop-color:#639700"/>
								<stop  offset="0.8555" style="stop-color:#629600"/>
								<stop  offset="0.8633" style="stop-color:#629500"/>
								<stop  offset="0.8711" style="stop-color:#619400"/>
								<stop  offset="0.8789" style="stop-color:#609400"/>
								<stop  offset="0.8828" style="stop-color:#609400"/>
								<stop  offset="0.8867" style="stop-color:#5F9300"/>
								<stop  offset="0.8906" style="stop-color:#5F9300"/>
								<stop  offset="0.8945" style="stop-color:#5F9200"/>
								<stop  offset="0.8984" style="stop-color:#5E9200"/>
								<stop  offset="0.9023" style="stop-color:#5E9200"/>
								<stop  offset="0.9062" style="stop-color:#5D9100"/>
								<stop  offset="0.9102" style="stop-color:#5D9100"/>
								<stop  offset="0.918" style="stop-color:#5C9000"/>
								<stop  offset="0.9258" style="stop-color:#5B8F00"/>
								<stop  offset="0.9336" style="stop-color:#5A8E00"/>
								<stop  offset="0.9414" style="stop-color:#5A8E00"/>
								<stop  offset="0.9453" style="stop-color:#598D00"/>
								<stop  offset="0.9492" style="stop-color:#598D00"/>
								<stop  offset="0.9531" style="stop-color:#598C00"/>
								<stop  offset="0.957" style="stop-color:#588C00"/>
								<stop  offset="0.9648" style="stop-color:#578B00"/>
								<stop  offset="0.9727" style="stop-color:#578B00"/>
								<stop  offset="0.9766" style="stop-color:#568A00"/>
								<stop  offset="0.9805" style="stop-color:#568A00"/>
								<stop  offset="0.9883" style="stop-color:#558900"/>
								<stop  offset="0.9922" style="stop-color:#548800"/>
								<stop  offset="1" style="stop-color:#548800"/>
							</radialGradient>
							<path style="fill:url(#SVGID_00000178927481479312826770000001421602771741431993_);" d="M17,24.4V1443h1421.5V24.4H17z"/>
						</g>
					</g>
				</g>
			</g>
		</g>
	</g>
	<path class="st4" d="M864.9,1407.3c-90.8,18.6-185.2,18.8-278.7-0.2c0.4-1,0.7-1.9,1.1-2.9c10.8-29.2,23.8-58.6,37.3-89.9
		c2.1-4.8,5.3-8.8,9-11.5c3.8-2.9,8.1-4.5,12.7-4.7c3.3-0.1,6.7-0.3,10-0.4l10-0.3c6.7-0.3,13.2-0.3,19.8-0.6
		c13.2-0.2,26.3-0.5,39.4-0.4c3.3-0.1,6.6-0.1,9.8,0l4.9,0.1h4.9c6.6,0.1,13.1,0.2,19.7,0.3l4.9,0.1l5,0.1c3.3,0.1,6.6,0.2,9.9,0.3
		c3.3,0.1,6.6,0.1,9.9,0.3c3.3,0.1,6.7,0.3,10,0.4c4.5,0.1,8.9,1.9,12.7,4.7c3.8,2.8,6.9,6.7,9,11.5c13.6,31.3,26.5,60.7,37.4,89.9
		C864.2,1405.2,864.6,1406.2,864.9,1407.3"/>
	<path class="st4" d="M265.8,1107.5c-20.3,27.3-39.4,53.3-59.2,77.2c-0.7,0.8-1.3,1.6-2,2.4c-22.3-25.2-42.8-52.1-61.6-80.7
		c-33.2-50.7-59.3-104.6-78.1-160.5c1.1-0.2,2.2-0.4,3.3-0.6c30.7-5.2,62.8-8.8,96.5-12.7c10.2-1.1,20.2,2.9,25,10.6
		c1.8,2.8,3.5,5.7,5.2,8.5c1.8,2.8,3.6,5.6,5.4,8.4c1.8,2.8,3.5,5.6,5.2,8.5l2.5,4.3l2.7,4.2c3.5,5.6,6.9,11.2,10.1,16.9
		c3.5,5.6,6.9,11.2,10.1,17c3.1,5.8,6.7,11.3,9.8,17.1c3.2,5.8,6.3,11.6,9.5,17.4c6.4,11.6,12.7,23.3,18.9,35.1
		C273.2,1088.6,272,1099.1,265.8,1107.5"/>
	<path class="st4" d="M268.5,370.5c-12.3,23.7-24.9,46.7-38,69.4c-1.7,2.8-3.3,5.7-4.9,8.5l-5,8.5c-3.2,5.7-6.8,11.3-10.1,17
		c-6.9,11.2-13.7,22.6-20.9,33.8c-2.4,3.9-6,6.8-10.4,8.7c-4.4,1.8-9.3,2.7-14.5,2.1c-16.9-1.9-33.4-3.8-49.5-5.8
		c-16-2-31.7-4.1-47-6.7c-1.1-0.2-2.1-0.4-3.2-0.5c29.7-89.8,76.9-171.6,139.1-241.5c0.7,0.8,1.4,1.7,2.1,2.5
		c19.8,23.9,39,50,59.2,77.3C271.5,352,272.8,362.6,268.5,370.5"/>
	<path class="st4" d="M864.1,43.5c-0.3,1-0.7,2-1.1,2.9c-5.4,14.6-11.4,29.3-17.6,44.2c-6.3,14.9-12.9,30-19.7,45.7
		c-4.2,9.6-12.7,15.8-21.7,16.2c-26.7,1-53,1.7-79.2,1.6c-13.1,0.1-26.2-0.2-39.4-0.4c-6.6-0.2-13.2-0.2-19.8-0.6l-9.9-0.3
		c-3.3-0.1-6.7-0.3-10-0.4c-4.5-0.1-8.9-1.9-12.7-4.7c-3.7-2.8-6.9-6.7-9-11.5c-13.6-31.3-26.5-60.7-37.4-89.9
		c-0.4-1-0.8-2.1-1.1-3.1C676.2,24.7,770.7,24.5,864.1,43.5"/>
	<path class="st4" d="M1385.4,504.7c-1.1,0.2-2.1,0.4-3.2,0.6c-30.7,5.3-62.6,8.8-96.5,12.7c-5.2,0.6-10.2-0.2-14.5-2
		c-4.4-1.8-8-4.8-10.4-8.6c-1.7-2.8-3.6-5.6-5.4-8.4l-5.2-8.4c-3.6-5.6-6.9-11.3-10.4-16.9c-3.4-5.6-6.8-11.3-10.2-16.9l-2.5-4.3
		l-2.6-4.2c-1.7-2.9-3.3-5.7-4.9-8.6l-9.8-17.1l-4.8-8.6c-1.6-2.9-3.3-5.7-4.9-8.6c-3.3-5.7-6.4-11.6-9.4-17.5l-1.1-2.2l-1.2-2.2
		l-2.4-4.4c-1.6-2.9-3.2-5.9-4.7-8.8c-2.1-4-2.8-8.7-2.1-13.4c0.5-4.6,2.3-9.3,5.4-13.5c20.2-27.3,39.3-53.3,59.2-77.3
		c0.7-0.8,1.4-1.7,2.1-2.5c22.2,25.2,42.8,52.1,61.6,80.7C1340.5,394.8,1366.6,448.8,1385.4,504.7"/>
	<path class="st4" d="M1385.4,945.2c-29.7,89.8-76.9,171.6-139.1,241.5c-0.7-0.8-1.4-1.7-2.1-2.5c-19.9-24-38.8-49.9-59.2-77.3
		c-3.1-4.2-4.9-8.9-5.5-13.6c-0.5-4.7,0.1-9.3,2.2-13.3c12.5-23.6,24.9-46.7,38.1-69.3c1.7-2.8,3.2-5.7,4.9-8.5
		c1.6-2.9,3.4-5.6,5-8.5c3.2-5.7,6.8-11.3,10.1-16.9c6.9-11.2,13.7-22.6,21-33.8c4.7-7.7,14.6-11.9,24.9-10.8
		c16.9,1.9,33.4,3.7,49.5,5.8c16,2,31.7,4.1,47,6.7C1383.3,944.8,1384.3,945,1385.4,945.2"/>
	<path class="st4" d="M655.1,282.4c-6.6,0-12.3-4.8-13.3-11.5c-1.1-7.4,3.9-14.2,11.3-15.4c23.6-3.6,47.7-5.4,71.6-5.4
		c21.2,0,42.6,1.4,63.6,4.3c7.4,1,12.6,7.8,11.6,15.2c-1,7.4-7.8,12.6-15.2,11.6c-19.8-2.7-40-4-60-4c-22.6,0-45.3,1.7-67.6,5.1
		C656.5,282.4,655.8,282.4,655.1,282.4z M1024.1,387c-3.1,0-6.2-1.1-8.7-3.2c-32.5-27.6-68.8-50.5-107.9-67.8
		c-6.8-3-9.9-11-6.9-17.8c3-6.8,11-9.9,17.8-6.9c41.5,18.4,80,42.6,114.5,72c5.7,4.8,6.4,13.3,1.5,19
		C1031.8,385.4,1028,387,1024.1,387z M419.6,392.8c-3.7,0-7.5-1.5-10.1-4.6c-4.9-5.6-4.4-14.1,1.2-19.1c17-14.9,35.2-28.8,54.3-41.3
		c18.8-12.3,38.6-23.4,58.8-32.9c6.8-3.2,14.8-0.3,17.9,6.5c3.2,6.8,0.3,14.8-6.5,18c-19.1,8.9-37.7,19.4-55.5,31
		c-18,11.8-35.2,24.9-51.2,39C426,391.7,422.8,392.8,419.6,392.8z M1167.1,604.9c-5.8,0-11.1-3.8-12.9-9.6
		c-12.4-40.7-30.5-79.6-54.1-115.5l-0.3-0.5c-4.1-6.2-2.4-14.6,3.9-18.7c6.2-4.1,14.6-2.4,18.7,3.9l0.3,0.5
		c24.9,38.1,44.2,79.3,57.3,122.4c2.2,7.1-1.9,14.7-9,16.8C1169.7,604.8,1168.4,604.9,1167.1,604.9z M281.1,612.8
		c-1.2,0-2.5-0.2-3.7-0.5c-7.2-2-11.3-9.5-9.3-16.7c12.4-43.7,30.9-85.2,54.9-123.5c4-6.3,12.3-8.2,18.6-4.2
		c6.3,4,8.2,12.3,4.2,18.6c-22.7,36.1-40.1,75.3-51.8,116.5C292.4,609,287,612.8,281.1,612.8z M1169.2,865c-1.2,0-2.5-0.2-3.7-0.5
		c-7.2-2-11.3-9.5-9.3-16.7c11.4-40,17.1-81.4,17.1-123c0-1.2,0-2.3,0-3.4c-0.1-7.5,5.9-13.6,13.4-13.6c0,0,0.1,0,0.1,0
		c7.4,0,13.4,6,13.5,13.4c0,1.2,0,2.4,0,3.6c0,44-6.1,87.9-18.1,130.3C1180.5,861.1,1175.1,865,1169.2,865z M283.4,872.9
		c-5.8,0-11.1-3.8-12.9-9.6c-13.2-43.3-20-88.3-20.4-133.7c-0.1-7.4,5.9-13.6,13.4-13.6c0,0,0.1,0,0.1,0c7.4,0,13.4,6,13.5,13.4
		c0.4,42.8,6.8,85.2,19.2,126.1c2.2,7.1-1.9,14.7-9,16.8C286,872.7,284.7,872.9,283.4,872.9z M1030.6,1085c-3.8,0-7.5-1.6-10.1-4.6
		c-4.9-5.6-4.4-14.1,1.2-19c32.1-28.2,59.9-60.9,82.7-97.1c4-6.3,12.3-8.2,18.6-4.2c6.3,4,8.2,12.3,4.2,18.6
		c-24.1,38.3-53.6,73-87.7,102.9C1036.9,1083.9,1033.7,1085,1030.6,1085z M426,1090.4c-3.1,0-6.2-1.1-8.7-3.2
		c-34.3-29.2-64.4-63.4-89.4-101.4c-4.1-6.2-2.3-14.6,3.9-18.7c6.2-4.1,14.6-2.4,18.7,3.9c23.6,35.9,51.9,68.1,84.3,95.7
		c5.7,4.8,6.4,13.3,1.5,19C433.6,1088.8,429.8,1090.4,426,1090.4z M794.9,1195.2c-6.6,0-12.3-4.8-13.3-11.5
		c-1.1-7.4,3.9-14.2,11.3-15.4c42.2-6.4,83.3-18.9,122-37.1c6.8-3.2,14.8-0.3,17.9,6.5c3.2,6.8,0.3,14.8-6.5,17.9
		c-41.1,19.2-84.6,32.5-129.4,39.3C796.3,1195.1,795.6,1195.2,794.9,1195.2z M663.6,1196.2c-0.6,0-1.2,0-1.8-0.1
		c-44.9-6.1-88.7-18.5-130.1-36.9c-6.8-3-9.9-11-6.8-17.8c3-6.8,11-9.9,17.8-6.8c39,17.4,80.3,29.1,122.7,34.8
		c7.4,1,12.6,7.8,11.6,15.2C676,1191.3,670.2,1196.2,663.6,1196.2"/>
	<path class="st5" d="M1406.3,867.4c-5.5,26.5-12.5,52.5-20.9,77.8c-29.7,89.8-76.9,171.6-139.1,241.5
		c-40.6,45.7-87.5,86.3-140,120.7c-74.7,48.9-156.4,82.4-241.4,99.9c-90.8,18.6-185.2,18.8-278.7-0.2c-1.1-0.2-2.1-0.4-3.2-0.6
		c-148.5-31-279.8-107.6-378.4-219.3c-22.3-25.2-42.8-52.1-61.6-80.7c-33.2-50.7-59.3-104.6-78.1-160.5
		C26.1,830.2,18.5,705.8,44.1,583.2c5.5-26.5,12.5-52.4,20.9-77.8c29.7-89.8,76.9-171.6,139.1-241.5c40.6-45.7,87.5-86.3,140-120.7
		c74.7-48.9,156.4-82.5,241.4-99.9c90.8-18.6,185.2-18.8,278.7,0.2c1.1,0.2,2.1,0.4,3.2,0.7c148.5,31,279.8,107.6,378.4,219.3
		c22.2,25.2,42.8,52.1,61.6,80.7c33.2,50.7,59.3,104.6,78.1,160.5C1424.3,620.4,1431.9,744.8,1406.3,867.4z"/>
	<path class="st4" d="M1304.1,763.9c-21.3,0-38.6-17.3-38.6-38.6c0-21.3,17.3-38.7,38.6-38.7c21.3,0,38.6,17.3,38.6,38.7
		C1342.8,746.6,1325.4,763.9,1304.1,763.9"/>
	<path class="st4" d="M146.3,763.9c-21.3,0-38.6-17.3-38.6-38.6c0-21.3,17.3-38.7,38.6-38.7s38.6,17.3,38.6,38.7
		C184.9,746.6,167.6,763.9,146.3,763.9"/>
	<path class="st4" d="M427.4,1276.4c-21.3,0-38.6-17.3-38.6-38.7c0-21.3,17.3-38.6,38.6-38.6c21.3,0,38.6,17.3,38.6,38.6
		C466,1259.1,448.7,1276.4,427.4,1276.4"/>
	<path class="st4" d="M427.4,251.5c-21.3,0-38.6-17.3-38.6-38.7c0-21.3,17.3-38.6,38.6-38.6c21.3,0,38.6,17.3,38.6,38.6
		C466,234.1,448.7,251.5,427.4,251.5"/>
	<path class="st4" d="M1023,1276.4c-21.3,0-38.6-17.3-38.6-38.7c0-21.3,17.3-38.6,38.6-38.6s38.6,17.3,38.6,38.6
		C1061.6,1259.1,1044.3,1276.4,1023,1276.4"/>
	<path class="st4" d="M1023,251.5c-21.3,0-38.6-17.3-38.6-38.7c0-21.3,17.3-38.6,38.6-38.6s38.6,17.3,38.6,38.6
		C1061.6,234.1,1044.3,251.5,1023,251.5"/>
	<path class="st4" d="M1058.6,507c120.6,184.1,69,431.1-115.1,551.7c-184.1,120.6-431.1,69-551.7-115.1
		c-120.6-184.1-69-431.1,115.1-551.7C691,271.4,938,322.9,1058.6,507"/>
	<path class="st6" d="M1059.8,743.2l-5.4-5.6c-8.3-8.5-17.3-16.4-26.1-23.7c-0.1-0.1-0.1-0.3,0-0.4c4.1-3.9,8.3-8,12.4-12.3l3.1-3.2
		l2.9-3.3c2-2.2,3.9-4.4,5.9-6.7l5-5.9c3.2-3.9,7.6-6.4,12.4-7.1c4.7-0.7,9.8,0.4,13.9,3.7c4,3.3,6.4,8.1,6.9,13
		c0.3,2.5-0.1,5-0.8,7.4c-0.8,2.4-2,4.7-3.7,6.6l-2.4,2.8c-0.4,0.4,0.1,1,0.6,0.8c4.8-2.7,9.7-5.2,14.2-9.7c0.2-0.2,0.5-0.1,0.5,0.1
		l0.7,11.4c0.1,3.8,0.1,7.6,0.1,11.4c0,0.3-0.3,0.4-0.5,0.2c-4.9-4.2-9.9-6.3-14.9-8.7c-0.5-0.2-0.9,0.4-0.6,0.8l2.6,2.6
		c3.7,3.7,5.6,8.7,5.6,13.7c-0.2,5-2.2,9.9-6,13.5c-1.9,1.8-4.1,3-6.4,3.8c-2.3,0.8-4.8,1.1-7.2,0.9c-2.4-0.2-4.7-0.8-6.9-1.8
		C1063.6,746.5,1061.6,745.1,1059.8,743.2"/>
	<path class="st6" d="M1087.3,825.6c-2.2-3.6-4.2-7.2-6.6-10.7c-2.3-3.5-4.7-7-7-10.4c-2.4-3.4-4.7-6.7-7.2-10
		c-2.5-3.3-5-6.5-7.6-9.6c-0.1-0.1-0.2-0.1-0.3-0.1c-3.5,2.1-7,4-10.4,5.9c-3.4,1.9-7.1,3.7-10.7,5.5c-3.5,1.8-7.1,3.4-10.6,5
		c-3.5,1.6-7.2,3.1-10.8,4.6c-0.1,0.1-0.2,0.2-0.1,0.3c4.6,6.2,9.2,12.7,13.4,19.3c4.2,6.7,8.5,13.6,12.2,20.7
		c0.1,0.1,0.2,0.1,0.3,0.1c7.8-2.7,15.2-5.8,22.8-9.2c7.7-3.3,15.1-7.1,22.6-11C1087.3,826,1087.4,825.8,1087.3,825.6"/>
	<path class="st6" d="M1054.3,643.7c1.5-2.5,3.1-5,4.6-7.5c1.8-3,3.6-6,5.2-9.1c1.6-3.1,3.3-6.2,4.9-9.3c1.6-3.2,3.2-6.4,4.8-9.6
		c1.6-3.2,2.9-6.5,4.4-9.8c0.1-0.1,0-0.3-0.2-0.4c-3.2-1.6-6.5-3.2-9.7-4.8l-4.8-2.3l-4.9-2.1c-6.6-2.8-13-5.4-19.5-7.7
		c-2.8-1-5.6-1.9-8.4-2.8c-5.5-1.8-11.1-1.1-16,1.4c-2.4,1.2-4.7,2.9-6.5,4.9c-1.9,2-3.4,4.2-4.4,6.7c-1.1,2.5-1.6,5.1-1.5,7.4
		c0,2.4,0.4,4.8,1.3,6.9c1.8,4.3,5.6,7.7,10.6,9.7c2.5,0.9,5.1,1.9,7.6,3c0.1,0.1,0.2,0.2,0.1,0.4c-1.3,2.4-2.6,4.8-3.9,7.1
		c-2.8,4.8-3.4,9.8-2,14.2c0.8,2.2,1.7,4.3,3.3,6.2c1.5,1.9,3.6,3.5,6,4.7c2.4,1.2,5.1,2,7.8,2.4
		C1041,654.3,1049.8,651,1054.3,643.7"/>
	<path class="st6" d="M997.3,943.5c-3.5-2.9-5.6-7-6.2-11.1c-0.3-2.1-0.2-4.1,0.2-6.1c0.2-1,0.6-2,1-2.9c0.4-1,0.9-1.9,1.5-2.8
		c1.2-1.7,2.6-3.1,4.3-4.2c0.2-0.1,0.1-0.5-0.2-0.4c-4.5,1.1-9.6,0.2-13.8-2.8c-3.8-2.7-6.3-6.6-7.3-10.5c-0.5-2-0.7-4-0.4-5.9
		c0.1-1,0.4-1.9,0.7-2.8c0.3-0.9,0.7-1.8,1.2-2.7c2.1-3.5,5.7-5.6,9.8-6.3c4.1-0.7,8.6-0.1,12.7,2.3c2.3,1.3,4.2,3.1,5.6,5.1
		c1.4,2,2.4,4.3,2.7,6.6c0,0.2,0.4,0.3,0.5,0c0.4-1.9,1-3.9,2.1-5.6c2.2-3.7,5.8-6.1,9.9-7.2c4.1-1.1,8.5-0.8,12.6,1.2
		c4.2,2.1,7.3,5.9,8.5,10.1c1.2,4.2,0.7,9.1-1.8,13.4c-0.7,1.2-1.5,2.3-2.4,3.3c-0.9,0.9-2,1.8-3.1,2.5c-2.2,1.4-4.6,2.3-7.1,2.6
		c-0.5,0.1-0.6,0.7-0.1,0.9c4.1,1.5,8.5,2.2,13,1.9c1-0.1,2.1-0.2,3.2-0.4c0.2,0,0.4,0.2,0.3,0.4c-3.8,5.9-7.4,11.9-11.5,17.5
		c-0.1,0.2-0.4,0.1-0.4-0.1c-0.3-1.1-0.6-2.1-0.9-3.1c-1.5-4.2-3.8-8-6.9-11.1c-0.3-0.3-0.9,0-0.7,0.5c1.4,4.8,0.6,10.3-2.7,14.8
		c-2.8,4.1-7.2,6.3-11.6,6.9C1005.5,947.8,1000.9,946.5,997.3,943.5"/>
	<path class="st6" d="M811.2,1048.7l3.6-6.8c2.7-5.4,5.3-10.8,7.7-16.1c1.2-2.7,2.4-5.3,3.5-8c1.1-2.7,2.1-5.5,3.2-8.2
		c0.1-0.2,0.2-0.2,0.4-0.1c10.2,5.8,20.7,10.6,31.8,15.4c2.4,1,4.7,1.9,7.1,2.8c9.4,3.6,15,14,11.4,24c-0.9,2.5-2.3,4.7-4,6.5
		c-1.8,1.8-3.9,3.2-6.2,4.1c-4.6,1.9-9.9,2.3-14.8,0.1l-3.4-1.5c-0.5-0.2-0.9,0.4-0.5,0.8c4.1,3.7,8,7.7,13.7,10.6
		c0.2,0.1,0.3,0.4,0,0.5c-3.5,1.4-7.1,2.7-10.7,4l-5.3,2c-1.8,0.7-3.6,1.3-5.4,1.8c-0.2,0.1-0.4-0.1-0.3-0.4
		c0.6-1.5,1.1-2.9,1.5-4.3c0.4-1.5,0.7-2.9,0.9-4.3c0.5-2.8,0.8-5.6,1.1-8.3c0.1-0.5-0.7-0.8-0.9-0.2l-1.6,3.3
		c-0.6,1.2-1.3,2.3-2.1,3.3c-0.8,1-1.7,1.8-2.7,2.6c-1.9,1.6-4.2,2.8-6.6,3.5c-2.4,0.7-4.9,1.1-7.4,0.8c-2.5-0.3-5-1.1-7.3-2.4
		C808.9,1069.2,806.4,1057.5,811.2,1048.7"/>
	<path class="st6" d="M741.4,1100.4c2.8-3.2,5.5-6.5,8.2-9.7c2.7-3.3,5.2-6.4,7.7-9.8c5-6.7,9.7-13.3,14.1-20.1c0.1-0.1,0-0.2,0-0.3
		c-6.1-5.3-11.9-11-17.4-16.6c-2.7-2.7-5.4-5.8-8.1-8.6c-2.6-2.9-5.2-5.8-7.6-8.8c-0.1-0.1-0.2-0.1-0.3,0c-2.2,3.3-4.5,6.2-6.9,9.4
		c-2.4,3.1-4.8,6.2-7.3,9.3c-2.5,3.2-5.1,6.1-7.8,9c-2.7,3-5.4,5.9-8.2,8.9c-0.1,0.1-0.1,0.2,0,0.3c2.5,3.2,5,6.3,7.7,9.5
		c2.6,3.2,5.3,6.4,8.1,9.4c2.8,3,5.6,6.1,8.5,9.1c2.9,3,5.9,6.1,8.9,9C741.1,1100.5,741.2,1100.5,741.4,1100.4"/>
	<path class="st6" d="M904.1,1012.6c2.8,0.7,5.7,1.4,8.6,2.1c6.8,1.6,13.6,2.7,20.6,3.9c7.1,1.2,14.1,2,21.3,2.7
		c0.2,0,0.3-0.1,0.4-0.3c0.6-3.6,1.1-7.1,1.6-10.6c0.4-3.6,0.8-7.2,1.1-10.7c0.3-3.5,0.6-7,0.9-10.5c0.1-1.7,0.2-3.5,0.3-5.2
		l0.2-5.3c0.1-3,0.1-5.9,0.1-8.9c0-5.7-2.4-10.9-6.2-14.7c-1.9-1.9-4.2-3.6-6.6-4.7c-2.4-1.2-5.1-1.9-7.8-2.2
		c-10.9-0.9-19.3,6.2-19.7,17.3c-0.1,2.7-0.3,5.4-0.5,8.1c0,0.1-0.1,0.2-0.3,0.2c-2.7-0.5-5.4-1-8-1.6c-1.3-0.3-2.6-0.4-3.9-0.4
		c-1.3,0-2.6,0-3.8,0.2c-2.4,0.4-4.6,1.3-6.5,2.6c-1.9,1.3-3.5,3.1-4.8,5.2c-1.3,2-2.2,4.4-2.7,7.1c-0.5,2.7-0.4,5.4,0.1,8.1
		C890.1,1003.4,895.8,1010.5,904.1,1012.6"/>
	<path class="st6" d="M601.5,1051.1c1.7-4.2,4.9-7.4,8.6-9.3c3.8-1.9,8.1-2.5,12.2-1.2c2,0.6,3.7,1.7,5.3,2.8
		c0.2,0.2,0.5-0.1,0.3-0.3c-2.5-3.9-3.1-9.1-1.6-14.1c1.4-4.5,4.3-8,7.7-10.1c3.5-2.3,7.5-3.2,11.4-2.1c3.9,1.1,7.1,3.7,9,7.3
		c1.9,3.6,2.7,8.2,1.7,12.8c-1.1,5.1-4.3,9.2-8.5,11.5c-0.2,0.1-0.1,0.5,0.1,0.4c2-0.3,4-0.2,6,0.3c4.1,1.2,7.6,3.6,9.9,7.1
		c2.3,3.5,3.4,7.9,2.7,12.4c-0.7,4.7-3.3,8.6-7,11.1c-3.7,2.5-8.5,3.7-13.2,2.5c-5.4-1.3-9.7-4.8-11.8-9.4c-0.2-0.4-0.8-0.3-0.9,0.1
		c-0.2,4.4,0.5,8.8,2.2,12.9c0.4,1,0.8,1.9,1.3,2.9c0.1,0.2,0,0.4-0.3,0.4l-5.1-1.2c-1.7-0.4-3.4-0.9-5-1.4l-10.1-2.9
		c-0.2-0.1-0.2-0.3,0-0.5c0.9-0.6,1.8-1.2,2.6-1.9c3.6-2.8,6.4-6.2,8.5-10.1c0.2-0.4-0.3-0.8-0.7-0.6c-4.1,2.8-9.7,4-14.9,2.1
		c-4.7-1.6-8.3-4.8-10.2-8.8C600,1060.2,599.8,1055.5,601.5,1051.1"/>
	<path class="st6" d="M444,906.7c2.5,0.5,5.1,0.9,7.6,1.3c6,0.9,11.9,1.7,17.6,2.4c5.8,0.6,11.8,1,17.5,1.3c0.2,0,0.3,0.1,0.2,0.3
		c-0.6,2.8-1.2,5.8-1.6,8.6c-0.4,2.8-0.9,5.7-1.3,8.6c-0.4,2.9-0.8,5.9-1.1,8.8c-0.4,3-0.7,6-0.9,8.9l-0.5,7.7
		c-0.6,10.1-8.8,18.6-19.3,18.2c-10.6-0.3-18.8-10.1-18-20.4l0.4-3.7c0.1-0.6-0.7-0.8-0.9-0.3c-1.2,2.5-2.4,5-3.4,7.7
		c-1,2.6-1.9,5.4-2.4,8.6c0,0.3-0.3,0.4-0.5,0.2c-1.2-1.5-2.5-2.9-3.7-4.4l-3.5-4.5l-6.9-9c-0.2-0.2,0-0.4,0.3-0.4
		c6.5,0.5,11.8-0.8,17.2-1.8c0.5-0.1,0.5-0.9,0-0.9l-3.7-0.5c-2.6-0.4-5-1.3-7.2-2.6c-2.1-1.4-3.9-3.2-5.3-5.2
		c-1.4-2.1-2.5-4.4-3-6.8c-0.6-2.4-0.7-5-0.1-7.6C423.9,910.7,434.2,904.8,444,906.7"/>
	<path class="st6" d="M373.2,856.3c3.9,1.7,7.7,3.3,11.6,4.8c4,1.5,7.9,2.9,11.8,4.3c3.9,1.4,7.8,2.7,11.7,3.9
		c4,1.2,7.9,2.3,11.8,3.3c0.1,0,0.2,0,0.3-0.2c1.6-3.7,3.2-7.4,4.9-10.9c1.8-3.6,3.6-7.2,5.4-10.7c1.8-3.5,3.7-6.9,5.6-10.3
		c1.9-3.4,4-6.8,6.1-10c0.1-0.1,0-0.3-0.1-0.3c-3.7-1.1-7.4-2.3-11.1-3.6c-3.8-1.3-7.3-2.7-11-4.1c-7.3-2.9-14.9-6-22-9.6
		c-0.1-0.1-0.2,0-0.3,0.1c-4.7,6.7-8.8,13.6-13,20.8c-2.1,3.6-4.2,7.3-6.1,11c-1.9,3.7-3.8,7.4-5.7,11.3
		C373,856,373.1,856.2,373.2,856.3"/>
	<path class="st6" d="M506.9,984c0.2,2.9,0.4,5.9,0.7,8.8c0.7,6.8,1.6,13.8,2.6,20.9c1.2,6.9,2.5,13.9,4,21.1c0,0.2,0.2,0.3,0.4,0.2
		c14.4-2.4,28.1-5.3,41.5-9.3c2.8-0.8,5.6-1.6,8.4-2.5c5.5-1.8,9.7-5.8,12.2-10.6c1.2-2.4,2.1-5.1,2.4-7.8c0.3-2.7,0.2-5.4-0.4-8
		c-1.2-5.4-4.2-9.5-8.2-11.8c-4-2.4-8.9-3.2-14.3-1.6c-2.6,0.7-5.3,1.5-7.9,2.1c-0.2,0-0.3-0.1-0.3-0.2c-0.3-2.7-0.7-5.5-0.9-8.2
		c-0.3-2.7-1.1-5.2-2.3-7.3c-1.2-2.1-2.7-4-4.5-5.4c-3.6-2.9-8.7-4-14-3.3c-2.7,0.4-5.3,1.3-7.6,2.6
		C511.4,967.7,506.4,975.3,506.9,984"/>
	<path class="st6" d="M376.9,708c4.6,0.3,8.6,2.3,11.5,5.3c2.9,3,4.6,6.9,4.8,11.2c0.1,2.1-0.3,4.1-1,5.9c-0.1,0.2,0.2,0.4,0.4,0.2
		c3-3.6,7.6-5.8,12.8-5.8c4.7,0,9,1.6,12.1,4.2c3.2,2.6,5,6.2,5.4,10.2c0.3,4.1-1.4,7.9-4.3,10.9c-2.8,3-6.9,5.1-11.6,5.6
		c-5.2,0.5-10.2-1.2-13.6-4.6c-0.2-0.2-0.5,0-0.4,0.2c0.8,1.8,1.5,3.7,1.6,5.8c0.4,4.3-1.1,8.4-3.8,11.6c-2.6,3.2-6.4,5.7-10.9,6.4
		c-4.7,0.8-9.3-0.5-12.8-3.2c-3.4-2.7-5.8-7-6.4-11.9c-0.7-5.6,1.7-10.7,5.3-14.1c0.3-0.3,0-0.9-0.4-0.8c-4.2,1.2-8.2,3.2-11.7,6.1
		c-0.8,0.7-1.6,1.4-2.4,2.2c-0.2,0.2-0.4,0.1-0.4-0.1l-0.6-10.4l-0.3-5.2l-0.1-5.2c0-0.2,0.2-0.3,0.4-0.2c0.8,0.7,1.7,1.4,2.5,1.9
		c3.7,2.6,7.8,4.2,12.1,5c0.5,0.1,0.7-0.5,0.3-0.8c-4-3-6.5-8-6.6-13.6c-0.1-4.9,2.1-9.3,5.3-12.4
		C367.8,709.3,372.1,707.7,376.9,708"/>
	<path class="st6" d="M465.4,513.5l1.1,7.7c0.5,3,0.9,5.9,1.4,8.8c0.3,1.5,0.5,2.9,0.8,4.3l0.9,4.4c1.3,5.8,2.6,11.4,4.1,17
		c0,0.2-0.1,0.3-0.2,0.3c-11.3,1.5-23.1,3.4-34.7,6.3l-7.5,1.9c-2.5,0.6-5,0.8-7.3,0.5c-2.4-0.3-4.7-1-6.8-2.1
		c-2.1-1.1-4-2.6-5.6-4.5c-1.6-1.9-2.8-4.1-3.5-6.6c-1.4-5-0.5-10.3,2-14.6c2.5-4.3,6.9-7.5,11.9-8.7l3.6-0.8c0.5-0.1,0.5-0.9,0-1
		c-5.5-0.6-10.8-1.5-17.2-0.5c-0.3,0-0.4-0.2-0.3-0.4l6.1-9.6l6.6-9.3c0.2-0.2,0.4-0.1,0.5,0.1c1.5,6.3,4.4,10.9,7,15.8
		c0.3,0.5,1,0.2,0.9-0.3l-0.6-3.6c-0.8-5.1,0.5-10.4,3.6-14.4c3.1-3.9,7.6-6.8,12.8-7.4c2.6-0.3,5.1-0.1,7.4,0.7
		c2.3,0.8,4.5,1.9,6.3,3.5c1.8,1.5,3.4,3.4,4.5,5.5C464.3,508.6,465.1,510.9,465.4,513.5"/>
	<path class="st6" d="M491.7,430.6l-0.6,6.3l-0.4,6.3c-0.2,4.2-0.4,8.4-0.5,12.5c-0.3,8.1,0,16.5,0.4,24.6c0,0.1,0.1,0.2,0.2,0.2
		c8.1,0.8,15.9,1.7,23.8,3.2c3.9,0.7,7.8,1.4,11.6,2.2l5.7,1.2l5.7,1.4c0.1,0,0.3-0.1,0.2-0.2c0-3.8,0-7.7,0.1-11.7
		c0.1-3.9,0.2-7.9,0.5-11.8c0.6-7.8,1.3-15.9,2.3-23.9c0-0.1-0.1-0.2-0.2-0.3c-7.8-2.2-15.6-4.1-23.8-6c-4.1-0.9-8.1-1.6-12.2-2.4
		c-4.1-0.7-8.3-1.4-12.5-2C491.8,430.4,491.7,430.5,491.7,430.6"/>
	<path class="st6" d="M411.5,597.3c-2.7,1.1-5.4,2.2-8.1,3.4c-3.2,1.4-6.4,2.8-9.6,4.3c-3.1,1.5-6.3,3.1-9.4,4.7
		c-3.2,1.6-6.3,3.3-9.5,5c-3.2,1.7-6.2,3.5-9.3,5.4c-0.1,0.1-0.2,0.3-0.1,0.4c6.5,12.9,13.9,25.1,21.6,36.5c1.7,2.5,3.4,4.9,5.1,7.2
		c3.3,4.7,8.3,7.4,13.7,8.3c2.7,0.4,5.5,0.4,8.2-0.1c2.7-0.5,5.2-1.4,7.6-2.8c4.7-2.8,7.5-7,8.7-11.5c1.1-4.5,0-9.6-2.9-14.1
		c-1.5-2.3-2.9-4.6-4.4-6.9c-0.1-0.1,0-0.3,0.1-0.4c2.5-1.2,4.9-2.3,7.4-3.5c5.1-2.2,8.6-5.9,10-10.4c1.5-4.4,1.4-9.4-1.1-14.3
		c-1.2-2.4-3-4.7-4.9-6.5c-2.9-2.8-6.6-4.8-10.6-5.7c-2-0.4-4.1-0.6-6.1-0.5C415.5,596,413.5,596.4,411.5,597.3"/>
	<path class="st6" d="M633.8,388.2c1.1,4.4,0.4,8.9-1.5,12.5c-1.9,3.8-5.1,6.8-9.1,8.1c-2,0.7-4,0.8-6,0.8c-0.2,0-0.3,0.4-0.1,0.5
		c4.3,1.7,7.9,5.6,9.5,10.4c1.5,4.4,1.2,9-0.3,12.7c-1.5,3.9-4.2,7-7.9,8.4c-1.9,0.8-3.9,0.9-5.9,0.9c-1.9-0.1-3.9-0.6-5.8-1.5
		c-3.7-1.8-7-5-8.9-9.4c-2.1-4.8-2-10,0.1-14.3c0.1-0.2-0.2-0.5-0.4-0.3c-1.4,1.4-3.1,2.5-5,3.3c-2,0.8-4.1,1.1-6.2,1.1
		c-2.1,0-4.1-0.3-6.1-1.1c-3.9-1.5-7.4-4.4-9.5-8.4c-2.2-4.2-2.4-8.9-0.9-13.1c0.8-2.1,1.9-4.1,3.5-5.8c1.6-1.7,3.5-3,5.8-4
		c5.2-2.2,10.7-1.9,15.1,0.6c0.4,0.2,0.9-0.2,0.6-0.6c-2.4-3.7-5.6-6.8-9.4-9.2c-0.9-0.5-1.8-1.1-2.8-1.5c-0.2-0.1-0.2-0.4,0-0.5
		l4.8-2l4.9-1.8l9.8-3.6c0.2-0.1,0.4,0.1,0.3,0.4c-0.4,1-0.8,2.1-1,3.1c-1.3,4.4-1.5,8.8-0.9,13.1c0.1,0.5,0.7,0.5,0.9,0.1
		c1.7-4.7,5.5-9,10.8-10.5c4.7-1.5,9.5-1,13.4,1.1C629.6,379.9,632.6,383.7,633.8,388.2"/>
	<path class="st6" d="M846.1,412.5l-6.9,3.3c-5.4,2.7-10.6,5.6-15.7,8.5c-5.1,2.8-10.1,6-14.9,9.2c-0.1,0.1-0.3,0.1-0.4-0.1
		c-2.4-5.2-5-10.6-7.8-15.7c-2.8-5.1-5.7-10.4-8.9-15.5l-4.1-6.5c-5.5-8.4-3.8-20.2,4.9-26c2.2-1.5,4.6-2.4,7.1-2.9
		c2.5-0.4,5-0.3,7.4,0.3c2.4,0.6,4.8,1.6,6.8,3c1,0.7,2,1.5,2.9,2.4c0.9,0.9,1.6,2,2.3,3.2l1.9,3.2c0.3,0.5,1,0.2,0.9-0.3
		c-0.6-2.7-1-5.4-1.7-8.2c-0.7-2.8-1.6-5.6-3.1-8.4c-0.1-0.2,0-0.5,0.3-0.4c1.9,0.4,3.7,0.9,5.5,1.4l5.5,1.6l5.5,1.6
		c1.8,0.5,3.6,1,5.4,1.7c0.2,0.1,0.3,0.4,0,0.5c-2.7,1.6-5,3.5-7.1,5.5c-2.1,2-3.9,4-5.8,6.1c-0.4,0.4,0.1,1,0.6,0.7l3.3-1.7
		c1.2-0.6,2.4-1.1,3.6-1.5c1.2-0.3,2.5-0.5,3.7-0.6c2.5-0.1,5,0.2,7.4,1c2.4,0.8,4.6,2,6.5,3.7c1.9,1.7,3.4,3.8,4.5,6.2
		C860,397.4,855.2,408.2,846.1,412.5"/>
	<path class="st6" d="M933,411.7c-8.3,2-16.4,4-24.3,6.4c-8,2.5-15.7,5.1-23.2,8c-0.1,0-0.2,0.2-0.2,0.3c1.7,7.9,3.1,15.9,4.4,23.6
		c1.1,7.8,1.9,15.7,2.5,23.3c0,0.1,0.1,0.2,0.3,0.2c7.3-2.5,14.7-4.7,22.4-6.7c3.9-1.1,7.7-1.9,11.6-2.8c3.9-0.8,7.8-1.6,11.8-2.4
		c0.1,0,0.2-0.1,0.2-0.3c-0.1-4-0.4-8.1-0.6-12.2c-0.3-4.1-0.6-8.3-1-12.3c-0.9-8.1-2-16.6-3.5-24.9
		C933.3,411.8,933.2,411.6,933,411.7"/>
	<path class="st6" d="M749.7,387c-1.9-2.3-3.8-4.6-5.7-6.7c-4.6-5.1-9.4-10.3-14.4-15.4c-5-4.9-10.2-9.8-15.6-14.7
		c-0.1-0.1-0.3-0.1-0.4,0c-5.1,5.1-10,10.4-14.7,15.7c-1.2,1.3-2.3,2.6-3.5,3.9l-3.4,4.1c-2.2,2.7-4.4,5.4-6.5,8.2
		c-1.8,2.3-3.6,4.6-5.3,7c-3.4,4.7-4.5,10.4-3.6,15.7c0.4,2.7,1.3,5.3,2.6,7.7c1.3,2.4,3,4.5,5,6.2c4.1,3.6,9,5.3,13.6,4.7
		c2.3-0.3,4.6-0.9,6.7-2.1c2.1-1.2,4.1-2.8,5.8-5c1.7-2.1,3.4-4.3,5.2-6.4c0.1-0.1,0.3-0.1,0.4,0c1.9,2,3.7,4.1,5.6,6.1
		c3.7,4.1,8.3,6,12.9,6.3c2.3,0.1,4.7-0.3,6.9-1.3c1.1-0.5,2.2-1.1,3.3-1.8c1.1-0.7,2.1-1.5,3.1-2.4c1.9-1.9,3.5-4.1,4.6-6.6
		C755.7,402.9,755.3,393.7,749.7,387"/>
	<path class="st6" d="M1017.2,533.8c-3.9,2.5-8.4,3.2-12.5,2.5c-4.1-0.7-7.9-2.8-10.4-6.3c-1.2-1.7-2.2-3.5-2.7-5.4
		c-0.1-0.2-0.4-0.2-0.4,0.1c-0.3,4.6-2.7,9.1-6.9,12.2c-1.9,1.4-3.9,2.4-6,3c-2.1,0.6-4.2,0.8-6.3,0.7c-4.1-0.2-7.9-1.9-10.4-5
		c-1.2-1.6-2.2-3.4-2.7-5.3c-0.5-1.9-0.6-3.9-0.3-6c0.6-4.1,2.7-8.2,6.2-11.4c3.9-3.5,8.9-4.9,13.6-4.2c0.2,0,0.4-0.3,0.2-0.4
		c-1.8-0.9-3.3-2.2-4.6-3.8c-1.3-1.7-2.4-3.5-3-5.4c-0.6-2-0.9-4-0.8-6.1c0.2-4.2,1.9-8.4,5.2-11.6c3.4-3.4,7.8-5,12.2-4.8
		c2.2,0.1,4.4,0.6,6.6,1.6s4.1,2.3,5.6,4.2c3.6,4.2,5,9.7,4,14.5c-0.1,0.5,0.5,0.7,0.8,0.4c2.7-3.4,4.7-7.3,5.8-11.7
		c0.2-1,0.5-2.1,0.6-3.1c0-0.2,0.3-0.3,0.4-0.2l3.4,4c1.1,1.3,2.3,2.6,3.3,4.1l6.4,8.3c0.1,0.2,0,0.4-0.2,0.4
		c-1.1-0.1-2.2-0.1-3.2-0.1c-4.5,0.1-8.8,1.2-12.7,3.1c-0.4,0.2-0.3,0.8,0.2,0.8c5,0.1,10.1,2.5,13.4,7c2.8,4.1,3.8,8.8,3,13.2
		C1023.8,527.4,1021.2,531.3,1017.2,533.8"/>
	<path class="st7" d="M559,840.7c-6.1,0-11.8-1.3-17-3.8c-5.2-2.5-7.8-6.4-7.8-11.4V663.9l-9.2,5.7c-1.5,0.8-2.9,1.5-4.3,1.9
		c-1.4,0.4-2.6,0.6-3.7,0.6c-4.7,0-8.4-2.1-11.3-6.2c-2.9-4.1-4.3-8.6-4.3-13.5c0-3.4,0.7-6.6,2.2-9.5c1.5-3,3.8-5.4,7-7.3
		l41.9-25.4c1.3-0.8,2.7-1.4,4.3-1.8c1.6-0.3,3.2-0.5,4.9-0.5c5.1,0,10,1.4,14.8,4.1c4.8,2.8,7.1,6.6,7.1,11.4v201.9
		c0,5.1-2.6,8.9-7.8,11.4S565.1,840.7,559,840.7"/>
	<path class="st7" d="M690.4,742c-5.1,0-9-1.5-11.9-4.6c-2.9-3.1-4.3-7-4.3-11.9c0-4.7,1.4-8.4,4.3-11.3c2.9-2.9,6.8-4.3,11.9-4.3
		c4.9,0,8.7,1.4,11.6,4.3c2.9,2.8,4.3,6.6,4.3,11.3c0,4.9-1.4,8.8-4.3,11.9C699.2,740.4,695.3,742,690.4,742z M690.1,799.4
		c8.9,0,15.9-2.5,21-7.6c5.1-5.1,7.6-13.1,7.6-24.1v-84.1c0-11-2.5-19.1-7.6-24.1c-5.1-5.1-12.1-7.6-21-7.6s-15.8,2.5-20.8,7.6
		c-5,5.1-7.5,13.1-7.5,24.1v84.1c0,11,2.5,19,7.5,24.1C674.3,796.9,681.2,799.4,690.1,799.4z M690.1,842.6
		c-14.6,0-27.8-2.4-39.5-7.3c-11.7-4.9-21.1-12.8-27.9-23.8c-6.9-11-10.3-25.6-10.3-43.8v-84.1c0-18.2,3.4-32.8,10.3-43.8
		c6.9-11,16.2-18.9,27.9-23.8c11.8-4.9,24.9-7.3,39.5-7.3s27.8,2.4,39.7,7.3c11.9,4.9,21.2,12.8,28.1,23.8
		c6.9,11,10.3,25.6,10.3,43.8v84.1c0,18.2-3.4,32.8-10.3,43.8c-6.9,11-16.2,18.9-28.1,23.8S704.7,842.6,690.1,842.6"/>
	<path class="st7" d="M871.1,742c-5.1,0-9-1.5-11.9-4.6c-2.9-3.1-4.3-7-4.3-11.9c0-4.7,1.4-8.4,4.3-11.3c2.9-2.9,6.8-4.3,11.9-4.3
		c4.9,0,8.7,1.4,11.6,4.3c2.9,2.8,4.3,6.6,4.3,11.3c0,4.9-1.4,8.8-4.3,11.9C879.8,740.4,875.9,742,871.1,742z M870.8,799.4
		c8.9,0,15.9-2.5,21-7.6c5.1-5.1,7.6-13.1,7.6-24.1v-84.1c0-11-2.5-19.1-7.6-24.1c-5.1-5.1-12.1-7.6-21-7.6
		c-8.9,0-15.8,2.5-20.8,7.6c-5,5.1-7.5,13.1-7.5,24.1v84.1c0,11,2.5,19,7.5,24.1C854.9,796.9,861.9,799.4,870.8,799.4z M870.8,842.6
		c-14.6,0-27.8-2.4-39.5-7.3c-11.7-4.9-21.1-12.8-27.9-23.8c-6.9-11-10.3-25.6-10.3-43.8v-84.1c0-18.2,3.4-32.8,10.3-43.8
		c6.9-11,16.2-18.9,27.9-23.8c11.8-4.9,24.9-7.3,39.5-7.3c14.6,0,27.8,2.4,39.7,7.3c11.9,4.9,21.2,12.8,28.1,23.8
		c6.9,11,10.3,25.6,10.3,43.8v84.1c0,18.2-3.4,32.8-10.3,43.8c-6.9,11-16.2,18.9-28.1,23.8C898.6,840.2,885.4,842.6,870.8,842.6"/>
</g>
</svg>
