<?xml version="1.0" encoding="utf-8"?>
<!-- Generator: Adobe Illustrator 27.3.1, SVG Export Plug-In . SVG Version: 6.00 Build 0)  -->
<svg version="1.1" id="Calque_1" xmlns="http://www.w3.org/2000/svg" xmlns:xlink="http://www.w3.org/1999/xlink" x="0px" y="0px"
	 viewBox="0 0 1450 1450" style="enable-background:new 0 0 1450 1450;" xml:space="preserve">
<style type="text/css">
	.st0{clip-path:url(#SVGID_00000181060660224696819070000009985231023825072566_);}
	.st1{clip-path:url(#SVGID_00000126281300285075854900000017285885170105580948_);}
	.st2{fill:url(#SVGID_00000120519434744693644020000013087476826852024224_);}
	.st3{fill:#FFFFFF;}
	.st4{fill:none;stroke:#D5442F;stroke-width:15.8759;stroke-miterlimit:1;}
	.st5{fill:#D5442F;}
	.st6{fill:#3C3C3B;}
</style>
<g>
	<g>
		<g>
			<defs>
				<path id="SVGID_1_" d="M1242.4,1190.4c-39.3,43.7-84.8,83-136.3,116.7c-30.3,19.9-61.6,37-93.6,51.6
					c-184.6,84-392.4,81-570.2,2.1c-86.1-38.2-165.2-94.1-231.2-166.6c-24.7-27.1-47.5-56.5-68.2-88.1
					C51.5,966.6,16.8,806.4,33,652.6c10-95,39.4-187.5,86.9-271.3c52.8-93.2,128.1-175.6,224-238.4C418.1,94.3,498.1,61.7,580,44.3
					c94.7-20.2,191.8-20,285-0.9c175.2,35.9,336.5,139,442.2,300.4c7.1,10.9,13.9,21.8,20.3,32.9c49.5,85.5,78.8,177.7,89.2,270.7
					C1438.3,842.6,1376.5,1041.5,1242.4,1190.4z"/>
			</defs>
			<clipPath id="SVGID_00000071542620386731173290000006755384501022211971_">
				<use xlink:href="#SVGID_1_"  style="overflow:visible;"/>
			</clipPath>
			<g style="clip-path:url(#SVGID_00000071542620386731173290000006755384501022211971_);">
				<g>
					<defs>
						<path id="SVGID_00000013881573818969787520000013956410086254209428_" d="M1242.4,1190.4c-39.3,43.7-84.8,83-136.3,116.7
							c-30.3,19.9-61.6,37-93.6,51.6c-184.6,84-392.4,81-570.2,2.1c-86.1-38.2-165.2-94.1-231.2-166.6
							c-24.7-27.1-47.5-56.5-68.2-88.1C51.5,966.6,16.8,806.4,33,652.6c10-95,39.4-187.5,86.9-271.3
							c52.8-93.2,128.1-175.6,224-238.4C418.1,94.3,498.1,61.7,580,44.3c94.7-20.2,191.8-20,285-0.9
							c175.2,35.9,336.5,139,442.2,300.4c7.1,10.9,13.9,21.8,20.3,32.9c49.5,85.5,78.8,177.7,89.2,270.7
							C1438.3,842.6,1376.5,1041.5,1242.4,1190.4"/>
					</defs>
					<clipPath id="SVGID_00000090996724962981535830000009584464043120803991_">
						<use xlink:href="#SVGID_00000013881573818969787520000013956410086254209428_"  style="overflow:visible;"/>
					</clipPath>
					<g style="clip-path:url(#SVGID_00000090996724962981535830000009584464043120803991_);">
						
							<radialGradient id="SVGID_00000013195359114018517040000007657543070279156118_" cx="-3369.3152" cy="3385.8" r="695.85" gradientTransform="matrix(1 0 0 -1 4094.3101 4110.7998)" gradientUnits="userSpaceOnUse">
							<stop  offset="0" style="stop-color:#FBCC00"/>
							<stop  offset="3.906250e-03" style="stop-color:#FBCB00"/>
							<stop  offset="7.812500e-03" style="stop-color:#FBCB00"/>
							<stop  offset="1.171880e-02" style="stop-color:#FACA01"/>
							<stop  offset="1.562500e-02" style="stop-color:#FACA01"/>
							<stop  offset="1.953120e-02" style="stop-color:#FAC901"/>
							<stop  offset="2.343750e-02" style="stop-color:#FAC901"/>
							<stop  offset="2.734380e-02" style="stop-color:#FAC801"/>
							<stop  offset="3.125000e-02" style="stop-color:#FAC702"/>
							<stop  offset="3.515620e-02" style="stop-color:#FAC702"/>
							<stop  offset="3.906250e-02" style="stop-color:#F9C602"/>
							<stop  offset="4.296880e-02" style="stop-color:#F9C602"/>
							<stop  offset="4.687500e-02" style="stop-color:#F9C502"/>
							<stop  offset="5.078120e-02" style="stop-color:#F9C502"/>
							<stop  offset="5.468750e-02" style="stop-color:#F9C403"/>
							<stop  offset="5.859380e-02" style="stop-color:#F9C403"/>
							<stop  offset="6.250000e-02" style="stop-color:#F9C303"/>
							<stop  offset="6.640620e-02" style="stop-color:#F8C303"/>
							<stop  offset="7.031250e-02" style="stop-color:#F8C203"/>
							<stop  offset="7.421880e-02" style="stop-color:#F8C204"/>
							<stop  offset="7.812500e-02" style="stop-color:#F8C104"/>
							<stop  offset="8.203121e-02" style="stop-color:#F8C104"/>
							<stop  offset="8.593750e-02" style="stop-color:#F8C004"/>
							<stop  offset="8.984379e-02" style="stop-color:#F8C004"/>
							<stop  offset="9.375000e-02" style="stop-color:#F7BF04"/>
							<stop  offset="9.765621e-02" style="stop-color:#F7BE05"/>
							<stop  offset="0.1016" style="stop-color:#F7BE05"/>
							<stop  offset="0.1055" style="stop-color:#F7BD05"/>
							<stop  offset="0.1094" style="stop-color:#F7BD05"/>
							<stop  offset="0.1133" style="stop-color:#F7BC05"/>
							<stop  offset="0.1172" style="stop-color:#F6BC06"/>
							<stop  offset="0.1211" style="stop-color:#F6BB06"/>
							<stop  offset="0.125" style="stop-color:#F6BB06"/>
							<stop  offset="0.1289" style="stop-color:#F6BA06"/>
							<stop  offset="0.1328" style="stop-color:#F6BA06"/>
							<stop  offset="0.1367" style="stop-color:#F6B907"/>
							<stop  offset="0.1406" style="stop-color:#F6B907"/>
							<stop  offset="0.1445" style="stop-color:#F5B807"/>
							<stop  offset="0.1484" style="stop-color:#F5B807"/>
							<stop  offset="0.1523" style="stop-color:#F5B707"/>
							<stop  offset="0.1562" style="stop-color:#F5B607"/>
							<stop  offset="0.1602" style="stop-color:#F5B608"/>
							<stop  offset="0.1641" style="stop-color:#F5B508"/>
							<stop  offset="0.168" style="stop-color:#F5B508"/>
							<stop  offset="0.1719" style="stop-color:#F4B408"/>
							<stop  offset="0.1758" style="stop-color:#F4B408"/>
							<stop  offset="0.1797" style="stop-color:#F4B309"/>
							<stop  offset="0.1836" style="stop-color:#F4B309"/>
							<stop  offset="0.1875" style="stop-color:#F4B209"/>
							<stop  offset="0.1914" style="stop-color:#F4B209"/>
							<stop  offset="0.1953" style="stop-color:#F4B109"/>
							<stop  offset="0.1992" style="stop-color:#F3B109"/>
							<stop  offset="0.2031" style="stop-color:#F3B00A"/>
							<stop  offset="0.207" style="stop-color:#F3B00A"/>
							<stop  offset="0.2109" style="stop-color:#F3AF0A"/>
							<stop  offset="0.2148" style="stop-color:#F3AF0A"/>
							<stop  offset="0.2188" style="stop-color:#F3AE0A"/>
							<stop  offset="0.2227" style="stop-color:#F2AD0B"/>
							<stop  offset="0.2266" style="stop-color:#F2AD0B"/>
							<stop  offset="0.2305" style="stop-color:#F2AC0B"/>
							<stop  offset="0.2344" style="stop-color:#F2AC0B"/>
							<stop  offset="0.2383" style="stop-color:#F2AB0B"/>
							<stop  offset="0.2422" style="stop-color:#F2AB0B"/>
							<stop  offset="0.2461" style="stop-color:#F2AA0C"/>
							<stop  offset="0.25" style="stop-color:#F1AA0C"/>
							<stop  offset="0.2539" style="stop-color:#F1A90C"/>
							<stop  offset="0.2578" style="stop-color:#F1A90C"/>
							<stop  offset="0.2617" style="stop-color:#F1A80C"/>
							<stop  offset="0.2656" style="stop-color:#F1A80D"/>
							<stop  offset="0.2695" style="stop-color:#F1A70D"/>
							<stop  offset="0.2734" style="stop-color:#F1A70D"/>
							<stop  offset="0.2773" style="stop-color:#F0A60D"/>
							<stop  offset="0.2812" style="stop-color:#F0A50D"/>
							<stop  offset="0.2852" style="stop-color:#F0A50D"/>
							<stop  offset="0.2891" style="stop-color:#F0A40E"/>
							<stop  offset="0.293" style="stop-color:#F0A40E"/>
							<stop  offset="0.2969" style="stop-color:#F0A30E"/>
							<stop  offset="0.3008" style="stop-color:#EFA30E"/>
							<stop  offset="0.3047" style="stop-color:#EFA20E"/>
							<stop  offset="0.3086" style="stop-color:#EFA20F"/>
							<stop  offset="0.3125" style="stop-color:#EFA10F"/>
							<stop  offset="0.3164" style="stop-color:#EFA10F"/>
							<stop  offset="0.3203" style="stop-color:#EFA00F"/>
							<stop  offset="0.3242" style="stop-color:#EFA00F"/>
							<stop  offset="0.3281" style="stop-color:#EE9F10"/>
							<stop  offset="0.332" style="stop-color:#EE9F10"/>
							<stop  offset="0.3359" style="stop-color:#EE9E10"/>
							<stop  offset="0.3398" style="stop-color:#EE9E10"/>
							<stop  offset="0.3438" style="stop-color:#EE9D10"/>
							<stop  offset="0.3477" style="stop-color:#EE9C10"/>
							<stop  offset="0.3516" style="stop-color:#EE9C11"/>
							<stop  offset="0.3555" style="stop-color:#ED9B11"/>
							<stop  offset="0.3594" style="stop-color:#ED9B11"/>
							<stop  offset="0.3633" style="stop-color:#ED9A11"/>
							<stop  offset="0.3672" style="stop-color:#ED9A11"/>
							<stop  offset="0.3711" style="stop-color:#ED9912"/>
							<stop  offset="0.375" style="stop-color:#ED9912"/>
							<stop  offset="0.3789" style="stop-color:#ED9812"/>
							<stop  offset="0.3828" style="stop-color:#EC9812"/>
							<stop  offset="0.3867" style="stop-color:#EC9712"/>
							<stop  offset="0.3906" style="stop-color:#EC9712"/>
							<stop  offset="0.3945" style="stop-color:#EC9613"/>
							<stop  offset="0.3984" style="stop-color:#EC9613"/>
							<stop  offset="0.4023" style="stop-color:#EC9513"/>
							<stop  offset="0.4062" style="stop-color:#EB9413"/>
							<stop  offset="0.4102" style="stop-color:#EB9413"/>
							<stop  offset="0.4141" style="stop-color:#EB9314"/>
							<stop  offset="0.418" style="stop-color:#EB9314"/>
							<stop  offset="0.4219" style="stop-color:#EB9214"/>
							<stop  offset="0.4258" style="stop-color:#EB9214"/>
							<stop  offset="0.4297" style="stop-color:#EB9114"/>
							<stop  offset="0.4336" style="stop-color:#EA9114"/>
							<stop  offset="0.4375" style="stop-color:#EA9015"/>
							<stop  offset="0.4414" style="stop-color:#EA9015"/>
							<stop  offset="0.4453" style="stop-color:#EA8F15"/>
							<stop  offset="0.4492" style="stop-color:#EA8F15"/>
							<stop  offset="0.4531" style="stop-color:#EA8E15"/>
							<stop  offset="0.457" style="stop-color:#EA8E16"/>
							<stop  offset="0.4609" style="stop-color:#E98D16"/>
							<stop  offset="0.4648" style="stop-color:#E98D16"/>
							<stop  offset="0.4688" style="stop-color:#E98C16"/>
							<stop  offset="0.4727" style="stop-color:#E98B16"/>
							<stop  offset="0.4766" style="stop-color:#E98B16"/>
							<stop  offset="0.4805" style="stop-color:#E98A17"/>
							<stop  offset="0.4844" style="stop-color:#E98A17"/>
							<stop  offset="0.4883" style="stop-color:#E88917"/>
							<stop  offset="0.4922" style="stop-color:#E88917"/>
							<stop  offset="0.4961" style="stop-color:#E88817"/>
							<stop  offset="0.5" style="stop-color:#E88818"/>
							<stop  offset="0.5039" style="stop-color:#E88718"/>
							<stop  offset="0.5078" style="stop-color:#E88718"/>
							<stop  offset="0.5117" style="stop-color:#E78618"/>
							<stop  offset="0.5156" style="stop-color:#E78618"/>
							<stop  offset="0.5195" style="stop-color:#E78519"/>
							<stop  offset="0.5234" style="stop-color:#E78519"/>
							<stop  offset="0.5273" style="stop-color:#E78419"/>
							<stop  offset="0.5312" style="stop-color:#E78319"/>
							<stop  offset="0.5352" style="stop-color:#E78319"/>
							<stop  offset="0.5391" style="stop-color:#E68219"/>
							<stop  offset="0.543" style="stop-color:#E6821A"/>
							<stop  offset="0.5469" style="stop-color:#E6811A"/>
							<stop  offset="0.5508" style="stop-color:#E6811A"/>
							<stop  offset="0.5547" style="stop-color:#E6801A"/>
							<stop  offset="0.5586" style="stop-color:#E6801A"/>
							<stop  offset="0.5625" style="stop-color:#E67F1B"/>
							<stop  offset="0.5664" style="stop-color:#E57F1B"/>
							<stop  offset="0.5703" style="stop-color:#E57E1B"/>
							<stop  offset="0.5742" style="stop-color:#E57E1B"/>
							<stop  offset="0.5781" style="stop-color:#E57D1B"/>
							<stop  offset="0.582" style="stop-color:#E57D1B"/>
							<stop  offset="0.5859" style="stop-color:#E57C1C"/>
							<stop  offset="0.5898" style="stop-color:#E57C1C"/>
							<stop  offset="0.5938" style="stop-color:#E47B1C"/>
							<stop  offset="0.5977" style="stop-color:#E47A1C"/>
							<stop  offset="0.6016" style="stop-color:#E47A1C"/>
							<stop  offset="0.6055" style="stop-color:#E4791D"/>
							<stop  offset="0.6094" style="stop-color:#E4791D"/>
							<stop  offset="0.6133" style="stop-color:#E4781D"/>
							<stop  offset="0.6172" style="stop-color:#E3781D"/>
							<stop  offset="0.6211" style="stop-color:#E3771D"/>
							<stop  offset="0.625" style="stop-color:#E3771D"/>
							<stop  offset="0.6289" style="stop-color:#E3761E"/>
							<stop  offset="0.6328" style="stop-color:#E3761E"/>
							<stop  offset="0.6367" style="stop-color:#E3751E"/>
							<stop  offset="0.6406" style="stop-color:#E3751E"/>
							<stop  offset="0.6445" style="stop-color:#E2741E"/>
							<stop  offset="0.6484" style="stop-color:#E2741F"/>
							<stop  offset="0.6523" style="stop-color:#E2731F"/>
							<stop  offset="0.6562" style="stop-color:#E2721F"/>
							<stop  offset="0.6602" style="stop-color:#E2721F"/>
							<stop  offset="0.6641" style="stop-color:#E2711F"/>
							<stop  offset="0.668" style="stop-color:#E2711F"/>
							<stop  offset="0.6719" style="stop-color:#E17020"/>
							<stop  offset="0.6758" style="stop-color:#E17020"/>
							<stop  offset="0.6797" style="stop-color:#E16F20"/>
							<stop  offset="0.6836" style="stop-color:#E16F20"/>
							<stop  offset="0.6875" style="stop-color:#E16E20"/>
							<stop  offset="0.6914" style="stop-color:#E16E21"/>
							<stop  offset="0.6953" style="stop-color:#E16D21"/>
							<stop  offset="0.6992" style="stop-color:#E06D21"/>
							<stop  offset="0.7031" style="stop-color:#E06C21"/>
							<stop  offset="0.707" style="stop-color:#E06C21"/>
							<stop  offset="0.7109" style="stop-color:#E06B22"/>
							<stop  offset="0.7148" style="stop-color:#E06B22"/>
							<stop  offset="0.7188" style="stop-color:#E06A22"/>
							<stop  offset="0.7227" style="stop-color:#DF6922"/>
							<stop  offset="0.7266" style="stop-color:#DF6922"/>
							<stop  offset="0.7305" style="stop-color:#DF6822"/>
							<stop  offset="0.7344" style="stop-color:#DF6823"/>
							<stop  offset="0.7383" style="stop-color:#DF6723"/>
							<stop  offset="0.7422" style="stop-color:#DF6723"/>
							<stop  offset="0.7461" style="stop-color:#DF6623"/>
							<stop  offset="0.75" style="stop-color:#DE6623"/>
							<stop  offset="0.7539" style="stop-color:#DE6524"/>
							<stop  offset="0.7578" style="stop-color:#DE6524"/>
							<stop  offset="0.7617" style="stop-color:#DE6424"/>
							<stop  offset="0.7656" style="stop-color:#DE6424"/>
							<stop  offset="0.7695" style="stop-color:#DE6324"/>
							<stop  offset="0.7734" style="stop-color:#DE6324"/>
							<stop  offset="0.7773" style="stop-color:#DD6225"/>
							<stop  offset="0.7812" style="stop-color:#DD6125"/>
							<stop  offset="0.7852" style="stop-color:#DD6125"/>
							<stop  offset="0.7891" style="stop-color:#DD6025"/>
							<stop  offset="0.793" style="stop-color:#DD6025"/>
							<stop  offset="0.7969" style="stop-color:#DD5F26"/>
							<stop  offset="0.8008" style="stop-color:#DC5F26"/>
							<stop  offset="0.8047" style="stop-color:#DC5E26"/>
							<stop  offset="0.8086" style="stop-color:#DC5E26"/>
							<stop  offset="0.8125" style="stop-color:#DC5D26"/>
							<stop  offset="0.8164" style="stop-color:#DC5D26"/>
							<stop  offset="0.8203" style="stop-color:#DC5C27"/>
							<stop  offset="0.8242" style="stop-color:#DC5C27"/>
							<stop  offset="0.8281" style="stop-color:#DB5B27"/>
							<stop  offset="0.832" style="stop-color:#DB5B27"/>
							<stop  offset="0.8359" style="stop-color:#DB5A27"/>
							<stop  offset="0.8398" style="stop-color:#DB5A28"/>
							<stop  offset="0.8438" style="stop-color:#DB5928"/>
							<stop  offset="0.8477" style="stop-color:#DB5828"/>
							<stop  offset="0.8516" style="stop-color:#DB5828"/>
							<stop  offset="0.8555" style="stop-color:#DA5728"/>
							<stop  offset="0.8594" style="stop-color:#DA5728"/>
							<stop  offset="0.8633" style="stop-color:#DA5629"/>
							<stop  offset="0.8672" style="stop-color:#DA5629"/>
							<stop  offset="0.8711" style="stop-color:#DA5529"/>
							<stop  offset="0.875" style="stop-color:#DA5529"/>
							<stop  offset="0.8789" style="stop-color:#DA5429"/>
							<stop  offset="0.8828" style="stop-color:#D9542A"/>
							<stop  offset="0.8867" style="stop-color:#D9532A"/>
							<stop  offset="0.8906" style="stop-color:#D9532A"/>
							<stop  offset="0.8945" style="stop-color:#D9522A"/>
							<stop  offset="0.8984" style="stop-color:#D9522A"/>
							<stop  offset="0.9023" style="stop-color:#D9512A"/>
							<stop  offset="0.9062" style="stop-color:#D8502B"/>
							<stop  offset="0.9102" style="stop-color:#D8502B"/>
							<stop  offset="0.9141" style="stop-color:#D84F2B"/>
							<stop  offset="0.918" style="stop-color:#D84F2B"/>
							<stop  offset="0.9219" style="stop-color:#D84E2B"/>
							<stop  offset="0.9258" style="stop-color:#D84E2C"/>
							<stop  offset="0.9297" style="stop-color:#D84D2C"/>
							<stop  offset="0.9336" style="stop-color:#D74D2C"/>
							<stop  offset="0.9375" style="stop-color:#D74C2C"/>
							<stop  offset="0.9414" style="stop-color:#D74C2C"/>
							<stop  offset="0.9453" style="stop-color:#D74B2D"/>
							<stop  offset="0.9492" style="stop-color:#D74B2D"/>
							<stop  offset="0.9531" style="stop-color:#D74A2D"/>
							<stop  offset="0.957" style="stop-color:#D74A2D"/>
							<stop  offset="0.9609" style="stop-color:#D6492D"/>
							<stop  offset="0.9648" style="stop-color:#D6492D"/>
							<stop  offset="0.9688" style="stop-color:#D6482E"/>
							<stop  offset="0.9727" style="stop-color:#D6472E"/>
							<stop  offset="0.9766" style="stop-color:#D6472E"/>
							<stop  offset="0.9805" style="stop-color:#D6462E"/>
							<stop  offset="0.9844" style="stop-color:#D6462E"/>
							<stop  offset="0.9883" style="stop-color:#D5452F"/>
							<stop  offset="0.9922" style="stop-color:#D5452F"/>
							<stop  offset="0.9961" style="stop-color:#D5442F"/>
							<stop  offset="1" style="stop-color:#D5442F"/>
						</radialGradient>
						<path style="fill:url(#SVGID_00000013195359114018517040000007657543070279156118_);" d="M16.8,24.1v1418.6h1421.5V24.1H16.8z
							"/>
					</g>
				</g>
			</g>
		</g>
	</g>
	<path class="st3" d="M864.8,1407c-90.8,18.6-185.2,18.8-278.7-0.2c0.3-1,0.7-1.9,1.1-2.9c10.8-29.2,23.8-58.6,37.3-89.9
		c2.1-4.8,5.3-8.8,9-11.5c3.8-2.9,8.1-4.5,12.7-4.7c3.3-0.1,6.7-0.3,10-0.4l10-0.3c6.6-0.3,13.2-0.3,19.8-0.6
		c13.2-0.2,26.3-0.5,39.4-0.4c3.3-0.1,6.6-0.1,9.8,0l4.9,0.1h4.9c6.6,0.1,13.1,0.2,19.7,0.3l4.9,0.1l4.9,0.1
		c3.3,0.1,6.6,0.2,9.9,0.3c3.3,0.1,6.6,0.1,9.9,0.3c3.3,0.1,6.7,0.3,10,0.4c4.5,0.1,8.9,1.9,12.7,4.7c3.8,2.8,6.9,6.7,9,11.5
		c13.6,31.3,26.5,60.7,37.4,89.9C864,1404.9,864.4,1405.9,864.8,1407"/>
	<path class="st3" d="M265.7,1107.2c-20.3,27.3-39.4,53.3-59.2,77.2c-0.7,0.8-1.3,1.6-2,2.4c-22.3-25.2-42.8-52.1-61.6-80.7
		c-33.2-50.7-59.3-104.6-78.1-160.5c1.1-0.2,2.2-0.4,3.3-0.6c30.7-5.2,62.8-8.8,96.5-12.7c10.2-1.1,20.2,2.9,25,10.6
		c1.8,2.8,3.5,5.7,5.2,8.5c1.8,2.8,3.7,5.6,5.4,8.4c1.8,2.8,3.5,5.6,5.2,8.5l2.5,4.3l2.7,4.2c3.5,5.6,6.9,11.2,10.1,16.9
		c3.5,5.6,6.9,11.2,10.1,17c3.1,5.8,6.7,11.3,9.8,17.1c3.2,5.8,6.2,11.6,9.5,17.4c6.4,11.6,12.7,23.3,18.9,35.1
		C273.1,1088.3,271.9,1098.8,265.7,1107.2"/>
	<path class="st3" d="M268.3,370.2c-12.3,23.7-24.9,46.7-38,69.4c-1.7,2.8-3.3,5.7-4.9,8.5l-5,8.5c-3.2,5.7-6.8,11.3-10.1,17
		c-6.9,11.2-13.7,22.6-20.9,33.8c-2.4,3.9-6,6.8-10.4,8.7c-4.4,1.8-9.3,2.7-14.5,2.1c-16.9-1.9-33.4-3.8-49.5-5.8
		c-16-2-31.7-4.1-47-6.7c-1.1-0.2-2.1-0.4-3.2-0.5c29.7-89.8,76.9-171.6,139.1-241.5c0.7,0.8,1.4,1.7,2.1,2.5
		c19.8,23.9,39,50,59.2,77.3C271.3,351.7,272.6,362.3,268.3,370.2"/>
	<path class="st3" d="M863.9,43.2c-0.3,1-0.7,2-1.1,2.9c-5.4,14.6-11.4,29.3-17.6,44.2c-6.3,14.9-12.9,30-19.7,45.7
		c-4.2,9.6-12.6,15.8-21.7,16.2c-26.7,1-53,1.7-79.2,1.6c-13.1,0.1-26.2-0.2-39.4-0.4c-6.6-0.2-13.2-0.2-19.8-0.6l-9.9-0.3
		c-3.3-0.1-6.7-0.3-10-0.4c-4.5-0.1-8.9-1.9-12.7-4.7c-3.8-2.8-6.9-6.7-9-11.5c-13.6-31.3-26.5-60.7-37.4-89.9
		c-0.4-1-0.8-2.1-1.1-3.1C676,24.4,770.5,24.2,863.9,43.2"/>
	<path class="st3" d="M1385.2,504.4c-1.1,0.2-2.1,0.4-3.2,0.6c-30.7,5.3-62.6,8.8-96.5,12.7c-5.2,0.6-10.2-0.2-14.5-2
		c-4.4-1.8-8-4.8-10.4-8.6c-1.7-2.8-3.6-5.6-5.4-8.4l-5.2-8.4c-3.6-5.6-6.9-11.3-10.4-16.9c-3.4-5.6-6.8-11.3-10.2-16.9l-2.5-4.3
		l-2.6-4.2c-1.7-2.9-3.3-5.7-5-8.6l-9.8-17.1l-4.8-8.6c-1.6-2.9-3.3-5.7-4.9-8.6c-3.3-5.7-6.4-11.6-9.4-17.5l-1.1-2.2l-1.2-2.2
		l-2.4-4.4c-1.6-2.9-3.2-5.9-4.7-8.8c-2.1-4-2.8-8.7-2.1-13.4c0.5-4.6,2.3-9.3,5.4-13.5c20.2-27.3,39.3-53.3,59.2-77.3
		c0.7-0.8,1.4-1.7,2.1-2.5c22.2,25.2,42.8,52.1,61.6,80.7C1340.3,394.5,1366.4,448.5,1385.2,504.4"/>
	<path class="st3" d="M1385.2,944.9c-29.7,89.8-77,171.6-139.1,241.5c-0.7-0.8-1.4-1.7-2.1-2.5c-19.9-24-38.8-49.9-59.1-77.3
		c-3.1-4.2-5-8.9-5.5-13.6c-0.5-4.7,0.1-9.3,2.2-13.3c12.5-23.6,24.9-46.7,38.1-69.3c1.7-2.8,3.2-5.7,4.9-8.5c1.6-2.9,3.4-5.6,5-8.5
		c3.2-5.7,6.8-11.3,10.1-16.9c6.9-11.2,13.7-22.6,21-33.8c4.7-7.7,14.6-11.9,24.9-10.8c16.9,1.9,33.4,3.7,49.5,5.8
		c16,2,31.7,4.1,47,6.7C1383.1,944.5,1384.1,944.7,1385.2,944.9"/>
	<path class="st3" d="M655,282.1c-6.6,0-12.3-4.8-13.3-11.5c-1.1-7.4,3.9-14.2,11.3-15.4c23.6-3.6,47.7-5.4,71.6-5.4c0,0,0,0,0,0
		c21.2,0,42.6,1.4,63.6,4.3c7.4,1,12.6,7.8,11.6,15.2c-1,7.4-7.8,12.6-15.2,11.6c-19.8-2.7-40-4-60-4h0c-22.6,0-45.3,1.7-67.5,5.1
		C656.3,282.1,655.6,282.1,655,282.1z M1024,386.7c-3.1,0-6.2-1.1-8.7-3.2c-32.5-27.6-68.8-50.5-107.9-67.8c-6.8-3-9.9-11-6.9-17.8
		c3-6.8,11-9.9,17.8-6.9c41.5,18.4,80,42.6,114.5,72c5.7,4.8,6.4,13.3,1.5,19C1031.6,385.1,1027.8,386.7,1024,386.7z M419.4,392.5
		c-3.7,0-7.5-1.5-10.1-4.6c-4.9-5.6-4.4-14.1,1.2-19.1c17-14.9,35.2-28.8,54.2-41.3c18.8-12.3,38.6-23.4,58.8-32.9
		c6.8-3.2,14.8-0.3,17.9,6.5c3.2,6.8,0.3,14.8-6.5,18c-19.1,8.9-37.7,19.4-55.5,31c-18,11.8-35.2,24.9-51.2,39
		C425.8,391.4,422.6,392.5,419.4,392.5z M1166.9,604.6c-5.8,0-11.1-3.8-12.9-9.6c-12.4-40.7-30.6-79.6-54.1-115.5l-0.3-0.5
		c-4.1-6.2-2.4-14.6,3.9-18.7c6.2-4.1,14.6-2.4,18.7,3.9l0.3,0.5c24.9,38.1,44.2,79.3,57.3,122.5c2.2,7.1-1.9,14.7-9,16.8
		C1169.5,604.5,1168.2,604.6,1166.9,604.6z M280.9,612.5c-1.2,0-2.4-0.2-3.7-0.5c-7.2-2-11.3-9.5-9.3-16.7
		c12.4-43.7,30.8-85.2,54.9-123.5c4-6.3,12.3-8.2,18.6-4.2c6.3,4,8.2,12.3,4.2,18.6c-22.7,36.1-40.1,75.3-51.8,116.5
		C292.2,608.7,286.8,612.5,280.9,612.5z M1169,864.7c-1.2,0-2.5-0.2-3.7-0.5c-7.2-2-11.3-9.5-9.3-16.7c11.4-40,17.1-81.4,17.1-123
		c0-1.1,0-2.3,0-3.4c-0.1-7.5,5.9-13.5,13.4-13.6c0,0,0.1,0,0.1,0c7.4,0,13.4,6,13.5,13.4c0,1.2,0,2.4,0,3.6
		c0,44.1-6.1,87.9-18.2,130.3C1180.3,860.8,1174.9,864.7,1169,864.7z M283.2,872.6c-5.8,0-11.1-3.8-12.9-9.6
		c-13.2-43.3-20-88.3-20.4-133.7c-0.1-7.4,5.9-13.6,13.4-13.6c0,0,0.1,0,0.1,0c7.4,0,13.4,6,13.5,13.4c0.4,42.8,6.8,85.2,19.2,126.1
		c2.2,7.1-1.9,14.7-9,16.8C285.8,872.4,284.5,872.6,283.2,872.6z M1030.4,1084.7c-3.8,0-7.5-1.6-10.1-4.6
		c-4.9-5.6-4.4-14.1,1.2-19.1c32.1-28.2,59.9-60.9,82.7-97c4-6.3,12.3-8.2,18.6-4.2c6.3,4,8.2,12.3,4.2,18.6
		c-24.1,38.3-53.6,73-87.7,102.9C1036.7,1083.6,1033.5,1084.7,1030.4,1084.7z M425.8,1090.1c-3.1,0-6.2-1.1-8.7-3.2
		c-34.4-29.2-64.4-63.4-89.4-101.4c-4.1-6.2-2.3-14.6,3.9-18.7c6.2-4.1,14.6-2.3,18.7,3.9c23.6,35.9,51.9,68.1,84.3,95.7
		c5.7,4.8,6.4,13.3,1.5,19C433.4,1088.5,429.6,1090.1,425.8,1090.1z M794.7,1194.9c-6.6,0-12.3-4.8-13.3-11.5
		c-1.1-7.4,3.9-14.2,11.3-15.4c42.2-6.4,83.3-18.9,122-37.1c6.8-3.2,14.8-0.3,17.9,6.5c3.2,6.8,0.2,14.8-6.5,17.9
		c-41.1,19.2-84.6,32.5-129.4,39.3C796.1,1194.8,795.4,1194.9,794.7,1194.9z M663.4,1195.9c-0.6,0-1.2,0-1.8-0.1
		c-44.9-6.1-88.7-18.5-130.1-36.9c-6.8-3-9.9-11-6.8-17.8c3-6.8,11-9.9,17.8-6.8c39,17.4,80.3,29.1,122.7,34.8
		c7.4,1,12.6,7.8,11.6,15.2C675.8,1191,670,1195.9,663.4,1195.9"/>
	<path class="st4" d="M1406.1,867.1c-5.5,26.5-12.5,52.5-20.9,77.8c-29.7,89.8-77,171.6-139.1,241.5c-40.6,45.7-87.5,86.3-140,120.7
		c-74.7,48.9-156.5,82.4-241.4,99.9c-90.8,18.6-185.2,18.8-278.7-0.2c-1.1-0.2-2.1-0.4-3.2-0.6c-148.5-31-279.9-107.6-378.4-219.3
		c-22.3-25.2-42.8-52.1-61.6-80.7c-33.2-50.7-59.3-104.6-78.1-160.5C25.9,829.9,18.3,705.5,43.9,582.9c5.5-26.5,12.5-52.4,20.9-77.8
		c29.7-89.8,76.9-171.6,139.1-241.5c40.6-45.7,87.5-86.3,140-120.7C418.6,94,500.3,60.4,585.2,43c90.8-18.6,185.2-18.8,278.7,0.2
		c1.1,0.2,2.1,0.4,3.2,0.7c148.5,31,279.8,107.6,378.4,219.3c22.2,25.2,42.8,52.1,61.6,80.7c33.2,50.7,59.3,104.6,78.1,160.5
		C1424.1,620.1,1431.7,744.5,1406.1,867.1z"/>
	<path class="st3" d="M1303.9,763.6c-21.3,0-38.6-17.3-38.6-38.6c0-21.3,17.3-38.7,38.6-38.7s38.6,17.3,38.6,38.7
		C1342.6,746.3,1325.2,763.6,1303.9,763.6"/>
	<path class="st3" d="M146.1,763.6c-21.3,0-38.6-17.3-38.6-38.6c0-21.3,17.3-38.7,38.6-38.7c21.3,0,38.6,17.3,38.6,38.7
		C184.7,746.3,167.4,763.6,146.1,763.6"/>
	<path class="st3" d="M427.2,1276.1c-21.3,0-38.6-17.3-38.6-38.7c0-21.3,17.3-38.6,38.6-38.6s38.6,17.3,38.6,38.6
		C465.8,1258.8,448.5,1276.1,427.2,1276.1"/>
	<path class="st3" d="M427.2,251.2c-21.3,0-38.6-17.3-38.6-38.7c0-21.3,17.3-38.6,38.6-38.6s38.6,17.3,38.6,38.6
		C465.8,233.8,448.5,251.2,427.2,251.2"/>
	<path class="st3" d="M1022.8,1276.1c-21.3,0-38.6-17.3-38.6-38.7c0-21.3,17.3-38.6,38.6-38.6c21.3,0,38.7,17.3,38.7,38.6
		C1061.4,1258.8,1044.1,1276.1,1022.8,1276.1"/>
	<path class="st3" d="M1022.8,251.2c-21.3,0-38.6-17.3-38.6-38.7c0-21.3,17.3-38.6,38.6-38.6c21.3,0,38.7,17.3,38.7,38.6
		C1061.4,233.8,1044.1,251.2,1022.8,251.2"/>
	<path class="st3" d="M1058.4,506.7c120.6,184.1,69,431.1-115.1,551.7c-184.1,120.6-431.1,69-551.7-115.1
		c-120.6-184.1-69-431.1,115.1-551.7C690.8,271.1,937.8,322.6,1058.4,506.7"/>
	<path class="st5" d="M1059.6,742.9l-5.4-5.6c-8.3-8.5-17.3-16.4-26.1-23.7c-0.1-0.1-0.1-0.3,0-0.4c4.2-3.9,8.3-8,12.4-12.3l3.1-3.2
		l2.9-3.3c2-2.2,3.9-4.4,5.9-6.7l5-5.9c3.2-3.9,7.6-6.4,12.4-7.1c4.7-0.7,9.8,0.4,13.9,3.7c4,3.3,6.4,8.1,6.9,13
		c0.3,2.5-0.1,5-0.8,7.4c-0.8,2.4-2,4.7-3.7,6.6l-2.4,2.8c-0.4,0.4,0.1,1,0.6,0.8c4.8-2.7,9.6-5.2,14.2-9.7c0.2-0.2,0.5-0.1,0.5,0.1
		l0.6,11.4c0.1,3.8,0.1,7.6,0.2,11.4c0,0.3-0.3,0.4-0.5,0.2c-4.9-4.2-9.9-6.3-14.9-8.7c-0.5-0.2-0.9,0.4-0.6,0.8l2.6,2.6
		c3.7,3.7,5.6,8.7,5.5,13.7c-0.2,5-2.2,9.9-6,13.5c-1.9,1.8-4.1,3-6.4,3.8c-2.3,0.8-4.8,1.1-7.2,0.9c-2.4-0.2-4.7-0.8-6.9-1.8
		C1063.4,746.2,1061.4,744.8,1059.6,742.9"/>
	<path class="st5" d="M1087.1,825.3c-2.2-3.6-4.2-7.2-6.6-10.7c-2.3-3.5-4.7-7-7-10.4c-2.4-3.4-4.7-6.7-7.2-10
		c-2.5-3.3-5-6.5-7.6-9.6c-0.1-0.1-0.2-0.1-0.3-0.1c-3.5,2.1-7,4-10.4,5.9c-3.5,1.9-7.1,3.7-10.7,5.5c-3.6,1.8-7.1,3.4-10.6,5
		c-3.5,1.6-7.2,3.1-10.8,4.6c-0.1,0.1-0.2,0.2-0.1,0.3c4.6,6.2,9.2,12.7,13.4,19.3c4.2,6.7,8.5,13.6,12.2,20.7
		c0.1,0.1,0.2,0.1,0.3,0.1c7.8-2.7,15.2-5.8,22.8-9.2c7.7-3.3,15.1-7.1,22.6-11C1087.1,825.7,1087.2,825.5,1087.1,825.3"/>
	<path class="st5" d="M1054.1,643.4c1.5-2.5,3.1-5,4.6-7.5c1.8-3,3.6-6,5.3-9.1c1.6-3.1,3.3-6.2,4.9-9.3c1.6-3.2,3.2-6.4,4.8-9.6
		c1.6-3.2,2.9-6.5,4.4-9.8c0.1-0.1,0-0.3-0.1-0.4c-3.2-1.6-6.5-3.2-9.7-4.8l-4.8-2.3l-4.9-2.1c-6.6-2.8-13-5.4-19.5-7.7
		c-2.8-1-5.6-1.9-8.4-2.8c-5.5-1.8-11.1-1.1-16,1.4c-2.4,1.2-4.7,2.9-6.5,4.9c-1.9,2-3.4,4.2-4.4,6.7c-1.1,2.5-1.6,5.1-1.5,7.4
		c-0.1,2.4,0.4,4.8,1.3,6.9c1.8,4.3,5.6,7.7,10.6,9.7c2.5,0.9,5.1,1.9,7.6,3c0.1,0.1,0.2,0.2,0.1,0.4c-1.3,2.4-2.6,4.8-3.9,7.1
		c-2.8,4.8-3.4,9.8-2,14.2c0.8,2.2,1.7,4.3,3.3,6.2c1.5,1.9,3.6,3.5,6,4.7c2.5,1.2,5.1,2,7.8,2.4
		C1040.9,654,1049.7,650.7,1054.1,643.4"/>
	<path class="st5" d="M997.1,943.2c-3.5-2.9-5.6-7-6.2-11.1c-0.3-2.1-0.2-4.1,0.2-6.1c0.2-1,0.6-2,1-2.9c0.4-1,0.9-1.9,1.5-2.8
		c1.2-1.7,2.6-3.1,4.3-4.2c0.2-0.1,0-0.5-0.2-0.4c-4.6,1.1-9.6,0.2-13.8-2.8c-3.8-2.7-6.3-6.6-7.3-10.5c-0.5-2-0.7-4-0.4-5.9
		c0.1-1,0.4-1.9,0.7-2.8c0.3-0.9,0.7-1.8,1.2-2.7c2.1-3.5,5.7-5.6,9.8-6.3c4.1-0.7,8.5-0.1,12.7,2.3c2.3,1.3,4.1,3.1,5.6,5.1
		c1.4,2,2.4,4.3,2.7,6.6c0,0.2,0.4,0.3,0.5,0c0.4-1.9,1-3.9,2.1-5.6c2.2-3.7,5.8-6.1,9.9-7.2c4.1-1.1,8.5-0.8,12.6,1.2
		c4.2,2.1,7.2,5.9,8.5,10.1c1.2,4.2,0.7,9.1-1.8,13.4c-0.7,1.2-1.5,2.3-2.4,3.3c-0.9,0.9-2,1.8-3.1,2.5c-2.2,1.4-4.6,2.3-7.1,2.6
		c-0.5,0.1-0.6,0.7-0.1,0.9c4.1,1.5,8.5,2.2,13,1.9c1-0.1,2.1-0.2,3.2-0.4c0.3,0,0.4,0.2,0.3,0.4c-3.8,5.9-7.4,11.9-11.5,17.5
		c-0.1,0.2-0.4,0.1-0.4-0.1c-0.3-1.1-0.6-2.1-0.9-3.1c-1.5-4.2-3.8-8-6.9-11.1c-0.3-0.3-0.9,0-0.7,0.5c1.4,4.8,0.6,10.3-2.7,14.8
		c-2.8,4.1-7.2,6.3-11.6,6.9C1005.3,947.4,1000.8,946.2,997.1,943.2"/>
	<path class="st5" d="M811.1,1048.4l3.7-6.8c2.7-5.4,5.3-10.8,7.7-16.1c1.2-2.7,2.4-5.3,3.5-8c1.1-2.7,2.1-5.5,3.2-8.2
		c0.1-0.2,0.2-0.2,0.4-0.1c10.2,5.8,20.7,10.6,31.8,15.4c2.4,1,4.7,1.9,7.1,2.8c9.4,3.6,15,14,11.4,24c-0.9,2.5-2.3,4.7-4,6.5
		c-1.8,1.8-3.9,3.2-6.2,4.1c-4.6,1.9-9.9,2.3-14.8,0.1l-3.4-1.5c-0.5-0.2-0.9,0.4-0.5,0.8c4.1,3.7,8,7.7,13.7,10.6
		c0.2,0.1,0.3,0.4,0,0.5c-3.5,1.4-7.1,2.7-10.6,4l-5.3,2c-1.8,0.7-3.6,1.3-5.4,1.8c-0.2,0.1-0.4-0.1-0.3-0.4
		c0.6-1.5,1.1-2.9,1.5-4.3c0.4-1.5,0.7-2.9,0.9-4.3c0.5-2.8,0.8-5.6,1.1-8.3c0.1-0.5-0.7-0.8-0.9-0.2l-1.6,3.3
		c-0.6,1.2-1.3,2.3-2.1,3.3c-0.8,1-1.7,1.8-2.7,2.6c-1.9,1.6-4.2,2.8-6.6,3.5c-2.4,0.7-4.9,1.1-7.4,0.8c-2.5-0.3-5-1.1-7.3-2.4
		C808.7,1068.9,806.2,1057.2,811.1,1048.4"/>
	<path class="st5" d="M741.2,1100.1c2.8-3.2,5.5-6.5,8.2-9.7c2.6-3.3,5.2-6.4,7.7-9.8c5-6.7,9.7-13.3,14.1-20.1
		c0.1-0.1,0.1-0.2,0-0.3c-6.1-5.3-11.9-11-17.4-16.6c-2.8-2.7-5.4-5.8-8.1-8.6c-2.6-2.9-5.2-5.8-7.6-8.8c-0.1-0.1-0.2-0.1-0.3,0
		c-2.2,3.3-4.5,6.2-6.9,9.4c-2.4,3.1-4.8,6.2-7.3,9.3c-2.5,3.2-5.1,6.1-7.8,9c-2.7,3-5.4,5.9-8.2,8.9c-0.1,0.1-0.1,0.2,0,0.3
		c2.5,3.2,5,6.3,7.7,9.5c2.6,3.2,5.3,6.4,8.1,9.4c2.8,3,5.6,6.1,8.5,9.1c2.9,3,5.9,6.1,8.9,9
		C740.9,1100.2,741.1,1100.2,741.2,1100.1"/>
	<path class="st5" d="M904,1012.3c2.8,0.7,5.7,1.4,8.6,2.1c6.8,1.6,13.6,2.7,20.6,3.9c7.1,1.2,14.1,2,21.3,2.7
		c0.2,0,0.3-0.1,0.3-0.3c0.6-3.6,1.1-7.1,1.6-10.6c0.4-3.6,0.8-7.2,1.1-10.7c0.3-3.5,0.6-7,0.9-10.5c0.1-1.7,0.2-3.5,0.3-5.2
		l0.2-5.3c0.1-3,0.1-5.9,0.2-8.9c0-5.7-2.4-10.9-6.2-14.7c-1.9-1.9-4.2-3.6-6.6-4.7c-2.4-1.2-5.1-1.9-7.8-2.2
		c-10.9-0.9-19.3,6.2-19.7,17.3c-0.1,2.7-0.3,5.4-0.5,8.1c0,0.1-0.1,0.2-0.3,0.2c-2.7-0.5-5.4-1-8-1.6c-1.3-0.3-2.6-0.4-3.9-0.4
		c-1.3,0-2.6,0-3.8,0.2c-2.4,0.4-4.6,1.3-6.5,2.6c-1.9,1.3-3.5,3.1-4.8,5.2c-1.3,2-2.2,4.4-2.7,7.1c-0.4,2.7-0.4,5.4,0.1,8.1
		C889.9,1003.1,895.6,1010.2,904,1012.3"/>
	<path class="st5" d="M601.3,1050.8c1.7-4.2,4.9-7.4,8.6-9.3c3.8-1.9,8.1-2.5,12.2-1.2c2,0.6,3.7,1.7,5.3,2.8
		c0.2,0.2,0.5-0.1,0.3-0.3c-2.5-3.9-3.1-9.1-1.6-14.1c1.4-4.5,4.3-8,7.7-10.1c3.5-2.3,7.5-3.2,11.4-2.1c3.9,1.1,7.1,3.7,9,7.3
		c1.9,3.6,2.7,8.2,1.7,12.8c-1.1,5.1-4.3,9.2-8.5,11.5c-0.2,0.1-0.1,0.5,0.1,0.4c2-0.3,4-0.2,6,0.3c4.1,1.2,7.6,3.6,9.9,7.1
		c2.3,3.5,3.4,7.9,2.7,12.4c-0.7,4.7-3.3,8.6-7,11.1c-3.7,2.5-8.5,3.7-13.2,2.5c-5.4-1.3-9.7-4.8-11.8-9.4c-0.2-0.4-0.8-0.3-0.8,0.1
		c-0.2,4.4,0.5,8.8,2.2,12.9c0.4,1,0.8,1.9,1.4,2.9c0.1,0.2,0,0.4-0.2,0.4l-5.1-1.2c-1.7-0.4-3.4-0.9-5-1.4l-10.1-2.9
		c-0.2-0.1-0.2-0.3,0-0.5c0.9-0.6,1.8-1.2,2.6-1.9c3.6-2.8,6.4-6.2,8.5-10.1c0.2-0.4-0.3-0.8-0.7-0.6c-4.1,2.8-9.7,4-15,2.1
		c-4.7-1.6-8.3-4.8-10.2-8.8C599.8,1059.9,599.6,1055.2,601.3,1050.8"/>
	<path class="st5" d="M443.8,906.4c2.5,0.5,5.1,0.9,7.6,1.3c6,0.9,11.9,1.7,17.7,2.4c5.8,0.6,11.8,1,17.5,1.3c0.2,0,0.3,0.1,0.2,0.3
		c-0.6,2.8-1.2,5.8-1.6,8.6c-0.4,2.8-0.9,5.7-1.3,8.6c-0.4,2.9-0.8,5.9-1.1,8.8c-0.4,3-0.7,6-0.9,8.9l-0.5,7.7
		c-0.6,10.1-8.8,18.6-19.3,18.2c-10.6-0.3-18.8-10.1-18-20.4l0.4-3.7c0.1-0.6-0.7-0.8-0.9-0.3c-1.2,2.5-2.4,5-3.4,7.7
		c-1,2.6-1.9,5.4-2.4,8.6c0,0.3-0.3,0.4-0.5,0.2c-1.2-1.5-2.5-2.9-3.6-4.4l-3.5-4.5l-6.9-9c-0.2-0.2,0-0.4,0.3-0.4
		c6.5,0.5,11.8-0.8,17.2-1.8c0.5-0.1,0.5-0.9,0-0.9l-3.6-0.5c-2.6-0.4-5-1.3-7.2-2.6c-2.1-1.4-3.9-3.2-5.3-5.2
		c-1.4-2.1-2.5-4.4-3-6.8c-0.6-2.4-0.7-5-0.1-7.6C423.7,910.4,434,904.5,443.8,906.4"/>
	<path class="st5" d="M373,856c3.9,1.7,7.7,3.3,11.6,4.8c4,1.5,7.9,2.9,11.8,4.3c3.9,1.4,7.8,2.7,11.6,3.9c4,1.2,7.9,2.3,11.8,3.3
		c0.1,0,0.2,0,0.3-0.2c1.6-3.7,3.2-7.4,4.9-10.9c1.8-3.6,3.6-7.2,5.4-10.7c1.8-3.5,3.7-6.9,5.6-10.3c1.9-3.4,4-6.8,6-10
		c0.1-0.1,0-0.3-0.1-0.3c-3.7-1.1-7.4-2.3-11.1-3.6c-3.8-1.3-7.3-2.7-11-4.1c-7.3-2.9-14.9-6-22-9.6c-0.1-0.1-0.2,0-0.3,0.1
		c-4.7,6.7-8.8,13.6-13,20.8c-2,3.6-4.2,7.3-6.1,11c-1.9,3.7-3.8,7.4-5.7,11.3C372.8,855.7,372.9,855.9,373,856"/>
	<path class="st5" d="M506.7,983.7c0.2,2.9,0.4,5.9,0.7,8.8c0.7,6.8,1.6,13.8,2.6,20.9c1.2,6.9,2.5,13.9,4,21.1
		c0,0.2,0.2,0.3,0.4,0.2c14.4-2.4,28.1-5.3,41.5-9.3c2.8-0.8,5.6-1.6,8.4-2.5c5.5-1.8,9.7-5.8,12.2-10.6c1.2-2.4,2.1-5.1,2.4-7.8
		c0.3-2.7,0.2-5.4-0.4-8c-1.2-5.4-4.2-9.5-8.2-11.8c-4-2.4-8.9-3.2-14.3-1.6c-2.6,0.7-5.3,1.5-7.9,2.1c-0.2,0-0.3-0.1-0.3-0.2
		c-0.3-2.7-0.6-5.5-0.9-8.2c-0.3-2.7-1.1-5.2-2.2-7.3c-1.2-2.1-2.7-4-4.5-5.4c-3.6-2.9-8.7-4-14-3.3c-2.7,0.4-5.2,1.3-7.6,2.6
		C511.2,967.4,506.2,975,506.7,983.7"/>
	<path class="st5" d="M376.7,707.7c4.5,0.3,8.6,2.3,11.5,5.3c2.9,3,4.6,6.9,4.8,11.2c0.1,2.1-0.3,4.1-1,5.9
		c-0.1,0.2,0.2,0.4,0.4,0.2c3.1-3.6,7.6-5.8,12.8-5.8c4.7,0,9,1.6,12.1,4.2c3.2,2.6,5.1,6.2,5.4,10.2c0.3,4.1-1.4,7.9-4.3,10.9
		c-2.8,3-6.9,5.1-11.6,5.6c-5.2,0.5-10.2-1.2-13.6-4.6c-0.2-0.2-0.5,0-0.4,0.2c0.8,1.8,1.5,3.7,1.6,5.8c0.4,4.3-1.1,8.4-3.8,11.6
		c-2.6,3.2-6.4,5.7-10.9,6.4c-4.7,0.8-9.3-0.5-12.8-3.2c-3.4-2.7-5.8-7-6.4-11.9c-0.7-5.6,1.7-10.7,5.3-14.1c0.4-0.3,0-0.9-0.4-0.8
		c-4.2,1.2-8.2,3.2-11.6,6.1c-0.8,0.7-1.6,1.4-2.4,2.2c-0.2,0.2-0.4,0.1-0.4-0.1l-0.6-10.4l-0.3-5.2l-0.1-5.2c0-0.2,0.2-0.3,0.4-0.2
		c0.8,0.7,1.7,1.4,2.5,1.9c3.7,2.6,7.8,4.2,12.1,5c0.5,0.1,0.7-0.5,0.3-0.8c-4-3-6.5-8-6.6-13.6c-0.1-4.9,2.1-9.3,5.3-12.4
		C367.6,709,372,707.4,376.7,707.7"/>
	<path class="st5" d="M465.3,513.2l1.1,7.7c0.5,3,0.9,5.9,1.4,8.8c0.3,1.5,0.5,2.9,0.8,4.3l0.9,4.4c1.3,5.8,2.6,11.4,4.1,17
		c0.1,0.2-0.1,0.3-0.2,0.3c-11.3,1.5-23.1,3.4-34.7,6.3l-7.5,1.9c-2.5,0.6-5,0.8-7.3,0.5c-2.4-0.3-4.7-1-6.8-2.1
		c-2.1-1.1-4-2.6-5.6-4.5c-1.6-1.9-2.8-4.1-3.5-6.6c-1.4-5-0.5-10.3,2-14.6c2.5-4.3,6.9-7.5,11.9-8.7l3.6-0.8c0.5-0.1,0.5-0.9,0-1
		c-5.5-0.6-10.8-1.5-17.2-0.5c-0.3,0-0.4-0.2-0.3-0.4l6.1-9.6l6.6-9.3c0.1-0.2,0.4-0.1,0.5,0.1c1.5,6.3,4.4,10.9,6.9,15.8
		c0.3,0.5,1,0.2,0.9-0.3l-0.6-3.6c-0.8-5.1,0.5-10.4,3.5-14.4c3.1-3.9,7.6-6.8,12.8-7.4c2.6-0.3,5.1-0.1,7.4,0.7
		c2.3,0.8,4.5,1.9,6.3,3.5c1.8,1.5,3.4,3.4,4.5,5.5C464.1,508.3,464.9,510.6,465.3,513.2"/>
	<path class="st5" d="M491.5,430.3l-0.6,6.3l-0.4,6.3c-0.2,4.2-0.4,8.4-0.5,12.5c-0.3,8.1,0,16.5,0.4,24.6c0,0.1,0.1,0.2,0.2,0.2
		c8.1,0.8,15.9,1.7,23.8,3.2c3.9,0.7,7.8,1.4,11.6,2.2l5.7,1.2l5.7,1.4c0.1,0,0.2-0.1,0.2-0.2c0-3.8,0-7.7,0.1-11.7
		c0.1-3.9,0.2-7.9,0.5-11.8c0.6-7.8,1.3-15.9,2.3-23.9c0-0.1-0.1-0.2-0.2-0.3c-7.8-2.2-15.6-4.1-23.8-6c-4.1-0.9-8.1-1.6-12.2-2.4
		c-4.1-0.7-8.3-1.4-12.5-2C491.7,430.1,491.5,430.2,491.5,430.3"/>
	<path class="st5" d="M411.3,597c-2.7,1.1-5.4,2.2-8.1,3.4c-3.2,1.4-6.4,2.8-9.6,4.3c-3.1,1.5-6.3,3.1-9.4,4.7
		c-3.1,1.6-6.3,3.3-9.5,5c-3.2,1.7-6.2,3.5-9.3,5.4c-0.2,0.1-0.2,0.3-0.1,0.4c6.5,12.9,13.9,25.1,21.6,36.5c1.7,2.5,3.4,4.9,5.1,7.2
		c3.4,4.7,8.3,7.4,13.7,8.3c2.7,0.4,5.5,0.4,8.2-0.1c2.7-0.5,5.2-1.4,7.6-2.8c4.7-2.8,7.5-7,8.7-11.5c1.1-4.5,0-9.6-2.9-14.1
		c-1.5-2.3-2.9-4.6-4.4-6.9c-0.1-0.1,0-0.3,0.1-0.4c2.5-1.2,4.9-2.3,7.4-3.5c5.1-2.2,8.6-5.9,10-10.4c1.5-4.4,1.4-9.4-1.1-14.3
		c-1.2-2.4-3-4.7-4.9-6.5c-3-2.8-6.7-4.8-10.6-5.7c-2-0.4-4.1-0.6-6.1-0.5C415.3,595.7,413.3,596.1,411.3,597"/>
	<path class="st5" d="M633.6,387.9c1.1,4.4,0.4,8.9-1.5,12.5c-1.9,3.8-5.1,6.8-9.1,8.1c-2,0.7-4,0.8-6,0.8c-0.2,0-0.3,0.4-0.1,0.5
		c4.3,1.7,7.9,5.6,9.5,10.4c1.5,4.4,1.2,9-0.3,12.7c-1.5,3.9-4.2,7-7.9,8.4c-1.9,0.8-3.9,0.9-5.8,0.9c-2-0.1-3.9-0.6-5.8-1.5
		c-3.7-1.8-7-5-8.9-9.4c-2.1-4.8-2-10,0.1-14.3c0.1-0.2-0.2-0.5-0.4-0.3c-1.4,1.4-3.1,2.5-5,3.3c-2,0.8-4.1,1.1-6.1,1.1
		c-2.1,0-4.1-0.3-6.1-1.1c-3.9-1.5-7.4-4.4-9.5-8.4c-2.2-4.2-2.4-8.9-0.9-13.1c0.8-2.1,1.9-4.1,3.5-5.8c1.6-1.7,3.5-3,5.8-4
		c5.2-2.2,10.7-1.9,15.1,0.6c0.4,0.2,0.9-0.2,0.6-0.6c-2.4-3.7-5.6-6.8-9.4-9.2c-0.9-0.5-1.8-1.1-2.8-1.5c-0.2-0.1-0.2-0.4,0-0.5
		l4.8-2l4.9-1.8l9.8-3.6c0.2-0.1,0.4,0.1,0.3,0.4c-0.4,1-0.8,2.1-1,3.1c-1.3,4.4-1.6,8.8-0.9,13.1c0.1,0.5,0.7,0.5,0.9,0.1
		c1.6-4.7,5.5-9,10.8-10.5c4.7-1.5,9.5-1,13.4,1.1C629.4,379.6,632.4,383.4,633.6,387.9"/>
	<path class="st5" d="M845.9,412.2l-6.9,3.3c-5.4,2.7-10.6,5.6-15.7,8.5c-5.1,2.8-10.1,6-14.9,9.2c-0.1,0.1-0.3,0.1-0.4-0.1
		c-2.4-5.2-5-10.6-7.8-15.7c-2.8-5.1-5.7-10.4-8.9-15.5l-4.1-6.5c-5.5-8.4-3.8-20.2,4.9-26c2.2-1.5,4.6-2.4,7.1-2.9
		c2.5-0.4,5-0.3,7.4,0.3c2.4,0.6,4.8,1.6,6.8,3c1,0.7,2,1.5,2.9,2.4c0.9,0.9,1.6,2,2.3,3.2l1.9,3.2c0.3,0.5,1,0.2,0.9-0.3
		c-0.6-2.7-1-5.4-1.7-8.2c-0.7-2.8-1.6-5.6-3.1-8.4c-0.1-0.2,0-0.5,0.3-0.4c1.8,0.4,3.7,0.9,5.5,1.4l5.5,1.6l5.5,1.6
		c1.8,0.5,3.6,1,5.4,1.7c0.2,0.1,0.3,0.4,0,0.5c-2.7,1.6-5,3.5-7.1,5.5c-2,2-3.9,4-5.8,6.1c-0.4,0.4,0.1,1,0.6,0.7l3.3-1.7
		c1.2-0.6,2.4-1.1,3.6-1.5c1.2-0.3,2.5-0.5,3.7-0.6c2.5-0.1,5,0.2,7.4,1c2.4,0.8,4.6,2,6.5,3.7c1.9,1.7,3.4,3.8,4.5,6.2
		C859.8,397.1,855,407.9,845.9,412.2"/>
	<path class="st5" d="M932.9,411.4c-8.4,2-16.4,4-24.3,6.4c-8,2.5-15.7,5.1-23.2,8c-0.1,0-0.2,0.2-0.2,0.3
		c1.7,7.9,3.1,15.9,4.4,23.6c1.1,7.8,1.9,15.7,2.5,23.3c0,0.1,0.1,0.2,0.3,0.2c7.3-2.5,14.7-4.7,22.4-6.7c3.9-1.1,7.7-1.9,11.6-2.8
		c3.9-0.8,7.9-1.6,11.9-2.4c0.1,0,0.2-0.1,0.2-0.3c-0.2-4-0.4-8.1-0.6-12.2c-0.3-4.1-0.6-8.3-1-12.3c-0.9-8.1-2-16.6-3.5-24.9
		C933.2,411.4,933,411.3,932.9,411.4"/>
	<path class="st5" d="M749.6,386.7c-1.9-2.3-3.8-4.6-5.7-6.7c-4.6-5.1-9.4-10.3-14.4-15.4c-5-4.9-10.2-9.8-15.6-14.7
		c-0.1-0.1-0.3-0.1-0.5,0c-5.1,5.1-10,10.4-14.7,15.7c-1.2,1.3-2.3,2.6-3.5,3.9l-3.4,4.1c-2.2,2.7-4.4,5.4-6.5,8.2
		c-1.8,2.3-3.6,4.6-5.3,7c-3.4,4.7-4.5,10.4-3.6,15.7c0.4,2.7,1.3,5.3,2.6,7.7c1.3,2.4,3,4.5,5,6.2c4.1,3.6,9,5.3,13.6,4.7
		c2.3-0.3,4.6-0.9,6.7-2.1c2.1-1.2,4.1-2.8,5.8-5c1.7-2.1,3.4-4.3,5.2-6.4c0.1-0.1,0.3-0.1,0.4,0c1.9,2,3.8,4.1,5.6,6.1
		c3.7,4.1,8.3,6,12.9,6.3c2.3,0.1,4.7-0.3,6.9-1.3c1.1-0.5,2.2-1.1,3.3-1.8c1.1-0.7,2.1-1.5,3.1-2.4c1.9-1.9,3.5-4.1,4.6-6.6
		C755.5,402.6,755.1,393.4,749.6,386.7"/>
	<path class="st5" d="M1017,533.5c-3.9,2.5-8.4,3.2-12.5,2.5c-4.2-0.7-7.9-2.8-10.4-6.3c-1.2-1.7-2.2-3.5-2.7-5.4
		c-0.1-0.2-0.4-0.2-0.5,0.1c-0.3,4.6-2.7,9.1-6.9,12.2c-1.9,1.4-3.9,2.4-6,3c-2.1,0.6-4.2,0.8-6.3,0.7c-4.1-0.2-7.9-1.9-10.4-5
		c-1.2-1.6-2.2-3.4-2.7-5.3c-0.5-1.9-0.6-3.9-0.3-6c0.6-4.1,2.7-8.2,6.2-11.4c3.9-3.5,8.9-4.9,13.6-4.2c0.3,0,0.4-0.3,0.2-0.4
		c-1.7-0.9-3.3-2.2-4.6-3.8c-1.3-1.7-2.4-3.5-3-5.4c-0.6-2-0.9-4-0.8-6.1c0.2-4.2,1.9-8.4,5.2-11.6c3.4-3.4,7.8-5,12.2-4.8
		c2.2,0.1,4.4,0.6,6.5,1.6c2.1,0.9,4.1,2.3,5.7,4.2c3.6,4.2,5,9.7,4,14.5c-0.1,0.5,0.5,0.7,0.8,0.4c2.7-3.4,4.7-7.3,5.8-11.7
		c0.2-1,0.5-2.1,0.6-3.1c0-0.2,0.3-0.3,0.4-0.2l3.4,4c1.1,1.3,2.3,2.6,3.3,4.1l6.4,8.3c0.1,0.2,0,0.4-0.3,0.4
		c-1.1-0.1-2.2-0.1-3.2-0.1c-4.5,0.1-8.8,1.2-12.7,3.1c-0.4,0.2-0.3,0.8,0.2,0.8c5,0.1,10.1,2.5,13.4,7c2.8,4.1,3.8,8.8,3,13.2
		C1023.6,527.1,1021,531,1017,533.5"/>
	<path class="st6" d="M532.6,811.6c-4.6,0-8.8-0.9-12.7-2.8c-3.9-1.9-5.8-4.8-5.8-8.6V678.9l-6.9,4.3c-1.1,0.6-2.2,1.1-3.2,1.4
		c-1,0.3-1.9,0.5-2.7,0.5c-3.5,0-6.3-1.6-8.5-4.6c-2.1-3.1-3.2-6.5-3.2-10.1c0-2.5,0.6-4.9,1.7-7.1c1.1-2.2,2.9-4,5.2-5.5l31.4-19.1
		c0.9-0.6,2-1.1,3.2-1.3c1.2-0.2,2.4-0.4,3.7-0.4c3.8,0,7.5,1,11.1,3.1c3.6,2.1,5.4,4.9,5.4,8.6v151.4c0,3.8-1.9,6.7-5.8,8.6
		C541.4,810.6,537.2,811.6,532.6,811.6"/>
	<path class="st6" d="M631.2,737.5c-3.8,0-6.8-1.2-8.9-3.4c-2.1-2.3-3.2-5.3-3.2-8.9c0-3.5,1.1-6.3,3.2-8.5c2.1-2.1,5.1-3.2,8.9-3.2
		c3.7,0,6.6,1.1,8.7,3.2c2.1,2.1,3.2,5,3.2,8.5c0,3.6-1.1,6.6-3.2,8.9C637.7,736.3,634.8,737.5,631.2,737.5z M630.9,780.6
		c6.7,0,11.9-1.9,15.7-5.7c3.8-3.8,5.7-9.8,5.7-18.1v-63.1c0-8.3-1.9-14.3-5.7-18.1c-3.8-3.8-9-5.7-15.7-5.7s-11.9,1.9-15.6,5.7
		c-3.7,3.8-5.6,9.8-5.6,18.1v63.1c0,8.3,1.9,14.3,5.6,18.1C619.1,778.7,624.3,780.6,630.9,780.6z M630.9,813
		c-10.9,0-20.8-1.8-29.6-5.5c-8.8-3.6-15.8-9.6-21-17.9c-5.2-8.3-7.7-19.2-7.7-32.9v-63.1c0-13.7,2.6-24.6,7.7-32.9
		c5.2-8.2,12.1-14.2,21-17.9c8.8-3.7,18.7-5.5,29.6-5.5c11,0,20.9,1.8,29.8,5.5c8.9,3.7,15.9,9.6,21.1,17.9
		c5.2,8.3,7.7,19.2,7.7,32.9v63.1c0,13.7-2.6,24.6-7.7,32.9c-5.2,8.2-12.2,14.2-21.1,17.9S641.9,813,630.9,813"/>
	<path class="st6" d="M766.7,737.5c-3.8,0-6.8-1.2-8.9-3.4c-2.1-2.3-3.2-5.3-3.2-8.9c0-3.5,1.1-6.3,3.2-8.5c2.1-2.1,5.1-3.2,8.9-3.2
		c3.7,0,6.6,1.1,8.7,3.2c2.1,2.1,3.2,5,3.2,8.5c0,3.6-1.1,6.6-3.2,8.9C773.2,736.3,770.3,737.5,766.7,737.5z M766.4,780.6
		c6.7,0,11.9-1.9,15.7-5.7c3.8-3.8,5.7-9.8,5.7-18.1v-63.1c0-8.3-1.9-14.3-5.7-18.1c-3.8-3.8-9-5.7-15.7-5.7s-11.9,1.9-15.6,5.7
		c-3.7,3.8-5.6,9.8-5.6,18.1v63.1c0,8.3,1.9,14.3,5.6,18.1C754.6,778.7,759.8,780.6,766.4,780.6z M766.4,813
		c-11,0-20.8-1.8-29.6-5.5c-8.8-3.6-15.8-9.6-21-17.9c-5.2-8.3-7.7-19.2-7.7-32.9v-63.1c0-13.7,2.6-24.6,7.7-32.9
		c5.2-8.2,12.1-14.2,21-17.9c8.8-3.7,18.7-5.5,29.6-5.5c10.9,0,20.9,1.8,29.8,5.5c8.9,3.7,15.9,9.6,21.1,17.9
		c5.2,8.3,7.7,19.2,7.7,32.9v63.1c0,13.7-2.6,24.6-7.7,32.9c-5.2,8.2-12.2,14.2-21.1,17.9C787.3,811.2,777.4,813,766.4,813"/>
	<path class="st6" d="M902.2,737.5c-3.8,0-6.8-1.2-8.9-3.4c-2.1-2.3-3.2-5.3-3.2-8.9c0-3.5,1.1-6.3,3.2-8.5c2.1-2.1,5.1-3.2,8.9-3.2
		c3.6,0,6.5,1.1,8.7,3.2c2.1,2.1,3.2,5,3.2,8.5c0,3.6-1.1,6.6-3.2,8.9C908.7,736.3,905.8,737.5,902.2,737.5z M901.9,780.6
		c6.7,0,11.9-1.9,15.7-5.7c3.8-3.8,5.7-9.8,5.7-18.1v-63.1c0-8.3-1.9-14.3-5.7-18.1c-3.8-3.8-9-5.7-15.7-5.7s-11.9,1.9-15.6,5.7
		c-3.7,3.8-5.6,9.8-5.6,18.1v63.1c0,8.3,1.9,14.3,5.6,18.1C890.1,778.7,895.3,780.6,901.9,780.6z M901.9,813
		c-11,0-20.8-1.8-29.6-5.5c-8.8-3.6-15.8-9.6-21-17.9c-5.2-8.3-7.7-19.2-7.7-32.9v-63.1c0-13.7,2.6-24.6,7.7-32.9
		c5.2-8.2,12.1-14.2,21-17.9c8.8-3.7,18.7-5.5,29.6-5.5c10.9,0,20.9,1.8,29.8,5.5c8.9,3.7,15.9,9.6,21.1,17.9
		c5.2,8.3,7.7,19.2,7.7,32.9v63.1c0,13.7-2.6,24.6-7.7,32.9c-5.2,8.2-12.2,14.2-21.1,17.9C922.8,811.2,912.9,813,901.9,813"/>
</g>
</svg>
