<?xml version="1.0" encoding="utf-8"?>
<!-- Generator: Adobe Illustrator 27.3.1, SVG Export Plug-In . SVG Version: 6.00 Build 0)  -->
<svg version="1.1" id="Calque_1" xmlns="http://www.w3.org/2000/svg" xmlns:xlink="http://www.w3.org/1999/xlink" x="0px" y="0px"
	 viewBox="0 0 1450 1450" style="enable-background:new 0 0 1450 1450;" xml:space="preserve">
<style type="text/css">
	.st0{clip-path:url(#SVGID_00000138545338912840482790000015372275742341508749_);}
	.st1{clip-path:url(#SVGID_00000002360706105081192800000003264953047182794124_);}
	.st2{clip-path:url(#SVGID_00000142857360527609983560000007498384453833353136_);}
	.st3{fill:url(#SVGID_00000132772863331645345800000001713894976343163011_);}
	.st4{fill:#FFFFFF;}
	.st5{fill:none;stroke:#012450;stroke-width:15.8759;stroke-miterlimit:1;}
	.st6{fill:#012450;}
	.st7{fill:#3C3C3B;}
</style>
<g>
	<g>
		<defs>
			<rect id="SVGID_1_" x="29" y="28.5" width="1392" height="1393"/>
		</defs>
		<clipPath id="SVGID_00000003091449409679467340000009321170514694822784_">
			<use xlink:href="#SVGID_1_"  style="overflow:visible;"/>
		</clipPath>
		<g style="clip-path:url(#SVGID_00000003091449409679467340000009321170514694822784_);">
			<g>
				<defs>
					<path id="SVGID_00000162334133065055372120000003019167714669213353_" d="M1242.4,1190.1c-39.3,43.7-84.8,83-136.3,116.7
						c-30.3,19.9-61.6,37-93.6,51.6c-184.6,84-392.4,81-570.2,2.1c-86.1-38.2-165.2-94.1-231.2-166.6
						c-24.7-27.1-47.5-56.5-68.2-88.1C51.5,966.3,16.8,806.1,33,652.3c10-95,39.4-187.5,86.9-271.3c52.8-93.2,128.1-175.6,224-238.4
						C418.1,94,498.1,61.4,580,44c94.7-20.2,191.8-20,284.9-0.9c175.2,35.9,336.5,139,442.2,300.4c7.1,10.9,13.9,21.8,20.3,32.9
						c49.5,85.5,78.8,177.7,89.2,270.7C1438.3,842.3,1376.5,1041.2,1242.4,1190.1z"/>
				</defs>
				<clipPath id="SVGID_00000126292594298440970420000011886814459632861347_">
					<use xlink:href="#SVGID_00000162334133065055372120000003019167714669213353_"  style="overflow:visible;"/>
				</clipPath>
				<g style="clip-path:url(#SVGID_00000126292594298440970420000011886814459632861347_);">
					<g>
						<defs>
							<path id="SVGID_00000122679595775762557140000014027108106311525001_" d="M1242.4,1190.1c-39.3,43.7-84.8,83-136.3,116.7
								c-30.3,19.9-61.6,37-93.6,51.6c-184.6,84-392.4,81-570.2,2.1c-86.1-38.2-165.2-94.1-231.2-166.6
								c-24.7-27.1-47.5-56.5-68.2-88.1C51.5,966.3,16.8,806.1,33,652.3c10-95,39.4-187.5,86.9-271.3
								c52.8-93.2,128.1-175.6,224-238.4C418.1,94,498.1,61.4,580,44c94.7-20.2,191.8-20,284.9-0.9
								c175.2,35.9,336.5,139,442.2,300.4c7.1,10.9,13.9,21.8,20.3,32.9c49.5,85.5,78.8,177.7,89.2,270.7
								C1438.3,842.3,1376.5,1041.2,1242.4,1190.1"/>
						</defs>
						<clipPath id="SVGID_00000018202837915717442100000013737893836630770088_">
							<use xlink:href="#SVGID_00000122679595775762557140000014027108106311525001_"  style="overflow:visible;"/>
						</clipPath>
						<g style="clip-path:url(#SVGID_00000018202837915717442100000013737893836630770088_);">
							
								<radialGradient id="SVGID_00000150067379548650330530000009870116164224976307_" cx="-1775.0024" cy="1504.5" r="695.85" gradientTransform="matrix(1 0 0 -1 2500 2229.2)" gradientUnits="userSpaceOnUse">
								<stop  offset="0" style="stop-color:#0D3F7C"/>
								<stop  offset="6.250000e-02" style="stop-color:#0D3E7B"/>
								<stop  offset="8.984379e-02" style="stop-color:#0C3E7A"/>
								<stop  offset="0.1172" style="stop-color:#0C3D79"/>
								<stop  offset="0.1445" style="stop-color:#0C3D79"/>
								<stop  offset="0.168" style="stop-color:#0C3C78"/>
								<stop  offset="0.1914" style="stop-color:#0C3C77"/>
								<stop  offset="0.2148" style="stop-color:#0B3C76"/>
								<stop  offset="0.2383" style="stop-color:#0B3B76"/>
								<stop  offset="0.2617" style="stop-color:#0B3B75"/>
								<stop  offset="0.2812" style="stop-color:#0B3A74"/>
								<stop  offset="0.3008" style="stop-color:#0B3A73"/>
								<stop  offset="0.3203" style="stop-color:#0A3973"/>
								<stop  offset="0.3398" style="stop-color:#0A3972"/>
								<stop  offset="0.3594" style="stop-color:#0A3871"/>
								<stop  offset="0.3789" style="stop-color:#0A3870"/>
								<stop  offset="0.3945" style="stop-color:#0A3770"/>
								<stop  offset="0.4102" style="stop-color:#09376F"/>
								<stop  offset="0.4258" style="stop-color:#09376E"/>
								<stop  offset="0.4414" style="stop-color:#09366D"/>
								<stop  offset="0.457" style="stop-color:#09366D"/>
								<stop  offset="0.4727" style="stop-color:#09356C"/>
								<stop  offset="0.4883" style="stop-color:#08356B"/>
								<stop  offset="0.5039" style="stop-color:#08346B"/>
								<stop  offset="0.5156" style="stop-color:#08346A"/>
								<stop  offset="0.5273" style="stop-color:#08346A"/>
								<stop  offset="0.5391" style="stop-color:#083369"/>
								<stop  offset="0.5508" style="stop-color:#083368"/>
								<stop  offset="0.5625" style="stop-color:#083368"/>
								<stop  offset="0.5742" style="stop-color:#073267"/>
								<stop  offset="0.5859" style="stop-color:#073267"/>
								<stop  offset="0.5977" style="stop-color:#073266"/>
								<stop  offset="0.6094" style="stop-color:#073166"/>
								<stop  offset="0.6211" style="stop-color:#073165"/>
								<stop  offset="0.6328" style="stop-color:#073164"/>
								<stop  offset="0.6406" style="stop-color:#063064"/>
								<stop  offset="0.6484" style="stop-color:#063064"/>
								<stop  offset="0.6562" style="stop-color:#063063"/>
								<stop  offset="0.6641" style="stop-color:#063063"/>
								<stop  offset="0.6719" style="stop-color:#062F62"/>
								<stop  offset="0.6797" style="stop-color:#062F62"/>
								<stop  offset="0.6875" style="stop-color:#062F62"/>
								<stop  offset="0.6953" style="stop-color:#062E61"/>
								<stop  offset="0.7109" style="stop-color:#052E60"/>
								<stop  offset="0.7266" style="stop-color:#052D5F"/>
								<stop  offset="0.7422" style="stop-color:#052D5E"/>
								<stop  offset="0.7578" style="stop-color:#052C5E"/>
								<stop  offset="0.7695" style="stop-color:#052C5D"/>
								<stop  offset="0.7812" style="stop-color:#042C5C"/>
								<stop  offset="0.793" style="stop-color:#042B5C"/>
								<stop  offset="0.8047" style="stop-color:#042B5B"/>
								<stop  offset="0.8164" style="stop-color:#042A5B"/>
								<stop  offset="0.8242" style="stop-color:#042A5A"/>
								<stop  offset="0.832" style="stop-color:#042A5A"/>
								<stop  offset="0.8398" style="stop-color:#042A59"/>
								<stop  offset="0.8477" style="stop-color:#032959"/>
								<stop  offset="0.8633" style="stop-color:#032958"/>
								<stop  offset="0.8789" style="stop-color:#032857"/>
								<stop  offset="0.8906" style="stop-color:#032856"/>
								<stop  offset="0.9023" style="stop-color:#022755"/>
								<stop  offset="0.9141" style="stop-color:#022755"/>
								<stop  offset="0.9219" style="stop-color:#022754"/>
								<stop  offset="0.9297" style="stop-color:#022654"/>
								<stop  offset="0.9453" style="stop-color:#022653"/>
								<stop  offset="0.957" style="stop-color:#022552"/>
								<stop  offset="0.9648" style="stop-color:#012552"/>
								<stop  offset="0.9805" style="stop-color:#012551"/>
								<stop  offset="0.9883" style="stop-color:#012450"/>
								<stop  offset="1" style="stop-color:#012450"/>
							</radialGradient>
							<path style="fill:url(#SVGID_00000150067379548650330530000009870116164224976307_);" d="M16.8,23.8v1418.6h1421.5V23.8H16.8
								z"/>
						</g>
					</g>
				</g>
			</g>
		</g>
	</g>
	<path class="st4" d="M864.7,1406.7c-90.8,18.6-185.2,18.8-278.7-0.2c0.3-1,0.7-2,1.1-2.9c10.8-29.2,23.8-58.6,37.3-89.9
		c2.1-4.8,5.3-8.8,9-11.5c3.8-2.9,8.1-4.6,12.7-4.7c3.3-0.1,6.7-0.3,10-0.4l9.9-0.3c6.7-0.3,13.2-0.3,19.9-0.6
		c13.2-0.1,26.3-0.5,39.4-0.4c3.3-0.1,6.6-0.1,9.9,0l4.9,0.1h4.9c6.6,0.1,13.1,0.2,19.7,0.3l4.9,0.2l5,0.1c3.3,0.1,6.6,0.2,9.9,0.3
		c3.3,0.1,6.6,0.1,9.9,0.3c3.3,0.1,6.7,0.3,10,0.4c4.5,0.1,8.9,1.9,12.7,4.7c3.8,2.8,6.9,6.7,9,11.5c13.6,31.3,26.5,60.7,37.4,89.9
		C864,1404.6,864.4,1405.6,864.7,1406.7"/>
	<path class="st4" d="M265.7,1106.9c-20.3,27.3-39.4,53.3-59.2,77.2c-0.7,0.8-1.3,1.6-2,2.4c-22.3-25.2-42.8-52.1-61.6-80.7
		c-33.2-50.7-59.3-104.6-78.1-160.5c1.1-0.2,2.2-0.4,3.2-0.6c30.7-5.2,62.8-8.8,96.5-12.7c10.2-1.1,20.2,2.9,25,10.6
		c1.8,2.8,3.5,5.7,5.2,8.5c1.8,2.8,3.6,5.6,5.4,8.4c1.8,2.8,3.5,5.6,5.2,8.5l2.5,4.3l2.7,4.2c3.5,5.6,6.9,11.2,10.1,16.9
		c3.5,5.6,6.9,11.2,10.1,17c3.1,5.8,6.7,11.3,9.8,17.1c3.2,5.8,6.3,11.6,9.5,17.4c6.4,11.6,12.7,23.3,18.9,35.1
		C273.1,1088,271.9,1098.5,265.7,1106.9"/>
	<path class="st4" d="M268.3,369.9c-12.3,23.7-24.9,46.7-38,69.4c-1.7,2.8-3.3,5.7-4.9,8.5l-5,8.5c-3.2,5.7-6.8,11.3-10.1,17
		c-6.9,11.2-13.7,22.6-20.9,33.8c-2.4,3.9-6,6.8-10.4,8.7c-4.4,1.8-9.3,2.7-14.5,2.1c-16.9-1.9-33.4-3.8-49.5-5.8
		c-16-2-31.7-4.1-47-6.7c-1.1-0.2-2.1-0.4-3.2-0.5c29.7-89.8,76.9-171.6,139.1-241.5c0.7,0.8,1.4,1.7,2.1,2.5
		c19.8,23.9,39,50,59.2,77.3C271.3,351.4,272.6,362,268.3,369.9"/>
	<path class="st4" d="M863.9,42.9c-0.4,1-0.7,2-1.1,2.9c-5.4,14.6-11.4,29.3-17.6,44.2c-6.3,14.9-12.9,30-19.7,45.7
		c-4.2,9.6-12.7,15.8-21.7,16.2c-26.7,1-53,1.7-79.2,1.6c-13.1,0.1-26.2-0.2-39.4-0.4c-6.6-0.2-13.2-0.2-19.8-0.6l-9.9-0.3
		c-3.3-0.1-6.6-0.3-10-0.4c-4.5-0.1-8.9-1.9-12.7-4.7c-3.8-2.8-6.9-6.7-9-11.5c-13.6-31.3-26.6-60.7-37.4-89.9
		c-0.4-1-0.8-2.1-1.2-3.1C676,24.1,770.5,23.9,863.9,42.9"/>
	<path class="st4" d="M1385.2,504.1c-1.1,0.2-2.1,0.4-3.2,0.6c-30.7,5.3-62.6,8.8-96.5,12.7c-5.2,0.6-10.2-0.2-14.5-2
		c-4.4-1.9-8-4.8-10.4-8.6c-1.7-2.8-3.6-5.6-5.4-8.4l-5.2-8.4c-3.6-5.6-6.9-11.3-10.4-16.9c-3.4-5.6-6.8-11.3-10.2-16.9l-2.5-4.2
		l-2.6-4.2c-1.7-2.8-3.3-5.7-5-8.6l-9.8-17.1l-4.8-8.6c-1.6-2.9-3.3-5.7-4.9-8.6c-3.3-5.7-6.4-11.6-9.4-17.5l-1.1-2.2l-1.2-2.2
		l-2.4-4.4c-1.6-2.9-3.2-5.9-4.7-8.8c-2.1-4-2.8-8.7-2.1-13.4c0.5-4.6,2.3-9.3,5.4-13.5c20.2-27.3,39.3-53.3,59.2-77.3
		c0.7-0.8,1.4-1.7,2.1-2.5c22.2,25.2,42.8,52.1,61.6,80.7C1340.3,394.2,1366.4,448.2,1385.2,504.1"/>
	<path class="st4" d="M1385.2,944.6c-29.7,89.8-76.9,171.6-139.1,241.5c-0.7-0.8-1.4-1.7-2.1-2.5c-19.9-24-38.8-49.9-59.2-77.3
		c-3.1-4.2-5-8.9-5.5-13.6c-0.5-4.7,0.1-9.3,2.2-13.3c12.5-23.6,24.9-46.7,38-69.3c1.7-2.8,3.2-5.7,4.9-8.5c1.6-2.9,3.4-5.6,5-8.5
		c3.3-5.7,6.8-11.3,10.1-16.9c6.9-11.2,13.7-22.6,20.9-33.8c4.8-7.7,14.6-11.9,24.9-10.8c16.9,1.9,33.4,3.7,49.5,5.8
		c16,2,31.7,4.1,47,6.7C1383.1,944.2,1384.1,944.4,1385.2,944.6"/>
	<path class="st4" d="M655,281.9c-6.6,0-12.3-4.8-13.3-11.5c-1.1-7.4,3.9-14.2,11.3-15.4c23.6-3.6,47.7-5.4,71.6-5.4
		c21.2,0,42.6,1.4,63.6,4.3c7.4,1,12.6,7.8,11.6,15.2c-1,7.4-7.8,12.6-15.2,11.6c-19.8-2.7-40-4-60-4c-22.6,0-45.3,1.7-67.6,5.1
		C656.3,281.8,655.6,281.9,655,281.9z M1024,386.4c-3.1,0-6.2-1.1-8.7-3.2c-32.5-27.6-68.8-50.5-107.9-67.8c-6.8-3-9.9-11-6.9-17.8
		c3-6.8,11-9.9,17.8-6.9c41.5,18.4,80,42.6,114.5,71.9c5.7,4.8,6.4,13.3,1.5,19C1031.6,384.8,1027.8,386.4,1024,386.4z M419.4,392.2
		c-3.8,0-7.5-1.5-10.1-4.6c-4.9-5.6-4.4-14.1,1.2-19.1c17-14.9,35.2-28.8,54.3-41.3c18.8-12.3,38.6-23.4,58.8-32.8
		c6.7-3.2,14.8-0.3,18,6.5c3.2,6.8,0.3,14.8-6.5,17.9c-19.1,9-37.7,19.4-55.5,31c-18,11.8-35.2,24.9-51.2,39
		C425.8,391.1,422.6,392.2,419.4,392.2z M1166.9,604.4c-5.8,0-11.1-3.8-12.9-9.6c-12.4-40.7-30.6-79.6-54.1-115.5l-0.3-0.4
		c-4.1-6.2-2.4-14.6,3.9-18.7s14.6-2.4,18.7,3.9l0.3,0.5c24.9,38.1,44.2,79.3,57.3,122.5c2.2,7.1-1.9,14.7-9,16.8
		C1169.5,604.2,1168.2,604.4,1166.9,604.4z M280.9,612.2c-1.2,0-2.5-0.2-3.7-0.5c-7.2-2-11.3-9.5-9.3-16.7
		c12.4-43.7,30.9-85.2,54.9-123.5c4-6.3,12.3-8.2,18.6-4.2c6.3,4,8.2,12.3,4.2,18.6c-22.7,36.1-40.1,75.3-51.8,116.5
		C292.2,608.4,286.8,612.2,280.9,612.2z M1169,864.4c-1.2,0-2.5-0.2-3.7-0.5c-7.2-2-11.3-9.5-9.3-16.7c11.4-40,17.1-81.4,17.1-123
		c0-1.1,0-2.3,0-3.4c-0.1-7.4,5.9-13.5,13.4-13.6c0,0,0.1,0,0.1,0c7.4,0,13.4,6,13.5,13.4c0,1.2,0,2.4,0,3.7
		c0,44-6.1,87.9-18.2,130.3C1180.3,860.6,1174.9,864.4,1169,864.4z M283.2,872.3c-5.8,0-11.1-3.8-12.9-9.6
		c-13.2-43.3-20-88.3-20.4-133.7c-0.1-7.5,5.9-13.5,13.4-13.6c0,0,0.1,0,0.1,0c7.4,0,13.4,6,13.5,13.4c0.4,42.8,6.8,85.2,19.2,126.1
		c2.2,7.1-1.9,14.7-9,16.8C285.8,872.1,284.5,872.3,283.2,872.3z M1030.4,1084.4c-3.7,0-7.5-1.6-10.1-4.6c-4.9-5.6-4.4-14.1,1.2-19
		c32.1-28.2,59.9-60.9,82.7-97.1c4-6.3,12.3-8.2,18.6-4.2c6.3,4,8.2,12.3,4.2,18.6c-24.1,38.3-53.6,73-87.7,102.9
		C1036.7,1083.3,1033.5,1084.4,1030.4,1084.4z M425.8,1089.8c-3.1,0-6.2-1.1-8.7-3.2c-34.3-29.2-64.4-63.4-89.4-101.4
		c-4.1-6.2-2.3-14.6,3.9-18.7c6.2-4.1,14.6-2.3,18.7,3.9c23.6,35.9,51.9,68.1,84.3,95.7c5.7,4.8,6.4,13.4,1.5,19
		C433.4,1088.2,429.6,1089.8,425.8,1089.8z M794.7,1194.6c-6.6,0-12.3-4.8-13.3-11.5c-1.1-7.4,4-14.2,11.3-15.4
		c42.2-6.4,83.3-18.9,122-37.1c6.8-3.2,14.8-0.3,18,6.5c3.2,6.8,0.3,14.8-6.5,17.9c-41.1,19.2-84.6,32.5-129.4,39.3
		C796.1,1194.5,795.4,1194.6,794.7,1194.6z M663.4,1195.6c-0.6,0-1.2,0-1.8-0.1c-44.9-6.1-88.7-18.5-130.1-36.9
		c-6.8-3-9.9-11-6.9-17.8c3-6.8,11-9.9,17.8-6.8c39,17.4,80.3,29.1,122.7,34.8c7.4,1,12.6,7.8,11.6,15.2
		C675.8,1190.7,670,1195.6,663.4,1195.6"/>
	<path class="st5" d="M1406.1,866.8c-5.5,26.5-12.5,52.5-20.9,77.8c-29.7,89.8-76.9,171.6-139.1,241.5
		c-40.6,45.7-87.5,86.3-140,120.7c-74.7,48.9-156.5,82.5-241.4,99.9c-90.8,18.6-185.2,18.8-278.7-0.2c-1.1-0.2-2.1-0.4-3.2-0.6
		c-148.5-31-279.8-107.6-378.4-219.3c-22.2-25.2-42.8-52.1-61.6-80.7c-33.2-50.7-59.3-104.6-78.1-160.5
		C25.9,829.6,18.3,705.2,43.9,582.6c5.5-26.5,12.5-52.4,20.9-77.8c29.7-89.8,76.9-171.6,139.1-241.5c40.6-45.7,87.5-86.3,140-120.7
		c74.7-48.9,156.4-82.5,241.4-99.9c90.8-18.6,185.2-18.8,278.7,0.2c1.1,0.2,2.1,0.4,3.2,0.6c148.5,31,279.8,107.6,378.4,219.3
		c22.2,25.2,42.8,52.1,61.6,80.7c33.2,50.7,59.3,104.6,78.1,160.5C1424.1,619.8,1431.7,744.2,1406.1,866.8z"/>
	<path class="st4" d="M1303.9,763.4c-21.3,0-38.7-17.3-38.7-38.7c0-21.3,17.3-38.6,38.7-38.6c21.3,0,38.6,17.3,38.6,38.6
		C1342.6,746,1325.2,763.4,1303.9,763.4"/>
	<path class="st4" d="M146.1,763.4c-21.3,0-38.6-17.3-38.6-38.7c0-21.3,17.3-38.6,38.6-38.6c21.3,0,38.7,17.3,38.7,38.6
		C184.7,746,167.4,763.4,146.1,763.4"/>
	<path class="st4" d="M427.2,1275.8c-21.3,0-38.6-17.3-38.6-38.6c0-21.3,17.3-38.7,38.6-38.7c21.3,0,38.7,17.3,38.7,38.7
		C465.8,1258.5,448.5,1275.8,427.2,1275.8"/>
	<path class="st4" d="M427.2,250.9c-21.3,0-38.6-17.3-38.6-38.6c0-21.3,17.3-38.7,38.6-38.7c21.3,0,38.7,17.3,38.7,38.7
		C465.8,233.5,448.5,250.9,427.2,250.9"/>
	<path class="st4" d="M1022.8,1275.8c-21.3,0-38.7-17.3-38.7-38.6c0-21.3,17.3-38.7,38.7-38.7c21.3,0,38.6,17.3,38.6,38.7
		C1061.4,1258.5,1044.1,1275.8,1022.8,1275.8"/>
	<path class="st4" d="M1022.8,250.9c-21.3,0-38.7-17.3-38.7-38.6c0-21.3,17.3-38.7,38.7-38.7c21.3,0,38.6,17.3,38.6,38.7
		C1061.4,233.5,1044.1,250.9,1022.8,250.9"/>
	<path class="st4" d="M1058.4,506.4c120.6,184.1,69,431.1-115.1,551.7c-184.1,120.5-431.1,69-551.7-115.1
		c-120.6-184.1-69-431.1,115.1-551.7C690.8,270.8,937.8,322.3,1058.4,506.4"/>
	<path class="st6" d="M1059.6,742.6l-5.4-5.6c-8.3-8.5-17.3-16.4-26.1-23.7c-0.1-0.1-0.1-0.3,0-0.4c4.1-3.9,8.3-8,12.4-12.3l3.1-3.2
		l2.9-3.3c2-2.2,3.9-4.4,5.9-6.7l5-5.9c3.2-3.9,7.6-6.4,12.4-7.1c4.7-0.7,9.8,0.4,13.9,3.7c4,3.3,6.4,8.1,6.9,13
		c0.3,2.5-0.1,5-0.8,7.4c-0.8,2.4-2,4.7-3.7,6.6l-2.4,2.8c-0.4,0.4,0.1,1,0.6,0.8c4.8-2.7,9.7-5.2,14.2-9.7c0.2-0.2,0.5-0.1,0.5,0.1
		l0.6,11.4c0.1,3.8,0.1,7.6,0.1,11.4c0,0.3-0.3,0.4-0.5,0.2c-4.9-4.2-9.9-6.3-14.9-8.7c-0.5-0.2-0.9,0.4-0.6,0.8l2.6,2.6
		c3.7,3.7,5.6,8.7,5.6,13.7c-0.2,5-2.2,9.9-6,13.5c-1.9,1.8-4.1,3-6.4,3.8c-2.3,0.8-4.8,1-7.2,0.9c-2.4-0.2-4.8-0.8-6.9-1.8
		C1063.4,745.9,1061.4,744.5,1059.6,742.6"/>
	<path class="st6" d="M1087.1,825.1c-2.2-3.7-4.2-7.2-6.6-10.7c-2.3-3.5-4.6-7-7-10.4c-2.4-3.4-4.7-6.7-7.2-10
		c-2.5-3.3-5-6.5-7.6-9.6c-0.1-0.1-0.2-0.1-0.3-0.1c-3.5,2.1-7,4-10.4,6c-3.4,1.9-7.1,3.7-10.7,5.5c-3.6,1.8-7.1,3.4-10.6,5
		c-3.5,1.6-7.2,3.1-10.8,4.6c-0.1,0.1-0.2,0.2-0.1,0.3c4.6,6.2,9.2,12.7,13.4,19.3c4.2,6.6,8.5,13.6,12.1,20.7
		c0.1,0.1,0.2,0.2,0.3,0.1c7.8-2.7,15.2-5.8,22.8-9.2c7.7-3.3,15.1-7.1,22.6-11.1C1087.1,825.4,1087.2,825.2,1087.1,825.1"/>
	<path class="st6" d="M1054.1,643.1c1.5-2.5,3.1-5,4.6-7.5c1.8-3,3.6-6,5.2-9.1c1.6-3.1,3.3-6.2,4.9-9.3c1.6-3.2,3.2-6.4,4.8-9.6
		c1.6-3.2,2.9-6.5,4.4-9.8c0.1-0.2,0-0.3-0.2-0.4c-3.2-1.6-6.5-3.2-9.7-4.8l-4.8-2.3l-4.9-2.1c-6.6-2.8-13-5.4-19.5-7.7
		c-2.8-1-5.6-1.9-8.4-2.8c-5.5-1.8-11.1-1.1-16,1.4c-2.4,1.2-4.7,2.9-6.5,4.9c-1.9,2-3.4,4.2-4.4,6.7c-1.1,2.5-1.6,5.1-1.5,7.4
		c-0.1,2.4,0.4,4.8,1.3,6.9c1.8,4.3,5.6,7.7,10.6,9.7c2.5,0.9,5.1,1.9,7.6,3c0.1,0.1,0.2,0.2,0.1,0.4c-1.3,2.4-2.6,4.8-3.9,7.1
		c-2.8,4.8-3.4,9.8-2,14.2c0.8,2.2,1.7,4.3,3.3,6.2c1.6,1.9,3.6,3.5,6,4.7c2.4,1.2,5.1,2,7.8,2.3
		C1040.8,653.7,1049.7,650.4,1054.1,643.1"/>
	<path class="st6" d="M997.1,942.9c-3.5-2.9-5.6-7-6.2-11.1c-0.3-2.1-0.2-4.1,0.2-6.1c0.2-1,0.6-2,1-2.9c0.4-1,0.9-1.9,1.5-2.8
		c1.2-1.7,2.6-3.1,4.3-4.2c0.2-0.1,0.1-0.5-0.2-0.4c-4.6,1.1-9.6,0.2-13.8-2.8c-3.8-2.7-6.3-6.6-7.3-10.5c-0.5-2-0.6-4-0.4-5.9
		c0.1-1,0.4-1.9,0.7-2.8c0.3-0.9,0.7-1.8,1.2-2.7c2.1-3.5,5.7-5.6,9.8-6.3c4.1-0.7,8.6-0.1,12.7,2.3c2.3,1.3,4.2,3.1,5.6,5.1
		c1.4,2,2.4,4.3,2.8,6.6c0,0.2,0.4,0.3,0.4,0c0.4-1.9,1-3.8,2.1-5.6c2.2-3.7,5.8-6.1,9.9-7.2c4.1-1.1,8.5-0.8,12.6,1.2
		c4.2,2.1,7.2,5.9,8.5,10.1c1.2,4.2,0.7,9.1-1.8,13.3c-0.7,1.2-1.5,2.3-2.4,3.3c-0.9,0.9-2,1.8-3.1,2.5c-2.2,1.4-4.6,2.3-7.1,2.6
		c-0.5,0.1-0.6,0.7-0.1,0.9c4.1,1.5,8.5,2.2,13,1.9c1-0.1,2.1-0.2,3.2-0.4c0.2,0,0.4,0.2,0.3,0.4c-3.8,5.9-7.4,11.9-11.5,17.5
		c-0.1,0.2-0.4,0.1-0.4-0.1c-0.3-1.1-0.6-2.1-0.9-3.1c-1.5-4.2-3.8-8-6.9-11.1c-0.3-0.3-0.9,0-0.7,0.5c1.4,4.8,0.6,10.3-2.7,14.8
		c-2.8,4.1-7.2,6.3-11.6,6.9C1005.3,947.1,1000.8,945.9,997.1,942.9"/>
	<path class="st6" d="M811.1,1048.1l3.6-6.8c2.7-5.4,5.3-10.8,7.7-16.1c1.2-2.7,2.4-5.3,3.5-8c1.1-2.7,2.1-5.5,3.1-8.2
		c0.1-0.2,0.2-0.2,0.4-0.1c10.2,5.8,20.6,10.6,31.8,15.4c2.4,1,4.7,1.9,7.1,2.8c9.4,3.6,15,14,11.4,23.9c-0.9,2.5-2.3,4.7-4,6.5
		c-1.8,1.8-3.9,3.2-6.2,4.1c-4.6,1.9-9.9,2.3-14.8,0.1l-3.4-1.5c-0.5-0.2-1,0.4-0.5,0.8c4.1,3.7,8,7.7,13.7,10.6
		c0.2,0.1,0.3,0.4,0,0.5c-3.5,1.5-7.1,2.7-10.6,4l-5.3,2c-1.8,0.7-3.6,1.3-5.4,1.8c-0.2,0.1-0.4-0.1-0.3-0.4
		c0.6-1.5,1.1-2.9,1.5-4.3c0.4-1.4,0.7-2.9,0.9-4.3c0.5-2.8,0.8-5.6,1.1-8.3c0.1-0.5-0.7-0.8-0.9-0.2l-1.6,3.3
		c-0.6,1.2-1.3,2.3-2.1,3.3c-0.8,1-1.7,1.9-2.7,2.6c-1.9,1.6-4.2,2.8-6.6,3.5c-2.4,0.7-4.9,1.1-7.4,0.9c-2.5-0.3-5-1.1-7.3-2.4
		C808.7,1068.6,806.2,1056.9,811.1,1048.1"/>
	<path class="st6" d="M741.2,1099.8c2.8-3.2,5.5-6.5,8.2-9.7c2.6-3.3,5.2-6.4,7.7-9.8c5-6.7,9.7-13.3,14.1-20.1
		c0.1-0.1,0.1-0.2-0.1-0.3c-6.1-5.4-11.9-11-17.4-16.6c-2.8-2.7-5.4-5.8-8.1-8.6c-2.6-2.9-5.2-5.8-7.6-8.8c-0.1-0.1-0.2-0.1-0.3,0
		c-2.2,3.3-4.5,6.2-6.9,9.4c-2.4,3.1-4.8,6.2-7.3,9.3c-2.5,3.1-5.1,6.1-7.8,9c-2.6,3-5.4,5.9-8.2,8.9c-0.1,0.1-0.1,0.2,0,0.3
		c2.5,3.2,5,6.3,7.6,9.5c2.6,3.2,5.3,6.4,8.1,9.4c2.8,3,5.6,6.1,8.5,9.1c2.9,3,5.9,6.1,8.9,9
		C740.9,1099.9,741.1,1099.9,741.2,1099.8"/>
	<path class="st6" d="M904,1012c2.8,0.7,5.7,1.4,8.6,2.1c6.8,1.6,13.6,2.7,20.6,3.9c7.1,1.2,14.1,2,21.3,2.7c0.2,0,0.3-0.1,0.4-0.3
		c0.6-3.6,1.1-7.1,1.6-10.6c0.4-3.6,0.8-7.1,1.1-10.7c0.3-3.5,0.6-7,0.9-10.5c0.1-1.7,0.2-3.4,0.3-5.2l0.2-5.3
		c0.1-3,0.1-5.9,0.2-8.9c0.1-5.7-2.4-10.9-6.2-14.7c-1.9-1.9-4.2-3.6-6.6-4.7c-2.4-1.2-5.1-1.9-7.8-2.2
		c-10.9-0.9-19.2,6.2-19.7,17.3c-0.1,2.7-0.3,5.4-0.5,8.1c0,0.2-0.1,0.2-0.3,0.2c-2.7-0.5-5.4-1-8-1.6c-1.3-0.3-2.6-0.4-3.9-0.4
		c-1.3,0-2.6,0-3.8,0.2c-2.4,0.4-4.6,1.3-6.5,2.6c-1.9,1.3-3.5,3.1-4.8,5.2c-1.3,2-2.2,4.4-2.7,7.1c-0.4,2.7-0.4,5.4,0.1,8.1
		C889.9,1002.8,895.6,1009.9,904,1012"/>
	<path class="st6" d="M601.3,1050.5c1.7-4.2,4.9-7.4,8.6-9.3c3.8-1.9,8.1-2.5,12.2-1.2c2,0.6,3.8,1.7,5.3,2.8
		c0.2,0.1,0.5-0.1,0.3-0.3c-2.5-3.9-3.1-9.1-1.6-14.1c1.4-4.5,4.3-8,7.7-10.1c3.5-2.3,7.5-3.2,11.4-2.1c3.9,1.1,7.1,3.7,9,7.3
		c1.9,3.6,2.7,8.2,1.7,12.8c-1.1,5.1-4.3,9.2-8.5,11.5c-0.2,0.1-0.1,0.5,0.1,0.4c2-0.3,4-0.2,6,0.3c4.1,1.2,7.6,3.6,9.9,7.1
		c2.3,3.5,3.4,7.9,2.7,12.4c-0.7,4.7-3.3,8.6-7,11.1c-3.7,2.5-8.5,3.7-13.2,2.5c-5.4-1.3-9.7-4.8-11.8-9.4c-0.2-0.4-0.8-0.3-0.9,0.1
		c-0.2,4.4,0.5,8.8,2.2,12.9c0.4,1,0.8,1.9,1.3,2.9c0.1,0.2,0,0.4-0.2,0.4l-5.1-1.2c-1.7-0.4-3.4-0.9-5-1.4l-10.1-2.9
		c-0.2-0.1-0.2-0.3,0-0.5c0.9-0.6,1.8-1.2,2.6-1.8c3.6-2.8,6.4-6.2,8.5-10.1c0.2-0.4-0.3-0.8-0.7-0.6c-4.1,2.8-9.7,4-15,2.2
		c-4.7-1.6-8.3-4.8-10.2-8.8C599.8,1059.6,599.6,1054.9,601.3,1050.5"/>
	<path class="st6" d="M443.8,906.1c2.5,0.5,5.1,0.9,7.6,1.3c6,0.9,11.9,1.7,17.6,2.4c5.8,0.6,11.8,1,17.5,1.3c0.2,0,0.3,0.1,0.2,0.3
		c-0.6,2.8-1.1,5.8-1.6,8.6c-0.4,2.8-0.9,5.7-1.3,8.6c-0.4,2.9-0.8,5.8-1.1,8.8c-0.3,3-0.7,6-0.9,8.9l-0.5,7.7
		c-0.6,10.1-8.8,18.6-19.3,18.2c-10.6-0.3-18.8-10.1-17.9-20.4l0.4-3.7c0.1-0.6-0.7-0.8-0.9-0.3c-1.2,2.5-2.4,5-3.4,7.7
		c-1,2.6-1.9,5.4-2.4,8.6c-0.1,0.3-0.3,0.4-0.5,0.2c-1.2-1.5-2.5-2.9-3.6-4.4l-3.5-4.5l-6.9-9c-0.2-0.2,0-0.4,0.3-0.4
		c6.5,0.5,11.8-0.8,17.2-1.8c0.5-0.1,0.5-0.9,0-0.9l-3.7-0.5c-2.6-0.4-5-1.3-7.2-2.6c-2.1-1.4-3.9-3.2-5.3-5.2
		c-1.4-2.1-2.5-4.4-3-6.8c-0.6-2.4-0.7-5-0.1-7.6C423.7,910.1,434,904.2,443.8,906.1"/>
	<path class="st6" d="M373,855.7c3.9,1.7,7.7,3.3,11.6,4.8c4,1.5,7.9,2.9,11.8,4.3c3.9,1.4,7.8,2.6,11.7,3.9c4,1.2,7.9,2.3,11.8,3.3
		c0.1,0,0.2,0,0.3-0.1c1.6-3.7,3.2-7.4,4.9-10.9c1.8-3.6,3.6-7.2,5.4-10.7c1.8-3.5,3.7-6.9,5.6-10.3c1.9-3.4,4-6.8,6.1-10
		c0.1-0.1,0-0.3-0.1-0.3c-3.7-1.1-7.4-2.3-11.1-3.6c-3.8-1.3-7.3-2.7-11-4.1c-7.3-2.9-14.9-6-22-9.6c-0.1-0.1-0.2,0-0.3,0.1
		c-4.7,6.7-8.8,13.6-13,20.8c-2,3.6-4.2,7.3-6.1,11c-1.9,3.7-3.8,7.4-5.7,11.3C372.8,855.4,372.9,855.6,373,855.7"/>
	<path class="st6" d="M506.7,983.4c0.2,2.9,0.4,5.9,0.7,8.8c0.7,6.8,1.6,13.8,2.6,20.9c1.2,6.9,2.5,13.9,4,21.1
		c0,0.2,0.2,0.3,0.4,0.3c14.3-2.4,28.1-5.3,41.5-9.3c2.8-0.8,5.6-1.7,8.4-2.5c5.5-1.8,9.7-5.8,12.2-10.6c1.2-2.4,2.1-5.1,2.4-7.8
		c0.3-2.7,0.2-5.4-0.4-8c-1.2-5.4-4.2-9.5-8.2-11.8c-4-2.3-8.9-3.2-14.3-1.6c-2.6,0.7-5.3,1.5-7.9,2.1c-0.2,0-0.3-0.1-0.3-0.2
		c-0.3-2.7-0.7-5.5-0.9-8.2c-0.3-2.7-1.1-5.2-2.2-7.3c-1.2-2.1-2.6-4-4.5-5.4c-3.6-2.9-8.7-4-14-3.3c-2.7,0.4-5.3,1.3-7.6,2.6
		C511.2,967.1,506.2,974.7,506.7,983.4"/>
	<path class="st6" d="M376.7,707.4c4.6,0.3,8.6,2.3,11.5,5.3c2.9,3,4.6,6.9,4.8,11.2c0.1,2.1-0.3,4.1-1,5.9
		c-0.1,0.2,0.2,0.4,0.4,0.2c3-3.6,7.6-5.8,12.8-5.8c4.7,0,8.9,1.6,12.1,4.2c3.2,2.6,5.1,6.2,5.4,10.2c0.3,4.1-1.4,7.9-4.3,10.9
		c-2.8,3-6.9,5.1-11.6,5.5c-5.2,0.5-10.2-1.2-13.6-4.5c-0.2-0.2-0.5,0-0.4,0.2c0.8,1.8,1.5,3.7,1.6,5.8c0.4,4.3-1.1,8.4-3.8,11.6
		c-2.6,3.2-6.4,5.6-10.9,6.4c-4.7,0.8-9.3-0.5-12.8-3.2c-3.4-2.7-5.8-7-6.4-11.9c-0.7-5.6,1.7-10.7,5.3-14.1c0.3-0.3,0-0.9-0.4-0.8
		c-4.2,1.1-8.2,3.2-11.7,6.1c-0.8,0.7-1.6,1.4-2.4,2.2c-0.2,0.2-0.4,0.1-0.4-0.1l-0.6-10.4l-0.3-5.2l-0.1-5.2c0-0.2,0.2-0.3,0.4-0.2
		c0.8,0.7,1.7,1.3,2.5,1.9c3.7,2.6,7.8,4.2,12.1,5c0.5,0.1,0.7-0.5,0.3-0.8c-4-3-6.5-8-6.6-13.6c-0.1-4.9,2.1-9.4,5.3-12.4
		C367.6,708.8,371.9,707.1,376.7,707.4"/>
	<path class="st6" d="M465.2,512.9l1.1,7.7c0.5,3,0.9,5.9,1.4,8.8c0.3,1.5,0.5,2.9,0.8,4.3l0.9,4.4c1.3,5.8,2.6,11.5,4.1,17
		c0,0.2-0.1,0.3-0.2,0.3c-11.3,1.5-23.1,3.4-34.7,6.3l-7.5,1.9c-2.5,0.6-4.9,0.8-7.3,0.5c-2.4-0.3-4.7-1-6.8-2.1
		c-2.1-1.1-4-2.6-5.6-4.5c-1.6-1.9-2.8-4.1-3.5-6.6c-1.4-5-0.5-10.3,2-14.6c2.6-4.3,6.9-7.5,12-8.7l3.6-0.8c0.5-0.1,0.5-0.9,0-1
		c-5.4-0.6-10.8-1.5-17.2-0.5c-0.3,0.1-0.4-0.2-0.3-0.4l6.1-9.6l6.6-9.3c0.2-0.2,0.4-0.1,0.5,0.1c1.5,6.3,4.4,10.9,7,15.8
		c0.3,0.5,1,0.2,0.9-0.3l-0.6-3.6c-0.8-5.1,0.5-10.4,3.6-14.4c3.1-3.9,7.6-6.8,12.8-7.4c2.6-0.3,5.1-0.1,7.4,0.7s4.5,2,6.3,3.5
		c1.8,1.6,3.4,3.4,4.5,5.6C464.1,508,464.9,510.3,465.2,512.9"/>
	<path class="st6" d="M491.5,430l-0.6,6.3l-0.4,6.4c-0.2,4.2-0.4,8.4-0.5,12.5c-0.3,8.2,0,16.5,0.4,24.6c0,0.1,0.1,0.2,0.2,0.2
		c8.1,0.8,15.9,1.7,23.8,3.2c3.9,0.7,7.8,1.4,11.6,2.2l5.7,1.2l5.7,1.4c0.1,0,0.2-0.1,0.2-0.2c0-3.8,0-7.7,0.1-11.7
		c0.1-3.9,0.2-7.9,0.5-11.8c0.5-7.8,1.3-15.8,2.3-23.9c0-0.1-0.1-0.2-0.2-0.3c-7.8-2.2-15.6-4.1-23.8-6c-4.1-0.9-8.1-1.7-12.2-2.4
		c-4.1-0.7-8.3-1.4-12.5-2C491.7,429.8,491.5,429.9,491.5,430"/>
	<path class="st6" d="M411.3,596.7c-2.7,1.1-5.4,2.2-8.1,3.4c-3.2,1.4-6.4,2.8-9.6,4.3c-3.1,1.5-6.3,3.1-9.4,4.7
		c-3.2,1.6-6.3,3.3-9.5,5c-3.2,1.7-6.2,3.5-9.3,5.4c-0.1,0.1-0.2,0.3-0.1,0.4c6.5,12.9,13.9,25.1,21.6,36.5c1.7,2.5,3.4,4.9,5.1,7.2
		c3.3,4.7,8.3,7.4,13.7,8.3c2.7,0.4,5.5,0.4,8.2-0.1c2.7-0.5,5.2-1.4,7.6-2.8c4.7-2.8,7.5-7,8.7-11.5c1.1-4.5,0-9.6-2.9-14.1
		c-1.5-2.3-2.9-4.6-4.4-6.9c-0.1-0.1,0-0.3,0.1-0.4c2.5-1.2,4.9-2.3,7.3-3.5c5.1-2.2,8.6-5.9,10-10.4c1.5-4.4,1.4-9.4-1.1-14.3
		c-1.2-2.4-3-4.6-4.9-6.5c-3-2.8-6.6-4.8-10.6-5.7c-2-0.5-4.1-0.6-6.1-0.5C415.3,595.4,413.3,595.9,411.3,596.7"/>
	<path class="st6" d="M633.6,387.6c1.1,4.4,0.4,8.9-1.5,12.5c-1.9,3.8-5.1,6.8-9.1,8.1c-2,0.7-4,0.8-6,0.8c-0.2,0-0.3,0.4-0.1,0.4
		c4.3,1.7,7.9,5.6,9.5,10.4c1.5,4.4,1.2,9-0.3,12.7c-1.5,3.9-4.2,7-7.9,8.4c-1.9,0.8-3.9,0.9-5.9,0.9c-2-0.1-3.9-0.6-5.8-1.5
		c-3.7-1.8-7-5-8.9-9.4c-2.1-4.8-2-10,0.1-14.3c0.1-0.2-0.2-0.5-0.4-0.3c-1.4,1.4-3.1,2.5-5,3.3c-2,0.8-4.1,1.1-6.1,1.1
		c-2.1,0-4.1-0.3-6.1-1.1c-3.9-1.5-7.4-4.4-9.5-8.4c-2.2-4.2-2.4-8.9-0.9-13.1c0.8-2.1,1.9-4.1,3.5-5.8c1.6-1.7,3.5-3,5.8-4
		c5.2-2.2,10.7-1.9,15.1,0.6c0.4,0.2,0.9-0.2,0.6-0.6c-2.4-3.7-5.6-6.8-9.4-9.1c-0.9-0.5-1.8-1.1-2.8-1.5c-0.2-0.1-0.2-0.4,0-0.5
		l4.8-2l4.9-1.8l9.8-3.6c0.2-0.1,0.4,0.1,0.3,0.4c-0.4,1-0.8,2.1-1.1,3.1c-1.3,4.4-1.5,8.8-0.9,13.1c0.1,0.5,0.7,0.5,0.9,0.1
		c1.6-4.7,5.5-9,10.8-10.5c4.7-1.5,9.5-0.9,13.4,1.1C629.4,379.3,632.4,383.1,633.6,387.6"/>
	<path class="st6" d="M845.9,411.9l-6.9,3.3c-5.4,2.7-10.6,5.6-15.7,8.5c-5.1,2.8-10.1,6-14.9,9.2c-0.1,0.1-0.3,0.1-0.4-0.1
		c-2.4-5.2-5-10.6-7.8-15.7c-2.8-5.1-5.7-10.4-8.9-15.5l-4.1-6.5c-5.5-8.4-3.9-20.2,4.9-26.1c2.2-1.5,4.6-2.4,7.1-2.9
		c2.5-0.4,5-0.3,7.4,0.3c2.4,0.6,4.8,1.6,6.8,3c1,0.7,2,1.5,2.9,2.4c0.9,0.9,1.6,2,2.3,3.1l1.9,3.2c0.3,0.5,1,0.2,0.9-0.3
		c-0.5-2.7-1-5.4-1.7-8.2c-0.7-2.8-1.6-5.6-3.1-8.4c-0.1-0.2,0-0.5,0.3-0.4c1.8,0.4,3.7,0.9,5.5,1.4l5.5,1.6l5.5,1.6
		c1.8,0.5,3.6,1,5.4,1.7c0.2,0.1,0.2,0.4,0,0.5c-2.7,1.6-5,3.5-7.1,5.5c-2.1,2-3.9,4-5.8,6.1c-0.4,0.4,0.1,1,0.6,0.7l3.3-1.7
		c1.2-0.6,2.4-1.1,3.6-1.5c1.2-0.3,2.5-0.5,3.7-0.6c2.5-0.1,5,0.2,7.4,1c2.4,0.8,4.6,2,6.5,3.7c1.9,1.7,3.4,3.8,4.5,6.2
		C859.8,396.8,855,407.6,845.9,411.9"/>
	<path class="st6" d="M932.8,411.1c-8.3,2-16.4,4-24.3,6.4c-8,2.5-15.7,5.1-23.2,8c-0.1,0-0.2,0.2-0.1,0.3
		c1.7,7.9,3.1,15.9,4.4,23.6c1.1,7.8,1.9,15.7,2.5,23.3c0,0.1,0.1,0.2,0.3,0.2c7.3-2.5,14.7-4.6,22.4-6.7c3.9-1.1,7.7-1.9,11.6-2.8
		c3.9-0.8,7.8-1.6,11.9-2.4c0.1,0,0.2-0.1,0.2-0.3c-0.1-4-0.4-8.1-0.6-12.2c-0.3-4.1-0.5-8.3-1-12.4c-0.9-8.1-2-16.6-3.5-24.9
		C933.2,411.1,933,411.1,932.8,411.1"/>
	<path class="st6" d="M749.6,386.4c-1.9-2.3-3.8-4.6-5.7-6.7c-4.6-5.1-9.4-10.3-14.4-15.4c-5-4.9-10.2-9.8-15.6-14.7
		c-0.1-0.1-0.3-0.1-0.5,0c-5.1,5.1-10,10.4-14.7,15.7c-1.2,1.3-2.3,2.6-3.5,3.9l-3.4,4.1c-2.2,2.7-4.4,5.4-6.5,8.2
		c-1.8,2.3-3.6,4.6-5.3,7c-3.4,4.7-4.5,10.3-3.6,15.7c0.4,2.7,1.3,5.3,2.6,7.7c1.3,2.4,3,4.5,5,6.2c4.1,3.6,9,5.3,13.6,4.7
		c2.3-0.3,4.6-0.9,6.7-2.1c2.1-1.1,4.1-2.8,5.8-5c1.7-2.1,3.4-4.4,5.2-6.4c0.1-0.1,0.3-0.1,0.4,0c1.9,2,3.7,4.1,5.6,6.1
		c3.7,4.1,8.3,6,12.9,6.3c2.3,0.1,4.7-0.3,6.9-1.3c1.1-0.5,2.2-1.1,3.3-1.8c1.1-0.7,2.1-1.5,3.1-2.5c1.9-1.9,3.5-4.1,4.6-6.6
		C755.5,402.3,755.1,393.1,749.6,386.4"/>
	<path class="st6" d="M1017,533.2c-3.9,2.4-8.4,3.2-12.5,2.5c-4.2-0.7-7.9-2.8-10.5-6.3c-1.2-1.7-2.2-3.5-2.7-5.4
		c-0.1-0.2-0.4-0.2-0.4,0.1c-0.3,4.6-2.7,9.1-6.9,12.2c-1.9,1.4-3.9,2.4-6,3c-2.1,0.6-4.3,0.9-6.3,0.7c-4.1-0.2-7.9-1.9-10.4-5.1
		c-1.2-1.6-2.2-3.3-2.7-5.2c-0.5-1.9-0.6-3.9-0.3-6c0.6-4.1,2.7-8.2,6.2-11.4c3.9-3.5,8.9-4.9,13.6-4.2c0.2,0,0.4-0.3,0.2-0.4
		c-1.8-0.9-3.3-2.2-4.6-3.8c-1.3-1.7-2.4-3.5-3-5.4c-0.6-1.9-0.9-4-0.8-6.1c0.2-4.2,1.9-8.4,5.2-11.6c3.4-3.4,7.7-5,12.2-4.8
		c2.2,0.1,4.4,0.6,6.5,1.6c2.1,0.9,4.1,2.3,5.7,4.2c3.6,4.2,5,9.7,4,14.6c-0.1,0.4,0.5,0.7,0.8,0.4c2.7-3.4,4.7-7.3,5.8-11.7
		c0.2-1,0.5-2,0.6-3.1c0-0.2,0.3-0.4,0.4-0.2l3.4,4c1.1,1.3,2.3,2.7,3.3,4.1l6.4,8.3c0.1,0.2,0,0.4-0.2,0.4
		c-1.1-0.1-2.2-0.1-3.2-0.1c-4.5,0.1-8.8,1.2-12.7,3.1c-0.4,0.2-0.3,0.8,0.2,0.9c5,0.1,10.1,2.5,13.4,7c2.8,4.1,3.8,8.8,2.9,13.2
		C1023.6,526.8,1021,530.7,1017,533.2"/>
	<path class="st7" d="M557.5,865.7c-5.4,0-11.2-1.7-17.3-5.1c-6.1-3.4-9.1-7.9-9.1-13.6v-37.7c0-10.1,2.9-19.6,8.8-28.6
		c5.8-8.9,13.4-17.4,22.8-25.3c9.3-7.9,19.2-15.6,29.8-23.1c10.5-7.5,20.3-15,29.6-22.4c9.2-7.4,16.8-14.8,22.8-22.4
		c6-7.5,8.9-15.4,8.9-23.7c0-4.1-1-8.4-2.9-12.6c-1.9-4.3-5.1-7.8-9.3-10.7c-4.3-2.8-10.1-4.3-17.3-4.3c-7.8,0-14.6,2.2-20.4,6.6
		c-5.8,4.4-8.8,11.9-8.8,22.6c0,5.7-2.9,10.8-8.6,15.4c-5.7,4.5-13.5,6.8-23.3,6.8c-7.8,0-14.3-2.2-19.4-6.6
		c-5.2-4.4-7.8-12.7-7.8-24.9c0-15.8,4.2-29.3,12.6-40.4c8.4-11.2,19.4-19.6,32.9-25.5c13.5-5.8,27.6-8.8,42.4-8.8
		c15,0,29.5,3.1,43.4,9.3c13.9,6.2,25.2,15.3,34,27.2c8.8,11.9,13.2,26.6,13.2,43.9c0,14-2.9,26.6-8.8,37.7
		c-5.8,11.2-13.3,21.2-22.4,30.2c-9.1,8.9-18.7,17-29,24.3c-10.2,7.3-19.9,13.9-29,20c-9.1,6.1-16.5,12-22.4,17.7
		c-5.8,5.7-8.8,11.5-8.8,17.5v3.5H696c4.9,0,9.2,2.6,12.8,7.8c3.6,5.2,5.4,11.3,5.4,18.3s-1.8,13.2-5.4,18.7
		c-3.6,5.4-7.9,8.2-12.8,8.2H557.5"/>
	<path class="st7" d="M824.4,868c-20.8,0-38.3-3.5-52.7-10.5c-14.4-7-25.2-16-32.5-27c-7.3-11-10.9-22.6-10.9-34.8
		c0-10.6,2.7-17.8,8-21.4c5.3-3.6,12.8-5.4,22.4-5.4c13.2,0,21.6,2.2,25.1,6.6s5.2,9.7,5.2,15.9c0,5.2,1.5,9.5,4.5,13
		c3,3.5,7.1,6.2,12.2,8c5.2,1.8,10.9,2.7,17.1,2.7c11.1,0,19.8-2.9,26.1-8.8c6.2-5.8,9.3-15.1,9.3-27.8v-7.4c0-13-3.1-22.6-9.3-28.8
		c-6.2-6.2-14.6-9.3-25.3-9.3h-59.1c-8.8,0-14.9-2.1-18.3-6.4c-3.4-4.3-5.1-10-5.1-17.3c0-2.1,0.1-3.9,0.2-5.6
		c0.1-1.7,0.3-3.6,0.6-5.6l10.5-98c0.5-6,1.6-10.6,3.3-13.8c1.7-3.2,4.2-4.9,7.6-4.9h124.1c6,0,10.4,2.7,13.2,8.2
		c2.8,5.4,4.3,11.5,4.3,18.3c0,6.5-1.4,12.5-4.3,18.1c-2.9,5.6-7.3,8.4-13.2,8.4h-85.2l-3.9,52.1h25.3c17.9,0,34,2.7,48.4,8.2
		c14.4,5.4,25.8,14.4,34.2,26.8c8.4,12.4,12.6,29.1,12.6,49.8v7.4c0,21.5-4.3,38.9-12.8,52.1c-8.6,13.2-20,22.8-34.2,28.6
		C857.6,865.1,841.7,868,824.4,868"/>
</g>
</svg>
